G04 #@! TF.GenerationSoftware,KiCad,Pcbnew,8.0.4-8.0.4-0~ubuntu22.04.1*
G04 #@! TF.CreationDate,2024-07-30T00:29:42+00:00*
G04 #@! TF.ProjectId,ECU-techPorsche88,4543552d-7465-4636-9850-6f7273636865,rev?*
G04 #@! TF.SameCoordinates,PX403adf0PY916f720*
G04 #@! TF.FileFunction,Paste,Top*
G04 #@! TF.FilePolarity,Positive*
%FSLAX46Y46*%
G04 Gerber Fmt 4.6, Leading zero omitted, Abs format (unit mm)*
G04 Created by KiCad (PCBNEW 8.0.4-8.0.4-0~ubuntu22.04.1) date 2024-07-30 00:29:42*
%MOMM*%
%LPD*%
G01*
G04 APERTURE LIST*
%ADD10R,0.350000X0.375000*%
%ADD11R,0.375000X0.350000*%
%ADD12R,0.900000X0.400000*%
%ADD13O,0.500000X0.250000*%
%ADD14O,0.250000X0.500000*%
%ADD15R,0.640000X2.160000*%
%ADD16O,0.000001X0.000001*%
%ADD17R,0.690000X1.350000*%
%ADD18R,2.160000X0.640000*%
G04 APERTURE END LIST*
G04 #@! TO.C,R4*
G36*
G01*
X100625000Y93465000D02*
X100625000Y96315000D01*
G75*
G02*
X100875000Y96565000I250000J0D01*
G01*
X101600000Y96565000D01*
G75*
G02*
X101850000Y96315000I0J-250000D01*
G01*
X101850000Y93465000D01*
G75*
G02*
X101600000Y93215000I-250000J0D01*
G01*
X100875000Y93215000D01*
G75*
G02*
X100625000Y93465000I0J250000D01*
G01*
G37*
G36*
G01*
X106550000Y93465000D02*
X106550000Y96315000D01*
G75*
G02*
X106800000Y96565000I250000J0D01*
G01*
X107525000Y96565000D01*
G75*
G02*
X107775000Y96315000I0J-250000D01*
G01*
X107775000Y93465000D01*
G75*
G02*
X107525000Y93215000I-250000J0D01*
G01*
X106800000Y93215000D01*
G75*
G02*
X106550000Y93465000I0J250000D01*
G01*
G37*
G04 #@! TD*
G04 #@! TO.C,Q10*
G36*
G01*
X25075000Y75340000D02*
X25825000Y75340000D01*
G75*
G02*
X26200000Y74965000I0J-375000D01*
G01*
X26200000Y73715000D01*
G75*
G02*
X25825000Y73340000I-375000J0D01*
G01*
X25075000Y73340000D01*
G75*
G02*
X24700000Y73715000I0J375000D01*
G01*
X24700000Y74965000D01*
G75*
G02*
X25075000Y75340000I375000J0D01*
G01*
G37*
G36*
G01*
X22775000Y75340000D02*
X23525000Y75340000D01*
G75*
G02*
X23900000Y74965000I0J-375000D01*
G01*
X23900000Y73715000D01*
G75*
G02*
X23525000Y73340000I-375000J0D01*
G01*
X22775000Y73340000D01*
G75*
G02*
X22400000Y73715000I0J375000D01*
G01*
X22400000Y74965000D01*
G75*
G02*
X22775000Y75340000I375000J0D01*
G01*
G37*
G36*
G01*
X20475000Y75340000D02*
X21225000Y75340000D01*
G75*
G02*
X21600000Y74965000I0J-375000D01*
G01*
X21600000Y73715000D01*
G75*
G02*
X21225000Y73340000I-375000J0D01*
G01*
X20475000Y73340000D01*
G75*
G02*
X20100000Y73715000I0J375000D01*
G01*
X20100000Y74965000D01*
G75*
G02*
X20475000Y75340000I375000J0D01*
G01*
G37*
G36*
G01*
X21750000Y69040000D02*
X24550000Y69040000D01*
G75*
G02*
X25050000Y68540000I0J-500000D01*
G01*
X25050000Y67540000D01*
G75*
G02*
X24550000Y67040000I-500000J0D01*
G01*
X21750000Y67040000D01*
G75*
G02*
X21250000Y67540000I0J500000D01*
G01*
X21250000Y68540000D01*
G75*
G02*
X21750000Y69040000I500000J0D01*
G01*
G37*
G04 #@! TD*
G04 #@! TO.C,R19*
G36*
G01*
X42880000Y39255000D02*
X42880000Y39625000D01*
G75*
G02*
X43015000Y39760000I135000J0D01*
G01*
X43285000Y39760000D01*
G75*
G02*
X43420000Y39625000I0J-135000D01*
G01*
X43420000Y39255000D01*
G75*
G02*
X43285000Y39120000I-135000J0D01*
G01*
X43015000Y39120000D01*
G75*
G02*
X42880000Y39255000I0J135000D01*
G01*
G37*
G36*
G01*
X43900000Y39255000D02*
X43900000Y39625000D01*
G75*
G02*
X44035000Y39760000I135000J0D01*
G01*
X44305000Y39760000D01*
G75*
G02*
X44440000Y39625000I0J-135000D01*
G01*
X44440000Y39255000D01*
G75*
G02*
X44305000Y39120000I-135000J0D01*
G01*
X44035000Y39120000D01*
G75*
G02*
X43900000Y39255000I0J135000D01*
G01*
G37*
G04 #@! TD*
G04 #@! TO.C,U2*
G36*
G01*
X108926300Y90092200D02*
X108926300Y90742200D01*
G75*
G02*
X109086300Y90902200I160000J0D01*
G01*
X109406300Y90902200D01*
G75*
G02*
X109566300Y90742200I0J-160000D01*
G01*
X109566300Y90092200D01*
G75*
G02*
X109406300Y89932200I-160000J0D01*
G01*
X109086300Y89932200D01*
G75*
G02*
X108926300Y90092200I0J160000D01*
G01*
G37*
G36*
G01*
X108926300Y88892200D02*
X108926300Y89542200D01*
G75*
G02*
X109086300Y89702200I160000J0D01*
G01*
X109406300Y89702200D01*
G75*
G02*
X109566300Y89542200I0J-160000D01*
G01*
X109566300Y88892200D01*
G75*
G02*
X109406300Y88732200I-160000J0D01*
G01*
X109086300Y88732200D01*
G75*
G02*
X108926300Y88892200I0J160000D01*
G01*
G37*
G36*
G01*
X109726300Y90092200D02*
X109726300Y90742200D01*
G75*
G02*
X109886300Y90902200I160000J0D01*
G01*
X110206300Y90902200D01*
G75*
G02*
X110366300Y90742200I0J-160000D01*
G01*
X110366300Y90092200D01*
G75*
G02*
X110206300Y89932200I-160000J0D01*
G01*
X109886300Y89932200D01*
G75*
G02*
X109726300Y90092200I0J160000D01*
G01*
G37*
G36*
G01*
X109726300Y88892200D02*
X109726300Y89542200D01*
G75*
G02*
X109886300Y89702200I160000J0D01*
G01*
X110206300Y89702200D01*
G75*
G02*
X110366300Y89542200I0J-160000D01*
G01*
X110366300Y88892200D01*
G75*
G02*
X110206300Y88732200I-160000J0D01*
G01*
X109886300Y88732200D01*
G75*
G02*
X109726300Y88892200I0J160000D01*
G01*
G37*
G36*
G01*
X107771300Y90717200D02*
X107771300Y90867200D01*
G75*
G02*
X107846300Y90942200I75000J0D01*
G01*
X108546300Y90942200D01*
G75*
G02*
X108621300Y90867200I0J-75000D01*
G01*
X108621300Y90717200D01*
G75*
G02*
X108546300Y90642200I-75000J0D01*
G01*
X107846300Y90642200D01*
G75*
G02*
X107771300Y90717200I0J75000D01*
G01*
G37*
G36*
G01*
X107771300Y90067200D02*
X107771300Y90217200D01*
G75*
G02*
X107846300Y90292200I75000J0D01*
G01*
X108546300Y90292200D01*
G75*
G02*
X108621300Y90217200I0J-75000D01*
G01*
X108621300Y90067200D01*
G75*
G02*
X108546300Y89992200I-75000J0D01*
G01*
X107846300Y89992200D01*
G75*
G02*
X107771300Y90067200I0J75000D01*
G01*
G37*
G36*
G01*
X107771300Y89417200D02*
X107771300Y89567200D01*
G75*
G02*
X107846300Y89642200I75000J0D01*
G01*
X108546300Y89642200D01*
G75*
G02*
X108621300Y89567200I0J-75000D01*
G01*
X108621300Y89417200D01*
G75*
G02*
X108546300Y89342200I-75000J0D01*
G01*
X107846300Y89342200D01*
G75*
G02*
X107771300Y89417200I0J75000D01*
G01*
G37*
G36*
G01*
X107771300Y88767200D02*
X107771300Y88917200D01*
G75*
G02*
X107846300Y88992200I75000J0D01*
G01*
X108546300Y88992200D01*
G75*
G02*
X108621300Y88917200I0J-75000D01*
G01*
X108621300Y88767200D01*
G75*
G02*
X108546300Y88692200I-75000J0D01*
G01*
X107846300Y88692200D01*
G75*
G02*
X107771300Y88767200I0J75000D01*
G01*
G37*
G36*
G01*
X110671300Y88767200D02*
X110671300Y88917200D01*
G75*
G02*
X110746300Y88992200I75000J0D01*
G01*
X111446300Y88992200D01*
G75*
G02*
X111521300Y88917200I0J-75000D01*
G01*
X111521300Y88767200D01*
G75*
G02*
X111446300Y88692200I-75000J0D01*
G01*
X110746300Y88692200D01*
G75*
G02*
X110671300Y88767200I0J75000D01*
G01*
G37*
G36*
G01*
X110671300Y89417200D02*
X110671300Y89567200D01*
G75*
G02*
X110746300Y89642200I75000J0D01*
G01*
X111446300Y89642200D01*
G75*
G02*
X111521300Y89567200I0J-75000D01*
G01*
X111521300Y89417200D01*
G75*
G02*
X111446300Y89342200I-75000J0D01*
G01*
X110746300Y89342200D01*
G75*
G02*
X110671300Y89417200I0J75000D01*
G01*
G37*
G36*
G01*
X110671300Y90067200D02*
X110671300Y90217200D01*
G75*
G02*
X110746300Y90292200I75000J0D01*
G01*
X111446300Y90292200D01*
G75*
G02*
X111521300Y90217200I0J-75000D01*
G01*
X111521300Y90067200D01*
G75*
G02*
X111446300Y89992200I-75000J0D01*
G01*
X110746300Y89992200D01*
G75*
G02*
X110671300Y90067200I0J75000D01*
G01*
G37*
G36*
G01*
X110671300Y90717200D02*
X110671300Y90867200D01*
G75*
G02*
X110746300Y90942200I75000J0D01*
G01*
X111446300Y90942200D01*
G75*
G02*
X111521300Y90867200I0J-75000D01*
G01*
X111521300Y90717200D01*
G75*
G02*
X111446300Y90642200I-75000J0D01*
G01*
X110746300Y90642200D01*
G75*
G02*
X110671300Y90717200I0J75000D01*
G01*
G37*
G04 #@! TD*
G04 #@! TO.C,JP18*
G36*
G01*
X81785000Y100140001D02*
X83035000Y100140001D01*
G75*
G02*
X83135000Y100040001I0J-100000D01*
G01*
X83135000Y99240001D01*
G75*
G02*
X83035000Y99140001I-100000J0D01*
G01*
X81785000Y99140001D01*
G75*
G02*
X81685000Y99240001I0J100000D01*
G01*
X81685000Y100040001D01*
G75*
G02*
X81785000Y100140001I100000J0D01*
G01*
G37*
G36*
G01*
X81785000Y98239979D02*
X83035000Y98239979D01*
G75*
G02*
X83135000Y98139979I0J-100000D01*
G01*
X83135000Y97339979D01*
G75*
G02*
X83035000Y97239979I-100000J0D01*
G01*
X81785000Y97239979D01*
G75*
G02*
X81685000Y97339979I0J100000D01*
G01*
X81685000Y98139979D01*
G75*
G02*
X81785000Y98239979I100000J0D01*
G01*
G37*
G04 #@! TD*
G04 #@! TO.C,Q6*
G36*
G01*
X136760000Y72610000D02*
X136760000Y73310000D01*
G75*
G02*
X137010000Y73560000I250000J0D01*
G01*
X138710000Y73560000D01*
G75*
G02*
X138960000Y73310000I0J-250000D01*
G01*
X138960000Y72610000D01*
G75*
G02*
X138710000Y72360000I-250000J0D01*
G01*
X137010000Y72360000D01*
G75*
G02*
X136760000Y72610000I0J250000D01*
G01*
G37*
G36*
G01*
X140960000Y71080000D02*
X140960000Y73330000D01*
G75*
G02*
X141210000Y73580000I250000J0D01*
G01*
X143760000Y73580000D01*
G75*
G02*
X144010000Y73330000I0J-250000D01*
G01*
X144010000Y71080000D01*
G75*
G02*
X143760000Y70830000I-250000J0D01*
G01*
X141210000Y70830000D01*
G75*
G02*
X140960000Y71080000I0J250000D01*
G01*
G37*
G36*
G01*
X140960000Y68030000D02*
X140960000Y70280000D01*
G75*
G02*
X141210000Y70530000I250000J0D01*
G01*
X143760000Y70530000D01*
G75*
G02*
X144010000Y70280000I0J-250000D01*
G01*
X144010000Y68030000D01*
G75*
G02*
X143760000Y67780000I-250000J0D01*
G01*
X141210000Y67780000D01*
G75*
G02*
X140960000Y68030000I0J250000D01*
G01*
G37*
G36*
G01*
X144310000Y71080000D02*
X144310000Y73330000D01*
G75*
G02*
X144560000Y73580000I250000J0D01*
G01*
X147110000Y73580000D01*
G75*
G02*
X147360000Y73330000I0J-250000D01*
G01*
X147360000Y71080000D01*
G75*
G02*
X147110000Y70830000I-250000J0D01*
G01*
X144560000Y70830000D01*
G75*
G02*
X144310000Y71080000I0J250000D01*
G01*
G37*
G36*
G01*
X144310000Y68030000D02*
X144310000Y70280000D01*
G75*
G02*
X144560000Y70530000I250000J0D01*
G01*
X147110000Y70530000D01*
G75*
G02*
X147360000Y70280000I0J-250000D01*
G01*
X147360000Y68030000D01*
G75*
G02*
X147110000Y67780000I-250000J0D01*
G01*
X144560000Y67780000D01*
G75*
G02*
X144310000Y68030000I0J250000D01*
G01*
G37*
G36*
G01*
X136760000Y68050000D02*
X136760000Y68750000D01*
G75*
G02*
X137010000Y69000000I250000J0D01*
G01*
X138710000Y69000000D01*
G75*
G02*
X138960000Y68750000I0J-250000D01*
G01*
X138960000Y68050000D01*
G75*
G02*
X138710000Y67800000I-250000J0D01*
G01*
X137010000Y67800000D01*
G75*
G02*
X136760000Y68050000I0J250000D01*
G01*
G37*
G04 #@! TD*
G04 #@! TO.C,D11*
G36*
G01*
X64460000Y69127500D02*
X64460000Y69352500D01*
G75*
G02*
X64572500Y69465000I112500J0D01*
G01*
X64947500Y69465000D01*
G75*
G02*
X65060000Y69352500I0J-112500D01*
G01*
X65060000Y69127500D01*
G75*
G02*
X64947500Y69015000I-112500J0D01*
G01*
X64572500Y69015000D01*
G75*
G02*
X64460000Y69127500I0J112500D01*
G01*
G37*
G36*
G01*
X66560000Y69127500D02*
X66560000Y69352500D01*
G75*
G02*
X66672500Y69465000I112500J0D01*
G01*
X67047500Y69465000D01*
G75*
G02*
X67160000Y69352500I0J-112500D01*
G01*
X67160000Y69127500D01*
G75*
G02*
X67047500Y69015000I-112500J0D01*
G01*
X66672500Y69015000D01*
G75*
G02*
X66560000Y69127500I0J112500D01*
G01*
G37*
G04 #@! TD*
G04 #@! TO.C,JP26*
G36*
G01*
X88785000Y92640001D02*
X90035000Y92640001D01*
G75*
G02*
X90135000Y92540001I0J-100000D01*
G01*
X90135000Y91740001D01*
G75*
G02*
X90035000Y91640001I-100000J0D01*
G01*
X88785000Y91640001D01*
G75*
G02*
X88685000Y91740001I0J100000D01*
G01*
X88685000Y92540001D01*
G75*
G02*
X88785000Y92640001I100000J0D01*
G01*
G37*
G36*
G01*
X88785000Y90739979D02*
X90035000Y90739979D01*
G75*
G02*
X90135000Y90639979I0J-100000D01*
G01*
X90135000Y89839979D01*
G75*
G02*
X90035000Y89739979I-100000J0D01*
G01*
X88785000Y89739979D01*
G75*
G02*
X88685000Y89839979I0J100000D01*
G01*
X88685000Y90639979D01*
G75*
G02*
X88785000Y90739979I100000J0D01*
G01*
G37*
G04 #@! TD*
G04 #@! TO.C,D7*
G36*
G01*
X15272500Y79090000D02*
X15047500Y79090000D01*
G75*
G02*
X14935000Y79202500I0J112500D01*
G01*
X14935000Y79577500D01*
G75*
G02*
X15047500Y79690000I112500J0D01*
G01*
X15272500Y79690000D01*
G75*
G02*
X15385000Y79577500I0J-112500D01*
G01*
X15385000Y79202500D01*
G75*
G02*
X15272500Y79090000I-112500J0D01*
G01*
G37*
G36*
G01*
X15272500Y81190000D02*
X15047500Y81190000D01*
G75*
G02*
X14935000Y81302500I0J112500D01*
G01*
X14935000Y81677500D01*
G75*
G02*
X15047500Y81790000I112500J0D01*
G01*
X15272500Y81790000D01*
G75*
G02*
X15385000Y81677500I0J-112500D01*
G01*
X15385000Y81302500D01*
G75*
G02*
X15272500Y81190000I-112500J0D01*
G01*
G37*
G04 #@! TD*
D10*
G04 #@! TO.C,U7*
X100160000Y11762500D03*
X99660000Y11762500D03*
X99160000Y11762500D03*
X98660000Y11762500D03*
D11*
X98647500Y11250000D03*
X98647500Y10750000D03*
D10*
X98660000Y10237500D03*
X99160000Y10237500D03*
X99660000Y10237500D03*
X100160000Y10237500D03*
D11*
X100172500Y10750000D03*
X100172500Y11250000D03*
G04 #@! TD*
G04 #@! TO.C,Q8*
G36*
G01*
X136760000Y13607500D02*
X136760000Y14307500D01*
G75*
G02*
X137010000Y14557500I250000J0D01*
G01*
X138710000Y14557500D01*
G75*
G02*
X138960000Y14307500I0J-250000D01*
G01*
X138960000Y13607500D01*
G75*
G02*
X138710000Y13357500I-250000J0D01*
G01*
X137010000Y13357500D01*
G75*
G02*
X136760000Y13607500I0J250000D01*
G01*
G37*
G36*
G01*
X140960000Y12077500D02*
X140960000Y14327500D01*
G75*
G02*
X141210000Y14577500I250000J0D01*
G01*
X143760000Y14577500D01*
G75*
G02*
X144010000Y14327500I0J-250000D01*
G01*
X144010000Y12077500D01*
G75*
G02*
X143760000Y11827500I-250000J0D01*
G01*
X141210000Y11827500D01*
G75*
G02*
X140960000Y12077500I0J250000D01*
G01*
G37*
G36*
G01*
X140960000Y9027500D02*
X140960000Y11277500D01*
G75*
G02*
X141210000Y11527500I250000J0D01*
G01*
X143760000Y11527500D01*
G75*
G02*
X144010000Y11277500I0J-250000D01*
G01*
X144010000Y9027500D01*
G75*
G02*
X143760000Y8777500I-250000J0D01*
G01*
X141210000Y8777500D01*
G75*
G02*
X140960000Y9027500I0J250000D01*
G01*
G37*
G36*
G01*
X144310000Y12077500D02*
X144310000Y14327500D01*
G75*
G02*
X144560000Y14577500I250000J0D01*
G01*
X147110000Y14577500D01*
G75*
G02*
X147360000Y14327500I0J-250000D01*
G01*
X147360000Y12077500D01*
G75*
G02*
X147110000Y11827500I-250000J0D01*
G01*
X144560000Y11827500D01*
G75*
G02*
X144310000Y12077500I0J250000D01*
G01*
G37*
G36*
G01*
X144310000Y9027500D02*
X144310000Y11277500D01*
G75*
G02*
X144560000Y11527500I250000J0D01*
G01*
X147110000Y11527500D01*
G75*
G02*
X147360000Y11277500I0J-250000D01*
G01*
X147360000Y9027500D01*
G75*
G02*
X147110000Y8777500I-250000J0D01*
G01*
X144560000Y8777500D01*
G75*
G02*
X144310000Y9027500I0J250000D01*
G01*
G37*
G36*
G01*
X136760000Y9047500D02*
X136760000Y9747500D01*
G75*
G02*
X137010000Y9997500I250000J0D01*
G01*
X138710000Y9997500D01*
G75*
G02*
X138960000Y9747500I0J-250000D01*
G01*
X138960000Y9047500D01*
G75*
G02*
X138710000Y8797500I-250000J0D01*
G01*
X137010000Y8797500D01*
G75*
G02*
X136760000Y9047500I0J250000D01*
G01*
G37*
G04 #@! TD*
G04 #@! TO.C,C19*
G36*
G01*
X59295000Y20255000D02*
X59635000Y20255000D01*
G75*
G02*
X59775000Y20115000I0J-140000D01*
G01*
X59775000Y19835000D01*
G75*
G02*
X59635000Y19695000I-140000J0D01*
G01*
X59295000Y19695000D01*
G75*
G02*
X59155000Y19835000I0J140000D01*
G01*
X59155000Y20115000D01*
G75*
G02*
X59295000Y20255000I140000J0D01*
G01*
G37*
G36*
G01*
X59295000Y19295000D02*
X59635000Y19295000D01*
G75*
G02*
X59775000Y19155000I0J-140000D01*
G01*
X59775000Y18875000D01*
G75*
G02*
X59635000Y18735000I-140000J0D01*
G01*
X59295000Y18735000D01*
G75*
G02*
X59155000Y18875000I0J140000D01*
G01*
X59155000Y19155000D01*
G75*
G02*
X59295000Y19295000I140000J0D01*
G01*
G37*
G04 #@! TD*
G04 #@! TO.C,Q4*
G36*
G01*
X136730000Y82100000D02*
X136730000Y82800000D01*
G75*
G02*
X136980000Y83050000I250000J0D01*
G01*
X138680000Y83050000D01*
G75*
G02*
X138930000Y82800000I0J-250000D01*
G01*
X138930000Y82100000D01*
G75*
G02*
X138680000Y81850000I-250000J0D01*
G01*
X136980000Y81850000D01*
G75*
G02*
X136730000Y82100000I0J250000D01*
G01*
G37*
G36*
G01*
X140930000Y80570000D02*
X140930000Y82820000D01*
G75*
G02*
X141180000Y83070000I250000J0D01*
G01*
X143730000Y83070000D01*
G75*
G02*
X143980000Y82820000I0J-250000D01*
G01*
X143980000Y80570000D01*
G75*
G02*
X143730000Y80320000I-250000J0D01*
G01*
X141180000Y80320000D01*
G75*
G02*
X140930000Y80570000I0J250000D01*
G01*
G37*
G36*
G01*
X140930000Y77520000D02*
X140930000Y79770000D01*
G75*
G02*
X141180000Y80020000I250000J0D01*
G01*
X143730000Y80020000D01*
G75*
G02*
X143980000Y79770000I0J-250000D01*
G01*
X143980000Y77520000D01*
G75*
G02*
X143730000Y77270000I-250000J0D01*
G01*
X141180000Y77270000D01*
G75*
G02*
X140930000Y77520000I0J250000D01*
G01*
G37*
G36*
G01*
X144280000Y80570000D02*
X144280000Y82820000D01*
G75*
G02*
X144530000Y83070000I250000J0D01*
G01*
X147080000Y83070000D01*
G75*
G02*
X147330000Y82820000I0J-250000D01*
G01*
X147330000Y80570000D01*
G75*
G02*
X147080000Y80320000I-250000J0D01*
G01*
X144530000Y80320000D01*
G75*
G02*
X144280000Y80570000I0J250000D01*
G01*
G37*
G36*
G01*
X144280000Y77520000D02*
X144280000Y79770000D01*
G75*
G02*
X144530000Y80020000I250000J0D01*
G01*
X147080000Y80020000D01*
G75*
G02*
X147330000Y79770000I0J-250000D01*
G01*
X147330000Y77520000D01*
G75*
G02*
X147080000Y77270000I-250000J0D01*
G01*
X144530000Y77270000D01*
G75*
G02*
X144280000Y77520000I0J250000D01*
G01*
G37*
G36*
G01*
X136730000Y77540000D02*
X136730000Y78240000D01*
G75*
G02*
X136980000Y78490000I250000J0D01*
G01*
X138680000Y78490000D01*
G75*
G02*
X138930000Y78240000I0J-250000D01*
G01*
X138930000Y77540000D01*
G75*
G02*
X138680000Y77290000I-250000J0D01*
G01*
X136980000Y77290000D01*
G75*
G02*
X136730000Y77540000I0J250000D01*
G01*
G37*
G04 #@! TD*
G04 #@! TO.C,JP2*
G36*
G01*
X44535000Y100140001D02*
X45785000Y100140001D01*
G75*
G02*
X45885000Y100040001I0J-100000D01*
G01*
X45885000Y99240001D01*
G75*
G02*
X45785000Y99140001I-100000J0D01*
G01*
X44535000Y99140001D01*
G75*
G02*
X44435000Y99240001I0J100000D01*
G01*
X44435000Y100040001D01*
G75*
G02*
X44535000Y100140001I100000J0D01*
G01*
G37*
G36*
G01*
X44535000Y98239979D02*
X45785000Y98239979D01*
G75*
G02*
X45885000Y98139979I0J-100000D01*
G01*
X45885000Y97339979D01*
G75*
G02*
X45785000Y97239979I-100000J0D01*
G01*
X44535000Y97239979D01*
G75*
G02*
X44435000Y97339979I0J100000D01*
G01*
X44435000Y98139979D01*
G75*
G02*
X44535000Y98239979I100000J0D01*
G01*
G37*
G04 #@! TD*
G04 #@! TO.C,Q2*
G36*
G01*
X136750000Y92140000D02*
X136750000Y92840000D01*
G75*
G02*
X137000000Y93090000I250000J0D01*
G01*
X138700000Y93090000D01*
G75*
G02*
X138950000Y92840000I0J-250000D01*
G01*
X138950000Y92140000D01*
G75*
G02*
X138700000Y91890000I-250000J0D01*
G01*
X137000000Y91890000D01*
G75*
G02*
X136750000Y92140000I0J250000D01*
G01*
G37*
G36*
G01*
X140950000Y90610000D02*
X140950000Y92860000D01*
G75*
G02*
X141200000Y93110000I250000J0D01*
G01*
X143750000Y93110000D01*
G75*
G02*
X144000000Y92860000I0J-250000D01*
G01*
X144000000Y90610000D01*
G75*
G02*
X143750000Y90360000I-250000J0D01*
G01*
X141200000Y90360000D01*
G75*
G02*
X140950000Y90610000I0J250000D01*
G01*
G37*
G36*
G01*
X140950000Y87560000D02*
X140950000Y89810000D01*
G75*
G02*
X141200000Y90060000I250000J0D01*
G01*
X143750000Y90060000D01*
G75*
G02*
X144000000Y89810000I0J-250000D01*
G01*
X144000000Y87560000D01*
G75*
G02*
X143750000Y87310000I-250000J0D01*
G01*
X141200000Y87310000D01*
G75*
G02*
X140950000Y87560000I0J250000D01*
G01*
G37*
G36*
G01*
X144300000Y90610000D02*
X144300000Y92860000D01*
G75*
G02*
X144550000Y93110000I250000J0D01*
G01*
X147100000Y93110000D01*
G75*
G02*
X147350000Y92860000I0J-250000D01*
G01*
X147350000Y90610000D01*
G75*
G02*
X147100000Y90360000I-250000J0D01*
G01*
X144550000Y90360000D01*
G75*
G02*
X144300000Y90610000I0J250000D01*
G01*
G37*
G36*
G01*
X144300000Y87560000D02*
X144300000Y89810000D01*
G75*
G02*
X144550000Y90060000I250000J0D01*
G01*
X147100000Y90060000D01*
G75*
G02*
X147350000Y89810000I0J-250000D01*
G01*
X147350000Y87560000D01*
G75*
G02*
X147100000Y87310000I-250000J0D01*
G01*
X144550000Y87310000D01*
G75*
G02*
X144300000Y87560000I0J250000D01*
G01*
G37*
G36*
G01*
X136750000Y87580000D02*
X136750000Y88280000D01*
G75*
G02*
X137000000Y88530000I250000J0D01*
G01*
X138700000Y88530000D01*
G75*
G02*
X138950000Y88280000I0J-250000D01*
G01*
X138950000Y87580000D01*
G75*
G02*
X138700000Y87330000I-250000J0D01*
G01*
X137000000Y87330000D01*
G75*
G02*
X136750000Y87580000I0J250000D01*
G01*
G37*
G04 #@! TD*
G04 #@! TO.C,JP6*
G36*
G01*
X37785000Y100140001D02*
X39035000Y100140001D01*
G75*
G02*
X39135000Y100040001I0J-100000D01*
G01*
X39135000Y99240001D01*
G75*
G02*
X39035000Y99140001I-100000J0D01*
G01*
X37785000Y99140001D01*
G75*
G02*
X37685000Y99240001I0J100000D01*
G01*
X37685000Y100040001D01*
G75*
G02*
X37785000Y100140001I100000J0D01*
G01*
G37*
G36*
G01*
X37785000Y98239979D02*
X39035000Y98239979D01*
G75*
G02*
X39135000Y98139979I0J-100000D01*
G01*
X39135000Y97339979D01*
G75*
G02*
X39035000Y97239979I-100000J0D01*
G01*
X37785000Y97239979D01*
G75*
G02*
X37685000Y97339979I0J100000D01*
G01*
X37685000Y98139979D01*
G75*
G02*
X37785000Y98239979I100000J0D01*
G01*
G37*
G04 #@! TD*
G04 #@! TO.C,D38*
G36*
G01*
X122847500Y60927500D02*
X122847500Y61152500D01*
G75*
G02*
X122960000Y61265000I112500J0D01*
G01*
X123335000Y61265000D01*
G75*
G02*
X123447500Y61152500I0J-112500D01*
G01*
X123447500Y60927500D01*
G75*
G02*
X123335000Y60815000I-112500J0D01*
G01*
X122960000Y60815000D01*
G75*
G02*
X122847500Y60927500I0J112500D01*
G01*
G37*
G36*
G01*
X124947500Y60927500D02*
X124947500Y61152500D01*
G75*
G02*
X125060000Y61265000I112500J0D01*
G01*
X125435000Y61265000D01*
G75*
G02*
X125547500Y61152500I0J-112500D01*
G01*
X125547500Y60927500D01*
G75*
G02*
X125435000Y60815000I-112500J0D01*
G01*
X125060000Y60815000D01*
G75*
G02*
X124947500Y60927500I0J112500D01*
G01*
G37*
G04 #@! TD*
G04 #@! TO.C,JP8*
G36*
G01*
X23335000Y91145001D02*
X24585000Y91145001D01*
G75*
G02*
X24685000Y91045001I0J-100000D01*
G01*
X24685000Y90245001D01*
G75*
G02*
X24585000Y90145001I-100000J0D01*
G01*
X23335000Y90145001D01*
G75*
G02*
X23235000Y90245001I0J100000D01*
G01*
X23235000Y91045001D01*
G75*
G02*
X23335000Y91145001I100000J0D01*
G01*
G37*
G36*
G01*
X23335000Y89244979D02*
X24585000Y89244979D01*
G75*
G02*
X24685000Y89144979I0J-100000D01*
G01*
X24685000Y88344979D01*
G75*
G02*
X24585000Y88244979I-100000J0D01*
G01*
X23335000Y88244979D01*
G75*
G02*
X23235000Y88344979I0J100000D01*
G01*
X23235000Y89144979D01*
G75*
G02*
X23335000Y89244979I100000J0D01*
G01*
G37*
G04 #@! TD*
G04 #@! TO.C,JP10*
G36*
G01*
X43983778Y91142200D02*
X43983778Y92392200D01*
G75*
G02*
X44083778Y92492200I100000J0D01*
G01*
X44883778Y92492200D01*
G75*
G02*
X44983778Y92392200I0J-100000D01*
G01*
X44983778Y91142200D01*
G75*
G02*
X44883778Y91042200I-100000J0D01*
G01*
X44083778Y91042200D01*
G75*
G02*
X43983778Y91142200I0J100000D01*
G01*
G37*
G36*
G01*
X45883800Y91142200D02*
X45883800Y92392200D01*
G75*
G02*
X45983800Y92492200I100000J0D01*
G01*
X46783800Y92492200D01*
G75*
G02*
X46883800Y92392200I0J-100000D01*
G01*
X46883800Y91142200D01*
G75*
G02*
X46783800Y91042200I-100000J0D01*
G01*
X45983800Y91042200D01*
G75*
G02*
X45883800Y91142200I0J100000D01*
G01*
G37*
G04 #@! TD*
G04 #@! TO.C,D19*
G36*
G01*
X77510000Y76677500D02*
X77510000Y76902500D01*
G75*
G02*
X77622500Y77015000I112500J0D01*
G01*
X77997500Y77015000D01*
G75*
G02*
X78110000Y76902500I0J-112500D01*
G01*
X78110000Y76677500D01*
G75*
G02*
X77997500Y76565000I-112500J0D01*
G01*
X77622500Y76565000D01*
G75*
G02*
X77510000Y76677500I0J112500D01*
G01*
G37*
G36*
G01*
X79610000Y76677500D02*
X79610000Y76902500D01*
G75*
G02*
X79722500Y77015000I112500J0D01*
G01*
X80097500Y77015000D01*
G75*
G02*
X80210000Y76902500I0J-112500D01*
G01*
X80210000Y76677500D01*
G75*
G02*
X80097500Y76565000I-112500J0D01*
G01*
X79722500Y76565000D01*
G75*
G02*
X79610000Y76677500I0J112500D01*
G01*
G37*
G04 #@! TD*
D12*
G04 #@! TO.C,RN1*
X71660000Y67040000D03*
X71660000Y67840000D03*
X71660000Y68640000D03*
X71660000Y69440000D03*
X69960000Y69440000D03*
X69960000Y68640000D03*
X69960000Y67840000D03*
X69960000Y67040000D03*
G04 #@! TD*
G04 #@! TO.C,JP4*
G36*
G01*
X23035000Y100140001D02*
X24285000Y100140001D01*
G75*
G02*
X24385000Y100040001I0J-100000D01*
G01*
X24385000Y99240001D01*
G75*
G02*
X24285000Y99140001I-100000J0D01*
G01*
X23035000Y99140001D01*
G75*
G02*
X22935000Y99240001I0J100000D01*
G01*
X22935000Y100040001D01*
G75*
G02*
X23035000Y100140001I100000J0D01*
G01*
G37*
G36*
G01*
X23035000Y98239979D02*
X24285000Y98239979D01*
G75*
G02*
X24385000Y98139979I0J-100000D01*
G01*
X24385000Y97339979D01*
G75*
G02*
X24285000Y97239979I-100000J0D01*
G01*
X23035000Y97239979D01*
G75*
G02*
X22935000Y97339979I0J100000D01*
G01*
X22935000Y98139979D01*
G75*
G02*
X23035000Y98239979I100000J0D01*
G01*
G37*
G04 #@! TD*
G04 #@! TO.C,R28*
G36*
G01*
X48940000Y35875000D02*
X48940000Y35505000D01*
G75*
G02*
X48805000Y35370000I-135000J0D01*
G01*
X48535000Y35370000D01*
G75*
G02*
X48400000Y35505000I0J135000D01*
G01*
X48400000Y35875000D01*
G75*
G02*
X48535000Y36010000I135000J0D01*
G01*
X48805000Y36010000D01*
G75*
G02*
X48940000Y35875000I0J-135000D01*
G01*
G37*
G36*
G01*
X47920000Y35875000D02*
X47920000Y35505000D01*
G75*
G02*
X47785000Y35370000I-135000J0D01*
G01*
X47515000Y35370000D01*
G75*
G02*
X47380000Y35505000I0J135000D01*
G01*
X47380000Y35875000D01*
G75*
G02*
X47515000Y36010000I135000J0D01*
G01*
X47785000Y36010000D01*
G75*
G02*
X47920000Y35875000I0J-135000D01*
G01*
G37*
G04 #@! TD*
G04 #@! TO.C,R12*
G36*
G01*
X98035000Y85365000D02*
X100885000Y85365000D01*
G75*
G02*
X101135000Y85115000I0J-250000D01*
G01*
X101135000Y84390000D01*
G75*
G02*
X100885000Y84140000I-250000J0D01*
G01*
X98035000Y84140000D01*
G75*
G02*
X97785000Y84390000I0J250000D01*
G01*
X97785000Y85115000D01*
G75*
G02*
X98035000Y85365000I250000J0D01*
G01*
G37*
G36*
G01*
X98035000Y79440000D02*
X100885000Y79440000D01*
G75*
G02*
X101135000Y79190000I0J-250000D01*
G01*
X101135000Y78465000D01*
G75*
G02*
X100885000Y78215000I-250000J0D01*
G01*
X98035000Y78215000D01*
G75*
G02*
X97785000Y78465000I0J250000D01*
G01*
X97785000Y79190000D01*
G75*
G02*
X98035000Y79440000I250000J0D01*
G01*
G37*
G04 #@! TD*
D13*
G04 #@! TO.C,M2*
X65035002Y81318414D03*
X65035002Y83043416D03*
X65035002Y84768416D03*
X65035002Y86468414D03*
D14*
X78235001Y79843414D03*
D13*
X83990875Y85864812D03*
X83985003Y82243414D03*
G04 #@! TD*
G04 #@! TO.C,C20*
G36*
G01*
X55965000Y21215000D02*
X56465000Y21215000D01*
G75*
G02*
X56690000Y20990000I0J-225000D01*
G01*
X56690000Y20540000D01*
G75*
G02*
X56465000Y20315000I-225000J0D01*
G01*
X55965000Y20315000D01*
G75*
G02*
X55740000Y20540000I0J225000D01*
G01*
X55740000Y20990000D01*
G75*
G02*
X55965000Y21215000I225000J0D01*
G01*
G37*
G36*
G01*
X55965000Y19665000D02*
X56465000Y19665000D01*
G75*
G02*
X56690000Y19440000I0J-225000D01*
G01*
X56690000Y18990000D01*
G75*
G02*
X56465000Y18765000I-225000J0D01*
G01*
X55965000Y18765000D01*
G75*
G02*
X55740000Y18990000I0J225000D01*
G01*
X55740000Y19440000D01*
G75*
G02*
X55965000Y19665000I225000J0D01*
G01*
G37*
G04 #@! TD*
G04 #@! TO.C,D32*
G36*
G01*
X64585000Y61983750D02*
X64585000Y62496250D01*
G75*
G02*
X64803750Y62715000I218750J0D01*
G01*
X65241250Y62715000D01*
G75*
G02*
X65460000Y62496250I0J-218750D01*
G01*
X65460000Y61983750D01*
G75*
G02*
X65241250Y61765000I-218750J0D01*
G01*
X64803750Y61765000D01*
G75*
G02*
X64585000Y61983750I0J218750D01*
G01*
G37*
G36*
G01*
X66160000Y61983750D02*
X66160000Y62496250D01*
G75*
G02*
X66378750Y62715000I218750J0D01*
G01*
X66816250Y62715000D01*
G75*
G02*
X67035000Y62496250I0J-218750D01*
G01*
X67035000Y61983750D01*
G75*
G02*
X66816250Y61765000I-218750J0D01*
G01*
X66378750Y61765000D01*
G75*
G02*
X66160000Y61983750I0J218750D01*
G01*
G37*
G04 #@! TD*
G04 #@! TO.C,D1*
G36*
G01*
X21010000Y90565000D02*
X21010000Y89815000D01*
G75*
G02*
X20785000Y89590000I-225000J0D01*
G01*
X20335000Y89590000D01*
G75*
G02*
X20110000Y89815000I0J225000D01*
G01*
X20110000Y90565000D01*
G75*
G02*
X20335000Y90790000I225000J0D01*
G01*
X20785000Y90790000D01*
G75*
G02*
X21010000Y90565000I0J-225000D01*
G01*
G37*
G36*
G01*
X17710000Y90565000D02*
X17710000Y89815000D01*
G75*
G02*
X17485000Y89590000I-225000J0D01*
G01*
X17035000Y89590000D01*
G75*
G02*
X16810000Y89815000I0J225000D01*
G01*
X16810000Y90565000D01*
G75*
G02*
X17035000Y90790000I225000J0D01*
G01*
X17485000Y90790000D01*
G75*
G02*
X17710000Y90565000I0J-225000D01*
G01*
G37*
G04 #@! TD*
G04 #@! TO.C,C6*
G36*
G01*
X29160000Y48465000D02*
X28660000Y48465000D01*
G75*
G02*
X28435000Y48690000I0J225000D01*
G01*
X28435000Y49140000D01*
G75*
G02*
X28660000Y49365000I225000J0D01*
G01*
X29160000Y49365000D01*
G75*
G02*
X29385000Y49140000I0J-225000D01*
G01*
X29385000Y48690000D01*
G75*
G02*
X29160000Y48465000I-225000J0D01*
G01*
G37*
G36*
G01*
X29160000Y50015000D02*
X28660000Y50015000D01*
G75*
G02*
X28435000Y50240000I0J225000D01*
G01*
X28435000Y50690000D01*
G75*
G02*
X28660000Y50915000I225000J0D01*
G01*
X29160000Y50915000D01*
G75*
G02*
X29385000Y50690000I0J-225000D01*
G01*
X29385000Y50240000D01*
G75*
G02*
X29160000Y50015000I-225000J0D01*
G01*
G37*
G04 #@! TD*
G04 #@! TO.C,R13*
G36*
G01*
X135838800Y82675000D02*
X135838800Y82305000D01*
G75*
G02*
X135703800Y82170000I-135000J0D01*
G01*
X135433800Y82170000D01*
G75*
G02*
X135298800Y82305000I0J135000D01*
G01*
X135298800Y82675000D01*
G75*
G02*
X135433800Y82810000I135000J0D01*
G01*
X135703800Y82810000D01*
G75*
G02*
X135838800Y82675000I0J-135000D01*
G01*
G37*
G36*
G01*
X134818800Y82675000D02*
X134818800Y82305000D01*
G75*
G02*
X134683800Y82170000I-135000J0D01*
G01*
X134413800Y82170000D01*
G75*
G02*
X134278800Y82305000I0J135000D01*
G01*
X134278800Y82675000D01*
G75*
G02*
X134413800Y82810000I135000J0D01*
G01*
X134683800Y82810000D01*
G75*
G02*
X134818800Y82675000I0J-135000D01*
G01*
G37*
G04 #@! TD*
G04 #@! TO.C,R33*
G36*
G01*
X154030000Y18005000D02*
X154030000Y18375000D01*
G75*
G02*
X154165000Y18510000I135000J0D01*
G01*
X154435000Y18510000D01*
G75*
G02*
X154570000Y18375000I0J-135000D01*
G01*
X154570000Y18005000D01*
G75*
G02*
X154435000Y17870000I-135000J0D01*
G01*
X154165000Y17870000D01*
G75*
G02*
X154030000Y18005000I0J135000D01*
G01*
G37*
G36*
G01*
X155050000Y18005000D02*
X155050000Y18375000D01*
G75*
G02*
X155185000Y18510000I135000J0D01*
G01*
X155455000Y18510000D01*
G75*
G02*
X155590000Y18375000I0J-135000D01*
G01*
X155590000Y18005000D01*
G75*
G02*
X155455000Y17870000I-135000J0D01*
G01*
X155185000Y17870000D01*
G75*
G02*
X155050000Y18005000I0J135000D01*
G01*
G37*
G04 #@! TD*
G04 #@! TO.C,R8*
G36*
G01*
X18725000Y91765000D02*
X21575000Y91765000D01*
G75*
G02*
X21825000Y91515000I0J-250000D01*
G01*
X21825000Y90790000D01*
G75*
G02*
X21575000Y90540000I-250000J0D01*
G01*
X18725000Y90540000D01*
G75*
G02*
X18475000Y90790000I0J250000D01*
G01*
X18475000Y91515000D01*
G75*
G02*
X18725000Y91765000I250000J0D01*
G01*
G37*
G36*
G01*
X18725000Y85840000D02*
X21575000Y85840000D01*
G75*
G02*
X21825000Y85590000I0J-250000D01*
G01*
X21825000Y84865000D01*
G75*
G02*
X21575000Y84615000I-250000J0D01*
G01*
X18725000Y84615000D01*
G75*
G02*
X18475000Y84865000I0J250000D01*
G01*
X18475000Y85590000D01*
G75*
G02*
X18725000Y85840000I250000J0D01*
G01*
G37*
G04 #@! TD*
G04 #@! TO.C,D27*
G36*
G01*
X41422500Y39946250D02*
X41422500Y39433750D01*
G75*
G02*
X41203750Y39215000I-218750J0D01*
G01*
X40766250Y39215000D01*
G75*
G02*
X40547500Y39433750I0J218750D01*
G01*
X40547500Y39946250D01*
G75*
G02*
X40766250Y40165000I218750J0D01*
G01*
X41203750Y40165000D01*
G75*
G02*
X41422500Y39946250I0J-218750D01*
G01*
G37*
G36*
G01*
X39847500Y39946250D02*
X39847500Y39433750D01*
G75*
G02*
X39628750Y39215000I-218750J0D01*
G01*
X39191250Y39215000D01*
G75*
G02*
X38972500Y39433750I0J218750D01*
G01*
X38972500Y39946250D01*
G75*
G02*
X39191250Y40165000I218750J0D01*
G01*
X39628750Y40165000D01*
G75*
G02*
X39847500Y39946250I0J-218750D01*
G01*
G37*
G04 #@! TD*
G04 #@! TO.C,R32*
G36*
G01*
X135938800Y23175000D02*
X135938800Y22805000D01*
G75*
G02*
X135803800Y22670000I-135000J0D01*
G01*
X135533800Y22670000D01*
G75*
G02*
X135398800Y22805000I0J135000D01*
G01*
X135398800Y23175000D01*
G75*
G02*
X135533800Y23310000I135000J0D01*
G01*
X135803800Y23310000D01*
G75*
G02*
X135938800Y23175000I0J-135000D01*
G01*
G37*
G36*
G01*
X134918800Y23175000D02*
X134918800Y22805000D01*
G75*
G02*
X134783800Y22670000I-135000J0D01*
G01*
X134513800Y22670000D01*
G75*
G02*
X134378800Y22805000I0J135000D01*
G01*
X134378800Y23175000D01*
G75*
G02*
X134513800Y23310000I135000J0D01*
G01*
X134783800Y23310000D01*
G75*
G02*
X134918800Y23175000I0J-135000D01*
G01*
G37*
G04 #@! TD*
G04 #@! TO.C,Q5*
G36*
G01*
X136730000Y62610000D02*
X136730000Y63310000D01*
G75*
G02*
X136980000Y63560000I250000J0D01*
G01*
X138680000Y63560000D01*
G75*
G02*
X138930000Y63310000I0J-250000D01*
G01*
X138930000Y62610000D01*
G75*
G02*
X138680000Y62360000I-250000J0D01*
G01*
X136980000Y62360000D01*
G75*
G02*
X136730000Y62610000I0J250000D01*
G01*
G37*
G36*
G01*
X140930000Y61080000D02*
X140930000Y63330000D01*
G75*
G02*
X141180000Y63580000I250000J0D01*
G01*
X143730000Y63580000D01*
G75*
G02*
X143980000Y63330000I0J-250000D01*
G01*
X143980000Y61080000D01*
G75*
G02*
X143730000Y60830000I-250000J0D01*
G01*
X141180000Y60830000D01*
G75*
G02*
X140930000Y61080000I0J250000D01*
G01*
G37*
G36*
G01*
X140930000Y58030000D02*
X140930000Y60280000D01*
G75*
G02*
X141180000Y60530000I250000J0D01*
G01*
X143730000Y60530000D01*
G75*
G02*
X143980000Y60280000I0J-250000D01*
G01*
X143980000Y58030000D01*
G75*
G02*
X143730000Y57780000I-250000J0D01*
G01*
X141180000Y57780000D01*
G75*
G02*
X140930000Y58030000I0J250000D01*
G01*
G37*
G36*
G01*
X144280000Y61080000D02*
X144280000Y63330000D01*
G75*
G02*
X144530000Y63580000I250000J0D01*
G01*
X147080000Y63580000D01*
G75*
G02*
X147330000Y63330000I0J-250000D01*
G01*
X147330000Y61080000D01*
G75*
G02*
X147080000Y60830000I-250000J0D01*
G01*
X144530000Y60830000D01*
G75*
G02*
X144280000Y61080000I0J250000D01*
G01*
G37*
G36*
G01*
X144280000Y58030000D02*
X144280000Y60280000D01*
G75*
G02*
X144530000Y60530000I250000J0D01*
G01*
X147080000Y60530000D01*
G75*
G02*
X147330000Y60280000I0J-250000D01*
G01*
X147330000Y58030000D01*
G75*
G02*
X147080000Y57780000I-250000J0D01*
G01*
X144530000Y57780000D01*
G75*
G02*
X144280000Y58030000I0J250000D01*
G01*
G37*
G36*
G01*
X136730000Y58050000D02*
X136730000Y58750000D01*
G75*
G02*
X136980000Y59000000I250000J0D01*
G01*
X138680000Y59000000D01*
G75*
G02*
X138930000Y58750000I0J-250000D01*
G01*
X138930000Y58050000D01*
G75*
G02*
X138680000Y57800000I-250000J0D01*
G01*
X136980000Y57800000D01*
G75*
G02*
X136730000Y58050000I0J250000D01*
G01*
G37*
G04 #@! TD*
G04 #@! TO.C,D33*
G36*
G01*
X50653750Y41665000D02*
X51166250Y41665000D01*
G75*
G02*
X51385000Y41446250I0J-218750D01*
G01*
X51385000Y41008750D01*
G75*
G02*
X51166250Y40790000I-218750J0D01*
G01*
X50653750Y40790000D01*
G75*
G02*
X50435000Y41008750I0J218750D01*
G01*
X50435000Y41446250D01*
G75*
G02*
X50653750Y41665000I218750J0D01*
G01*
G37*
G36*
G01*
X50653750Y40090000D02*
X51166250Y40090000D01*
G75*
G02*
X51385000Y39871250I0J-218750D01*
G01*
X51385000Y39433750D01*
G75*
G02*
X51166250Y39215000I-218750J0D01*
G01*
X50653750Y39215000D01*
G75*
G02*
X50435000Y39433750I0J218750D01*
G01*
X50435000Y39871250D01*
G75*
G02*
X50653750Y40090000I218750J0D01*
G01*
G37*
G04 #@! TD*
G04 #@! TO.C,R10*
G36*
G01*
X91785489Y87680000D02*
X91785489Y86900000D01*
G75*
G02*
X91715489Y86830000I-70000J0D01*
G01*
X91155489Y86830000D01*
G75*
G02*
X91085489Y86900000I0J70000D01*
G01*
X91085489Y87680000D01*
G75*
G02*
X91155489Y87750000I70000J0D01*
G01*
X91715489Y87750000D01*
G75*
G02*
X91785489Y87680000I0J-70000D01*
G01*
G37*
G36*
G01*
X90185489Y87680000D02*
X90185489Y86900000D01*
G75*
G02*
X90115489Y86830000I-70000J0D01*
G01*
X89555489Y86830000D01*
G75*
G02*
X89485489Y86900000I0J70000D01*
G01*
X89485489Y87680000D01*
G75*
G02*
X89555489Y87750000I70000J0D01*
G01*
X90115489Y87750000D01*
G75*
G02*
X90185489Y87680000I0J-70000D01*
G01*
G37*
G04 #@! TD*
G04 #@! TO.C,R2*
G36*
G01*
X73970000Y88800000D02*
X73970000Y89580000D01*
G75*
G02*
X74040000Y89650000I70000J0D01*
G01*
X74600000Y89650000D01*
G75*
G02*
X74670000Y89580000I0J-70000D01*
G01*
X74670000Y88800000D01*
G75*
G02*
X74600000Y88730000I-70000J0D01*
G01*
X74040000Y88730000D01*
G75*
G02*
X73970000Y88800000I0J70000D01*
G01*
G37*
G36*
G01*
X75570000Y88800000D02*
X75570000Y89580000D01*
G75*
G02*
X75640000Y89650000I70000J0D01*
G01*
X76200000Y89650000D01*
G75*
G02*
X76270000Y89580000I0J-70000D01*
G01*
X76270000Y88800000D01*
G75*
G02*
X76200000Y88730000I-70000J0D01*
G01*
X75640000Y88730000D01*
G75*
G02*
X75570000Y88800000I0J70000D01*
G01*
G37*
G04 #@! TD*
G04 #@! TO.C,JP12*
G36*
G01*
X54035000Y100140001D02*
X55285000Y100140001D01*
G75*
G02*
X55385000Y100040001I0J-100000D01*
G01*
X55385000Y99240001D01*
G75*
G02*
X55285000Y99140001I-100000J0D01*
G01*
X54035000Y99140001D01*
G75*
G02*
X53935000Y99240001I0J100000D01*
G01*
X53935000Y100040001D01*
G75*
G02*
X54035000Y100140001I100000J0D01*
G01*
G37*
G36*
G01*
X54035000Y98239979D02*
X55285000Y98239979D01*
G75*
G02*
X55385000Y98139979I0J-100000D01*
G01*
X55385000Y97339979D01*
G75*
G02*
X55285000Y97239979I-100000J0D01*
G01*
X54035000Y97239979D01*
G75*
G02*
X53935000Y97339979I0J100000D01*
G01*
X53935000Y98139979D01*
G75*
G02*
X54035000Y98239979I100000J0D01*
G01*
G37*
G04 #@! TD*
D15*
G04 #@! TO.C,U5*
X44755000Y21170000D03*
X46025000Y21170000D03*
X47295000Y21170000D03*
X48565000Y21170000D03*
X48565000Y29710000D03*
X47295000Y29710000D03*
X46025000Y29710000D03*
X44755000Y29710000D03*
G04 #@! TD*
G04 #@! TO.C,D42*
G36*
G01*
X45260000Y38052500D02*
X45260000Y37827500D01*
G75*
G02*
X45147500Y37715000I-112500J0D01*
G01*
X44772500Y37715000D01*
G75*
G02*
X44660000Y37827500I0J112500D01*
G01*
X44660000Y38052500D01*
G75*
G02*
X44772500Y38165000I112500J0D01*
G01*
X45147500Y38165000D01*
G75*
G02*
X45260000Y38052500I0J-112500D01*
G01*
G37*
G36*
G01*
X43160000Y38052500D02*
X43160000Y37827500D01*
G75*
G02*
X43047500Y37715000I-112500J0D01*
G01*
X42672500Y37715000D01*
G75*
G02*
X42560000Y37827500I0J112500D01*
G01*
X42560000Y38052500D01*
G75*
G02*
X42672500Y38165000I112500J0D01*
G01*
X43047500Y38165000D01*
G75*
G02*
X43160000Y38052500I0J-112500D01*
G01*
G37*
G04 #@! TD*
G04 #@! TO.C,D28*
G36*
G01*
X41422500Y41696250D02*
X41422500Y41183750D01*
G75*
G02*
X41203750Y40965000I-218750J0D01*
G01*
X40766250Y40965000D01*
G75*
G02*
X40547500Y41183750I0J218750D01*
G01*
X40547500Y41696250D01*
G75*
G02*
X40766250Y41915000I218750J0D01*
G01*
X41203750Y41915000D01*
G75*
G02*
X41422500Y41696250I0J-218750D01*
G01*
G37*
G36*
G01*
X39847500Y41696250D02*
X39847500Y41183750D01*
G75*
G02*
X39628750Y40965000I-218750J0D01*
G01*
X39191250Y40965000D01*
G75*
G02*
X38972500Y41183750I0J218750D01*
G01*
X38972500Y41696250D01*
G75*
G02*
X39191250Y41915000I218750J0D01*
G01*
X39628750Y41915000D01*
G75*
G02*
X39847500Y41696250I0J-218750D01*
G01*
G37*
G04 #@! TD*
G04 #@! TO.C,SW1*
G36*
G01*
X94963800Y13767201D02*
X96803800Y13767201D01*
G75*
G02*
X96883800Y13687201I0J-80000D01*
G01*
X96883800Y13047201D01*
G75*
G02*
X96803800Y12967201I-80000J0D01*
G01*
X94963800Y12967201D01*
G75*
G02*
X94883800Y13047201I0J80000D01*
G01*
X94883800Y13687201D01*
G75*
G02*
X94963800Y13767201I80000J0D01*
G01*
G37*
G36*
G01*
X94963800Y9567200D02*
X96803800Y9567200D01*
G75*
G02*
X96883800Y9487200I0J-80000D01*
G01*
X96883800Y8847200D01*
G75*
G02*
X96803800Y8767200I-80000J0D01*
G01*
X94963800Y8767200D01*
G75*
G02*
X94883800Y8847200I0J80000D01*
G01*
X94883800Y9487200D01*
G75*
G02*
X94963800Y9567200I80000J0D01*
G01*
G37*
G04 #@! TD*
G04 #@! TO.C,R23*
G36*
G01*
X136308800Y42880000D02*
X136308800Y42100000D01*
G75*
G02*
X136238800Y42030000I-70000J0D01*
G01*
X135678800Y42030000D01*
G75*
G02*
X135608800Y42100000I0J70000D01*
G01*
X135608800Y42880000D01*
G75*
G02*
X135678800Y42950000I70000J0D01*
G01*
X136238800Y42950000D01*
G75*
G02*
X136308800Y42880000I0J-70000D01*
G01*
G37*
G36*
G01*
X134708800Y42880000D02*
X134708800Y42100000D01*
G75*
G02*
X134638800Y42030000I-70000J0D01*
G01*
X134078800Y42030000D01*
G75*
G02*
X134008800Y42100000I0J70000D01*
G01*
X134008800Y42880000D01*
G75*
G02*
X134078800Y42950000I70000J0D01*
G01*
X134638800Y42950000D01*
G75*
G02*
X134708800Y42880000I0J-70000D01*
G01*
G37*
G04 #@! TD*
G04 #@! TO.C,R36*
G36*
G01*
X2895000Y7410000D02*
X2525000Y7410000D01*
G75*
G02*
X2390000Y7545000I0J135000D01*
G01*
X2390000Y7815000D01*
G75*
G02*
X2525000Y7950000I135000J0D01*
G01*
X2895000Y7950000D01*
G75*
G02*
X3030000Y7815000I0J-135000D01*
G01*
X3030000Y7545000D01*
G75*
G02*
X2895000Y7410000I-135000J0D01*
G01*
G37*
G36*
G01*
X2895000Y8430000D02*
X2525000Y8430000D01*
G75*
G02*
X2390000Y8565000I0J135000D01*
G01*
X2390000Y8835000D01*
G75*
G02*
X2525000Y8970000I135000J0D01*
G01*
X2895000Y8970000D01*
G75*
G02*
X3030000Y8835000I0J-135000D01*
G01*
X3030000Y8565000D01*
G75*
G02*
X2895000Y8430000I-135000J0D01*
G01*
G37*
G04 #@! TD*
G04 #@! TO.C,C9*
G36*
G01*
X56910000Y39465000D02*
X56410000Y39465000D01*
G75*
G02*
X56185000Y39690000I0J225000D01*
G01*
X56185000Y40140000D01*
G75*
G02*
X56410000Y40365000I225000J0D01*
G01*
X56910000Y40365000D01*
G75*
G02*
X57135000Y40140000I0J-225000D01*
G01*
X57135000Y39690000D01*
G75*
G02*
X56910000Y39465000I-225000J0D01*
G01*
G37*
G36*
G01*
X56910000Y41015000D02*
X56410000Y41015000D01*
G75*
G02*
X56185000Y41240000I0J225000D01*
G01*
X56185000Y41690000D01*
G75*
G02*
X56410000Y41915000I225000J0D01*
G01*
X56910000Y41915000D01*
G75*
G02*
X57135000Y41690000I0J-225000D01*
G01*
X57135000Y41240000D01*
G75*
G02*
X56910000Y41015000I-225000J0D01*
G01*
G37*
G04 #@! TD*
G04 #@! TO.C,R6*
G36*
G01*
X136318801Y92880000D02*
X136318801Y92100000D01*
G75*
G02*
X136248801Y92030000I-70000J0D01*
G01*
X135688801Y92030000D01*
G75*
G02*
X135618801Y92100000I0J70000D01*
G01*
X135618801Y92880000D01*
G75*
G02*
X135688801Y92950000I70000J0D01*
G01*
X136248801Y92950000D01*
G75*
G02*
X136318801Y92880000I0J-70000D01*
G01*
G37*
G36*
G01*
X134718801Y92880000D02*
X134718801Y92100000D01*
G75*
G02*
X134648801Y92030000I-70000J0D01*
G01*
X134088801Y92030000D01*
G75*
G02*
X134018801Y92100000I0J70000D01*
G01*
X134018801Y92880000D01*
G75*
G02*
X134088801Y92950000I70000J0D01*
G01*
X134648801Y92950000D01*
G75*
G02*
X134718801Y92880000I0J-70000D01*
G01*
G37*
G04 #@! TD*
D16*
G04 #@! TO.C,M12*
X126547503Y4083187D03*
X111672501Y677476D03*
X87852505Y4627491D03*
X87852500Y2727490D03*
X124847486Y6085164D03*
G04 #@! TD*
G04 #@! TO.C,D35*
G36*
G01*
X122935000Y58933750D02*
X122935000Y59446250D01*
G75*
G02*
X123153750Y59665000I218750J0D01*
G01*
X123591250Y59665000D01*
G75*
G02*
X123810000Y59446250I0J-218750D01*
G01*
X123810000Y58933750D01*
G75*
G02*
X123591250Y58715000I-218750J0D01*
G01*
X123153750Y58715000D01*
G75*
G02*
X122935000Y58933750I0J218750D01*
G01*
G37*
G36*
G01*
X124510000Y58933750D02*
X124510000Y59446250D01*
G75*
G02*
X124728750Y59665000I218750J0D01*
G01*
X125166250Y59665000D01*
G75*
G02*
X125385000Y59446250I0J-218750D01*
G01*
X125385000Y58933750D01*
G75*
G02*
X125166250Y58715000I-218750J0D01*
G01*
X124728750Y58715000D01*
G75*
G02*
X124510000Y58933750I0J218750D01*
G01*
G37*
G04 #@! TD*
G04 #@! TO.C,R29*
G36*
G01*
X48940000Y36875000D02*
X48940000Y36505000D01*
G75*
G02*
X48805000Y36370000I-135000J0D01*
G01*
X48535000Y36370000D01*
G75*
G02*
X48400000Y36505000I0J135000D01*
G01*
X48400000Y36875000D01*
G75*
G02*
X48535000Y37010000I135000J0D01*
G01*
X48805000Y37010000D01*
G75*
G02*
X48940000Y36875000I0J-135000D01*
G01*
G37*
G36*
G01*
X47920000Y36875000D02*
X47920000Y36505000D01*
G75*
G02*
X47785000Y36370000I-135000J0D01*
G01*
X47515000Y36370000D01*
G75*
G02*
X47380000Y36505000I0J135000D01*
G01*
X47380000Y36875000D01*
G75*
G02*
X47515000Y37010000I135000J0D01*
G01*
X47785000Y37010000D01*
G75*
G02*
X47920000Y36875000I0J-135000D01*
G01*
G37*
G04 #@! TD*
G04 #@! TO.C,C1*
G36*
G01*
X106478798Y93827200D02*
X106478798Y94507200D01*
G75*
G02*
X106563798Y94592200I85000J0D01*
G01*
X107243798Y94592200D01*
G75*
G02*
X107328798Y94507200I0J-85000D01*
G01*
X107328798Y93827200D01*
G75*
G02*
X107243798Y93742200I-85000J0D01*
G01*
X106563798Y93742200D01*
G75*
G02*
X106478798Y93827200I0J85000D01*
G01*
G37*
G36*
G01*
X108058800Y93827200D02*
X108058800Y94507200D01*
G75*
G02*
X108143800Y94592200I85000J0D01*
G01*
X108823800Y94592200D01*
G75*
G02*
X108908800Y94507200I0J-85000D01*
G01*
X108908800Y93827200D01*
G75*
G02*
X108823800Y93742200I-85000J0D01*
G01*
X108143800Y93742200D01*
G75*
G02*
X108058800Y93827200I0J85000D01*
G01*
G37*
G04 #@! TD*
G04 #@! TO.C,R16*
G36*
G01*
X155490000Y68975000D02*
X155490000Y68605000D01*
G75*
G02*
X155355000Y68470000I-135000J0D01*
G01*
X155085000Y68470000D01*
G75*
G02*
X154950000Y68605000I0J135000D01*
G01*
X154950000Y68975000D01*
G75*
G02*
X155085000Y69110000I135000J0D01*
G01*
X155355000Y69110000D01*
G75*
G02*
X155490000Y68975000I0J-135000D01*
G01*
G37*
G36*
G01*
X154470000Y68975000D02*
X154470000Y68605000D01*
G75*
G02*
X154335000Y68470000I-135000J0D01*
G01*
X154065000Y68470000D01*
G75*
G02*
X153930000Y68605000I0J135000D01*
G01*
X153930000Y68975000D01*
G75*
G02*
X154065000Y69110000I135000J0D01*
G01*
X154335000Y69110000D01*
G75*
G02*
X154470000Y68975000I0J-135000D01*
G01*
G37*
G04 #@! TD*
G04 #@! TO.C,D41*
G36*
G01*
X38678753Y16566498D02*
X38166253Y16566498D01*
G75*
G02*
X37947503Y16785248I0J218750D01*
G01*
X37947503Y17222748D01*
G75*
G02*
X38166253Y17441498I218750J0D01*
G01*
X38678753Y17441498D01*
G75*
G02*
X38897503Y17222748I0J-218750D01*
G01*
X38897503Y16785248D01*
G75*
G02*
X38678753Y16566498I-218750J0D01*
G01*
G37*
G36*
G01*
X38678753Y18141498D02*
X38166253Y18141498D01*
G75*
G02*
X37947503Y18360248I0J218750D01*
G01*
X37947503Y18797748D01*
G75*
G02*
X38166253Y19016498I218750J0D01*
G01*
X38678753Y19016498D01*
G75*
G02*
X38897503Y18797748I0J-218750D01*
G01*
X38897503Y18360248D01*
G75*
G02*
X38678753Y18141498I-218750J0D01*
G01*
G37*
G04 #@! TD*
G04 #@! TO.C,JP21*
G36*
G01*
X94285000Y100140001D02*
X95535000Y100140001D01*
G75*
G02*
X95635000Y100040001I0J-100000D01*
G01*
X95635000Y99240001D01*
G75*
G02*
X95535000Y99140001I-100000J0D01*
G01*
X94285000Y99140001D01*
G75*
G02*
X94185000Y99240001I0J100000D01*
G01*
X94185000Y100040001D01*
G75*
G02*
X94285000Y100140001I100000J0D01*
G01*
G37*
G36*
G01*
X94285000Y98239979D02*
X95535000Y98239979D01*
G75*
G02*
X95635000Y98139979I0J-100000D01*
G01*
X95635000Y97339979D01*
G75*
G02*
X95535000Y97239979I-100000J0D01*
G01*
X94285000Y97239979D01*
G75*
G02*
X94185000Y97339979I0J100000D01*
G01*
X94185000Y98139979D01*
G75*
G02*
X94285000Y98239979I100000J0D01*
G01*
G37*
G04 #@! TD*
G04 #@! TO.C,JP15*
G36*
G01*
X51285000Y100140001D02*
X52535000Y100140001D01*
G75*
G02*
X52635000Y100040001I0J-100000D01*
G01*
X52635000Y99240001D01*
G75*
G02*
X52535000Y99140001I-100000J0D01*
G01*
X51285000Y99140001D01*
G75*
G02*
X51185000Y99240001I0J100000D01*
G01*
X51185000Y100040001D01*
G75*
G02*
X51285000Y100140001I100000J0D01*
G01*
G37*
G36*
G01*
X51285000Y98239979D02*
X52535000Y98239979D01*
G75*
G02*
X52635000Y98139979I0J-100000D01*
G01*
X52635000Y97339979D01*
G75*
G02*
X52535000Y97239979I-100000J0D01*
G01*
X51285000Y97239979D01*
G75*
G02*
X51185000Y97339979I0J100000D01*
G01*
X51185000Y98139979D01*
G75*
G02*
X51285000Y98239979I100000J0D01*
G01*
G37*
G04 #@! TD*
G04 #@! TO.C,C18*
G36*
G01*
X46955000Y37440000D02*
X46955000Y37940000D01*
G75*
G02*
X47180000Y38165000I225000J0D01*
G01*
X47630000Y38165000D01*
G75*
G02*
X47855000Y37940000I0J-225000D01*
G01*
X47855000Y37440000D01*
G75*
G02*
X47630000Y37215000I-225000J0D01*
G01*
X47180000Y37215000D01*
G75*
G02*
X46955000Y37440000I0J225000D01*
G01*
G37*
G36*
G01*
X48505000Y37440000D02*
X48505000Y37940000D01*
G75*
G02*
X48730000Y38165000I225000J0D01*
G01*
X49180000Y38165000D01*
G75*
G02*
X49405000Y37940000I0J-225000D01*
G01*
X49405000Y37440000D01*
G75*
G02*
X49180000Y37215000I-225000J0D01*
G01*
X48730000Y37215000D01*
G75*
G02*
X48505000Y37440000I0J225000D01*
G01*
G37*
G04 #@! TD*
G04 #@! TO.C,D39*
G36*
G01*
X122935000Y53683750D02*
X122935000Y54196250D01*
G75*
G02*
X123153750Y54415000I218750J0D01*
G01*
X123591250Y54415000D01*
G75*
G02*
X123810000Y54196250I0J-218750D01*
G01*
X123810000Y53683750D01*
G75*
G02*
X123591250Y53465000I-218750J0D01*
G01*
X123153750Y53465000D01*
G75*
G02*
X122935000Y53683750I0J218750D01*
G01*
G37*
G36*
G01*
X124510000Y53683750D02*
X124510000Y54196250D01*
G75*
G02*
X124728750Y54415000I218750J0D01*
G01*
X125166250Y54415000D01*
G75*
G02*
X125385000Y54196250I0J-218750D01*
G01*
X125385000Y53683750D01*
G75*
G02*
X125166250Y53465000I-218750J0D01*
G01*
X124728750Y53465000D01*
G75*
G02*
X124510000Y53683750I0J218750D01*
G01*
G37*
G04 #@! TD*
G04 #@! TO.C,C7*
G36*
G01*
X62160000Y39465000D02*
X61660000Y39465000D01*
G75*
G02*
X61435000Y39690000I0J225000D01*
G01*
X61435000Y40140000D01*
G75*
G02*
X61660000Y40365000I225000J0D01*
G01*
X62160000Y40365000D01*
G75*
G02*
X62385000Y40140000I0J-225000D01*
G01*
X62385000Y39690000D01*
G75*
G02*
X62160000Y39465000I-225000J0D01*
G01*
G37*
G36*
G01*
X62160000Y41015000D02*
X61660000Y41015000D01*
G75*
G02*
X61435000Y41240000I0J225000D01*
G01*
X61435000Y41690000D01*
G75*
G02*
X61660000Y41915000I225000J0D01*
G01*
X62160000Y41915000D01*
G75*
G02*
X62385000Y41690000I0J-225000D01*
G01*
X62385000Y41240000D01*
G75*
G02*
X62160000Y41015000I-225000J0D01*
G01*
G37*
G04 #@! TD*
G04 #@! TO.C,C5*
G36*
G01*
X27135000Y50440000D02*
X27135000Y49940000D01*
G75*
G02*
X26910000Y49715000I-225000J0D01*
G01*
X26460000Y49715000D01*
G75*
G02*
X26235000Y49940000I0J225000D01*
G01*
X26235000Y50440000D01*
G75*
G02*
X26460000Y50665000I225000J0D01*
G01*
X26910000Y50665000D01*
G75*
G02*
X27135000Y50440000I0J-225000D01*
G01*
G37*
G36*
G01*
X25585000Y50440000D02*
X25585000Y49940000D01*
G75*
G02*
X25360000Y49715000I-225000J0D01*
G01*
X24910000Y49715000D01*
G75*
G02*
X24685000Y49940000I0J225000D01*
G01*
X24685000Y50440000D01*
G75*
G02*
X24910000Y50665000I225000J0D01*
G01*
X25360000Y50665000D01*
G75*
G02*
X25585000Y50440000I0J-225000D01*
G01*
G37*
G04 #@! TD*
G04 #@! TO.C,D13*
G36*
G01*
X64460000Y65627500D02*
X64460000Y65852500D01*
G75*
G02*
X64572500Y65965000I112500J0D01*
G01*
X64947500Y65965000D01*
G75*
G02*
X65060000Y65852500I0J-112500D01*
G01*
X65060000Y65627500D01*
G75*
G02*
X64947500Y65515000I-112500J0D01*
G01*
X64572500Y65515000D01*
G75*
G02*
X64460000Y65627500I0J112500D01*
G01*
G37*
G36*
G01*
X66560000Y65627500D02*
X66560000Y65852500D01*
G75*
G02*
X66672500Y65965000I112500J0D01*
G01*
X67047500Y65965000D01*
G75*
G02*
X67160000Y65852500I0J-112500D01*
G01*
X67160000Y65627500D01*
G75*
G02*
X67047500Y65515000I-112500J0D01*
G01*
X66672500Y65515000D01*
G75*
G02*
X66560000Y65627500I0J112500D01*
G01*
G37*
G04 #@! TD*
G04 #@! TO.C,D17*
G36*
G01*
X77910000Y70877500D02*
X77910000Y71102500D01*
G75*
G02*
X78022500Y71215000I112500J0D01*
G01*
X78397500Y71215000D01*
G75*
G02*
X78510000Y71102500I0J-112500D01*
G01*
X78510000Y70877500D01*
G75*
G02*
X78397500Y70765000I-112500J0D01*
G01*
X78022500Y70765000D01*
G75*
G02*
X77910000Y70877500I0J112500D01*
G01*
G37*
G36*
G01*
X80010000Y70877500D02*
X80010000Y71102500D01*
G75*
G02*
X80122500Y71215000I112500J0D01*
G01*
X80497500Y71215000D01*
G75*
G02*
X80610000Y71102500I0J-112500D01*
G01*
X80610000Y70877500D01*
G75*
G02*
X80497500Y70765000I-112500J0D01*
G01*
X80122500Y70765000D01*
G75*
G02*
X80010000Y70877500I0J112500D01*
G01*
G37*
G04 #@! TD*
G04 #@! TO.C,M8*
X16018985Y34052113D03*
X15933784Y28549548D03*
X6693980Y27127113D03*
G36*
G01*
X7193989Y24127116D02*
X7193989Y24127116D01*
X7193989Y24127116D01*
X7193989Y24127116D01*
X7193989Y24127116D01*
G37*
G04 #@! TD*
G04 #@! TO.C,R5*
G36*
G01*
X100624999Y95265000D02*
X100624999Y98115000D01*
G75*
G02*
X100874999Y98365000I250000J0D01*
G01*
X101599999Y98365000D01*
G75*
G02*
X101849999Y98115000I0J-250000D01*
G01*
X101849999Y95265000D01*
G75*
G02*
X101599999Y95015000I-250000J0D01*
G01*
X100874999Y95015000D01*
G75*
G02*
X100624999Y95265000I0J250000D01*
G01*
G37*
G36*
G01*
X106549999Y95265000D02*
X106549999Y98115000D01*
G75*
G02*
X106799999Y98365000I250000J0D01*
G01*
X107524999Y98365000D01*
G75*
G02*
X107774999Y98115000I0J-250000D01*
G01*
X107774999Y95265000D01*
G75*
G02*
X107524999Y95015000I-250000J0D01*
G01*
X106799999Y95015000D01*
G75*
G02*
X106549999Y95265000I0J250000D01*
G01*
G37*
G04 #@! TD*
G04 #@! TO.C,R26*
G36*
G01*
X2920000Y26240000D02*
X3700000Y26240000D01*
G75*
G02*
X3770000Y26170000I0J-70000D01*
G01*
X3770000Y25610000D01*
G75*
G02*
X3700000Y25540000I-70000J0D01*
G01*
X2920000Y25540000D01*
G75*
G02*
X2850000Y25610000I0J70000D01*
G01*
X2850000Y26170000D01*
G75*
G02*
X2920000Y26240000I70000J0D01*
G01*
G37*
G36*
G01*
X2920000Y24640000D02*
X3700000Y24640000D01*
G75*
G02*
X3770000Y24570000I0J-70000D01*
G01*
X3770000Y24010000D01*
G75*
G02*
X3700000Y23940000I-70000J0D01*
G01*
X2920000Y23940000D01*
G75*
G02*
X2850000Y24010000I0J70000D01*
G01*
X2850000Y24570000D01*
G75*
G02*
X2920000Y24640000I70000J0D01*
G01*
G37*
G04 #@! TD*
D17*
G04 #@! TO.C,U4*
X30686750Y22997500D03*
X30686750Y32840000D03*
X31956750Y32840000D03*
X33226750Y32840000D03*
X34496750Y32840000D03*
X34496750Y22997500D03*
X33226750Y22997500D03*
X31956750Y22997500D03*
G04 #@! TD*
G04 #@! TO.C,JP28*
G36*
G01*
X97285000Y100140001D02*
X98535000Y100140001D01*
G75*
G02*
X98635000Y100040001I0J-100000D01*
G01*
X98635000Y99240001D01*
G75*
G02*
X98535000Y99140001I-100000J0D01*
G01*
X97285000Y99140001D01*
G75*
G02*
X97185000Y99240001I0J100000D01*
G01*
X97185000Y100040001D01*
G75*
G02*
X97285000Y100140001I100000J0D01*
G01*
G37*
G36*
G01*
X97285000Y98239979D02*
X98535000Y98239979D01*
G75*
G02*
X98635000Y98139979I0J-100000D01*
G01*
X98635000Y97339979D01*
G75*
G02*
X98535000Y97239979I-100000J0D01*
G01*
X97285000Y97239979D01*
G75*
G02*
X97185000Y97339979I0J100000D01*
G01*
X97185000Y98139979D01*
G75*
G02*
X97285000Y98239979I100000J0D01*
G01*
G37*
G04 #@! TD*
G04 #@! TO.C,U3*
G36*
G01*
X20710000Y48445000D02*
X20710000Y48745000D01*
G75*
G02*
X20860000Y48895000I150000J0D01*
G01*
X22510000Y48895000D01*
G75*
G02*
X22660000Y48745000I0J-150000D01*
G01*
X22660000Y48445000D01*
G75*
G02*
X22510000Y48295000I-150000J0D01*
G01*
X20860000Y48295000D01*
G75*
G02*
X20710000Y48445000I0J150000D01*
G01*
G37*
G36*
G01*
X20710000Y47175000D02*
X20710000Y47475000D01*
G75*
G02*
X20860000Y47625000I150000J0D01*
G01*
X22510000Y47625000D01*
G75*
G02*
X22660000Y47475000I0J-150000D01*
G01*
X22660000Y47175000D01*
G75*
G02*
X22510000Y47025000I-150000J0D01*
G01*
X20860000Y47025000D01*
G75*
G02*
X20710000Y47175000I0J150000D01*
G01*
G37*
G36*
G01*
X20710000Y45905000D02*
X20710000Y46205000D01*
G75*
G02*
X20860000Y46355000I150000J0D01*
G01*
X22510000Y46355000D01*
G75*
G02*
X22660000Y46205000I0J-150000D01*
G01*
X22660000Y45905000D01*
G75*
G02*
X22510000Y45755000I-150000J0D01*
G01*
X20860000Y45755000D01*
G75*
G02*
X20710000Y45905000I0J150000D01*
G01*
G37*
G36*
G01*
X20710000Y44635000D02*
X20710000Y44935000D01*
G75*
G02*
X20860000Y45085000I150000J0D01*
G01*
X22510000Y45085000D01*
G75*
G02*
X22660000Y44935000I0J-150000D01*
G01*
X22660000Y44635000D01*
G75*
G02*
X22510000Y44485000I-150000J0D01*
G01*
X20860000Y44485000D01*
G75*
G02*
X20710000Y44635000I0J150000D01*
G01*
G37*
G36*
G01*
X25660000Y44635000D02*
X25660000Y44935000D01*
G75*
G02*
X25810000Y45085000I150000J0D01*
G01*
X27460000Y45085000D01*
G75*
G02*
X27610000Y44935000I0J-150000D01*
G01*
X27610000Y44635000D01*
G75*
G02*
X27460000Y44485000I-150000J0D01*
G01*
X25810000Y44485000D01*
G75*
G02*
X25660000Y44635000I0J150000D01*
G01*
G37*
G36*
G01*
X25660000Y45905000D02*
X25660000Y46205000D01*
G75*
G02*
X25810000Y46355000I150000J0D01*
G01*
X27460000Y46355000D01*
G75*
G02*
X27610000Y46205000I0J-150000D01*
G01*
X27610000Y45905000D01*
G75*
G02*
X27460000Y45755000I-150000J0D01*
G01*
X25810000Y45755000D01*
G75*
G02*
X25660000Y45905000I0J150000D01*
G01*
G37*
G36*
G01*
X25660000Y47175000D02*
X25660000Y47475000D01*
G75*
G02*
X25810000Y47625000I150000J0D01*
G01*
X27460000Y47625000D01*
G75*
G02*
X27610000Y47475000I0J-150000D01*
G01*
X27610000Y47175000D01*
G75*
G02*
X27460000Y47025000I-150000J0D01*
G01*
X25810000Y47025000D01*
G75*
G02*
X25660000Y47175000I0J150000D01*
G01*
G37*
G36*
G01*
X25660000Y48445000D02*
X25660000Y48745000D01*
G75*
G02*
X25810000Y48895000I150000J0D01*
G01*
X27460000Y48895000D01*
G75*
G02*
X27610000Y48745000I0J-150000D01*
G01*
X27610000Y48445000D01*
G75*
G02*
X27460000Y48295000I-150000J0D01*
G01*
X25810000Y48295000D01*
G75*
G02*
X25660000Y48445000I0J150000D01*
G01*
G37*
G04 #@! TD*
G04 #@! TO.C,Q3*
G36*
G01*
X136740000Y42110000D02*
X136740000Y42810000D01*
G75*
G02*
X136990000Y43060000I250000J0D01*
G01*
X138690000Y43060000D01*
G75*
G02*
X138940000Y42810000I0J-250000D01*
G01*
X138940000Y42110000D01*
G75*
G02*
X138690000Y41860000I-250000J0D01*
G01*
X136990000Y41860000D01*
G75*
G02*
X136740000Y42110000I0J250000D01*
G01*
G37*
G36*
G01*
X140940000Y40580000D02*
X140940000Y42830000D01*
G75*
G02*
X141190000Y43080000I250000J0D01*
G01*
X143740000Y43080000D01*
G75*
G02*
X143990000Y42830000I0J-250000D01*
G01*
X143990000Y40580000D01*
G75*
G02*
X143740000Y40330000I-250000J0D01*
G01*
X141190000Y40330000D01*
G75*
G02*
X140940000Y40580000I0J250000D01*
G01*
G37*
G36*
G01*
X140940000Y37530000D02*
X140940000Y39780000D01*
G75*
G02*
X141190000Y40030000I250000J0D01*
G01*
X143740000Y40030000D01*
G75*
G02*
X143990000Y39780000I0J-250000D01*
G01*
X143990000Y37530000D01*
G75*
G02*
X143740000Y37280000I-250000J0D01*
G01*
X141190000Y37280000D01*
G75*
G02*
X140940000Y37530000I0J250000D01*
G01*
G37*
G36*
G01*
X144290000Y40580000D02*
X144290000Y42830000D01*
G75*
G02*
X144540000Y43080000I250000J0D01*
G01*
X147090000Y43080000D01*
G75*
G02*
X147340000Y42830000I0J-250000D01*
G01*
X147340000Y40580000D01*
G75*
G02*
X147090000Y40330000I-250000J0D01*
G01*
X144540000Y40330000D01*
G75*
G02*
X144290000Y40580000I0J250000D01*
G01*
G37*
G36*
G01*
X144290000Y37530000D02*
X144290000Y39780000D01*
G75*
G02*
X144540000Y40030000I250000J0D01*
G01*
X147090000Y40030000D01*
G75*
G02*
X147340000Y39780000I0J-250000D01*
G01*
X147340000Y37530000D01*
G75*
G02*
X147090000Y37280000I-250000J0D01*
G01*
X144540000Y37280000D01*
G75*
G02*
X144290000Y37530000I0J250000D01*
G01*
G37*
G36*
G01*
X136740000Y37550000D02*
X136740000Y38250000D01*
G75*
G02*
X136990000Y38500000I250000J0D01*
G01*
X138690000Y38500000D01*
G75*
G02*
X138940000Y38250000I0J-250000D01*
G01*
X138940000Y37550000D01*
G75*
G02*
X138690000Y37300000I-250000J0D01*
G01*
X136990000Y37300000D01*
G75*
G02*
X136740000Y37550000I0J250000D01*
G01*
G37*
G04 #@! TD*
G04 #@! TO.C,Q1*
G36*
G01*
X136740000Y32120000D02*
X136740000Y32820000D01*
G75*
G02*
X136990000Y33070000I250000J0D01*
G01*
X138690000Y33070000D01*
G75*
G02*
X138940000Y32820000I0J-250000D01*
G01*
X138940000Y32120000D01*
G75*
G02*
X138690000Y31870000I-250000J0D01*
G01*
X136990000Y31870000D01*
G75*
G02*
X136740000Y32120000I0J250000D01*
G01*
G37*
G36*
G01*
X140940000Y30590000D02*
X140940000Y32840000D01*
G75*
G02*
X141190000Y33090000I250000J0D01*
G01*
X143740000Y33090000D01*
G75*
G02*
X143990000Y32840000I0J-250000D01*
G01*
X143990000Y30590000D01*
G75*
G02*
X143740000Y30340000I-250000J0D01*
G01*
X141190000Y30340000D01*
G75*
G02*
X140940000Y30590000I0J250000D01*
G01*
G37*
G36*
G01*
X140940000Y27540000D02*
X140940000Y29790000D01*
G75*
G02*
X141190000Y30040000I250000J0D01*
G01*
X143740000Y30040000D01*
G75*
G02*
X143990000Y29790000I0J-250000D01*
G01*
X143990000Y27540000D01*
G75*
G02*
X143740000Y27290000I-250000J0D01*
G01*
X141190000Y27290000D01*
G75*
G02*
X140940000Y27540000I0J250000D01*
G01*
G37*
G36*
G01*
X144290000Y30590000D02*
X144290000Y32840000D01*
G75*
G02*
X144540000Y33090000I250000J0D01*
G01*
X147090000Y33090000D01*
G75*
G02*
X147340000Y32840000I0J-250000D01*
G01*
X147340000Y30590000D01*
G75*
G02*
X147090000Y30340000I-250000J0D01*
G01*
X144540000Y30340000D01*
G75*
G02*
X144290000Y30590000I0J250000D01*
G01*
G37*
G36*
G01*
X144290000Y27540000D02*
X144290000Y29790000D01*
G75*
G02*
X144540000Y30040000I250000J0D01*
G01*
X147090000Y30040000D01*
G75*
G02*
X147340000Y29790000I0J-250000D01*
G01*
X147340000Y27540000D01*
G75*
G02*
X147090000Y27290000I-250000J0D01*
G01*
X144540000Y27290000D01*
G75*
G02*
X144290000Y27540000I0J250000D01*
G01*
G37*
G36*
G01*
X136740000Y27560000D02*
X136740000Y28260000D01*
G75*
G02*
X136990000Y28510000I250000J0D01*
G01*
X138690000Y28510000D01*
G75*
G02*
X138940000Y28260000I0J-250000D01*
G01*
X138940000Y27560000D01*
G75*
G02*
X138690000Y27310000I-250000J0D01*
G01*
X136990000Y27310000D01*
G75*
G02*
X136740000Y27560000I0J250000D01*
G01*
G37*
G04 #@! TD*
G04 #@! TO.C,JP32*
G36*
G01*
X131760000Y100345010D02*
X131760000Y101035010D01*
G75*
G02*
X131990000Y101265010I230000J0D01*
G01*
X133330000Y101265010D01*
G75*
G02*
X133560000Y101035010I0J-230000D01*
G01*
X133560000Y100345010D01*
G75*
G02*
X133330000Y100115010I-230000J0D01*
G01*
X131990000Y100115010D01*
G75*
G02*
X131760000Y100345010I0J230000D01*
G01*
G37*
G36*
G01*
X131760000Y97444990D02*
X131760000Y98134990D01*
G75*
G02*
X131990000Y98364990I230000J0D01*
G01*
X133330000Y98364990D01*
G75*
G02*
X133560000Y98134990I0J-230000D01*
G01*
X133560000Y97444990D01*
G75*
G02*
X133330000Y97214990I-230000J0D01*
G01*
X131990000Y97214990D01*
G75*
G02*
X131760000Y97444990I0J230000D01*
G01*
G37*
G04 #@! TD*
G04 #@! TO.C,D20*
G36*
G01*
X80485000Y69496250D02*
X80485000Y68983750D01*
G75*
G02*
X80266250Y68765000I-218750J0D01*
G01*
X79828750Y68765000D01*
G75*
G02*
X79610000Y68983750I0J218750D01*
G01*
X79610000Y69496250D01*
G75*
G02*
X79828750Y69715000I218750J0D01*
G01*
X80266250Y69715000D01*
G75*
G02*
X80485000Y69496250I0J-218750D01*
G01*
G37*
G36*
G01*
X78910000Y69496250D02*
X78910000Y68983750D01*
G75*
G02*
X78691250Y68765000I-218750J0D01*
G01*
X78253750Y68765000D01*
G75*
G02*
X78035000Y68983750I0J218750D01*
G01*
X78035000Y69496250D01*
G75*
G02*
X78253750Y69715000I218750J0D01*
G01*
X78691250Y69715000D01*
G75*
G02*
X78910000Y69496250I0J-218750D01*
G01*
G37*
G04 #@! TD*
G04 #@! TO.C,R35*
G36*
G01*
X154030000Y37405000D02*
X154030000Y37775000D01*
G75*
G02*
X154165000Y37910000I135000J0D01*
G01*
X154435000Y37910000D01*
G75*
G02*
X154570000Y37775000I0J-135000D01*
G01*
X154570000Y37405000D01*
G75*
G02*
X154435000Y37270000I-135000J0D01*
G01*
X154165000Y37270000D01*
G75*
G02*
X154030000Y37405000I0J135000D01*
G01*
G37*
G36*
G01*
X155050000Y37405000D02*
X155050000Y37775000D01*
G75*
G02*
X155185000Y37910000I135000J0D01*
G01*
X155455000Y37910000D01*
G75*
G02*
X155590000Y37775000I0J-135000D01*
G01*
X155590000Y37405000D01*
G75*
G02*
X155455000Y37270000I-135000J0D01*
G01*
X155185000Y37270000D01*
G75*
G02*
X155050000Y37405000I0J135000D01*
G01*
G37*
G04 #@! TD*
G04 #@! TO.C,D36*
G36*
G01*
X122847500Y62677500D02*
X122847500Y62902500D01*
G75*
G02*
X122960000Y63015000I112500J0D01*
G01*
X123335000Y63015000D01*
G75*
G02*
X123447500Y62902500I0J-112500D01*
G01*
X123447500Y62677500D01*
G75*
G02*
X123335000Y62565000I-112500J0D01*
G01*
X122960000Y62565000D01*
G75*
G02*
X122847500Y62677500I0J112500D01*
G01*
G37*
G36*
G01*
X124947500Y62677500D02*
X124947500Y62902500D01*
G75*
G02*
X125060000Y63015000I112500J0D01*
G01*
X125435000Y63015000D01*
G75*
G02*
X125547500Y62902500I0J-112500D01*
G01*
X125547500Y62677500D01*
G75*
G02*
X125435000Y62565000I-112500J0D01*
G01*
X125060000Y62565000D01*
G75*
G02*
X124947500Y62677500I0J112500D01*
G01*
G37*
G04 #@! TD*
G04 #@! TO.C,D37*
G36*
G01*
X122897500Y55433750D02*
X122897500Y55946250D01*
G75*
G02*
X123116250Y56165000I218750J0D01*
G01*
X123553750Y56165000D01*
G75*
G02*
X123772500Y55946250I0J-218750D01*
G01*
X123772500Y55433750D01*
G75*
G02*
X123553750Y55215000I-218750J0D01*
G01*
X123116250Y55215000D01*
G75*
G02*
X122897500Y55433750I0J218750D01*
G01*
G37*
G36*
G01*
X124472500Y55433750D02*
X124472500Y55946250D01*
G75*
G02*
X124691250Y56165000I218750J0D01*
G01*
X125128750Y56165000D01*
G75*
G02*
X125347500Y55946250I0J-218750D01*
G01*
X125347500Y55433750D01*
G75*
G02*
X125128750Y55215000I-218750J0D01*
G01*
X124691250Y55215000D01*
G75*
G02*
X124472500Y55433750I0J218750D01*
G01*
G37*
G04 #@! TD*
G04 #@! TO.C,JP7*
G36*
G01*
X26510000Y99795010D02*
X26510000Y100485010D01*
G75*
G02*
X26740000Y100715010I230000J0D01*
G01*
X28080000Y100715010D01*
G75*
G02*
X28310000Y100485010I0J-230000D01*
G01*
X28310000Y99795010D01*
G75*
G02*
X28080000Y99565010I-230000J0D01*
G01*
X26740000Y99565010D01*
G75*
G02*
X26510000Y99795010I0J230000D01*
G01*
G37*
G36*
G01*
X26510000Y96894990D02*
X26510000Y97584990D01*
G75*
G02*
X26740000Y97814990I230000J0D01*
G01*
X28080000Y97814990D01*
G75*
G02*
X28310000Y97584990I0J-230000D01*
G01*
X28310000Y96894990D01*
G75*
G02*
X28080000Y96664990I-230000J0D01*
G01*
X26740000Y96664990D01*
G75*
G02*
X26510000Y96894990I0J230000D01*
G01*
G37*
G04 #@! TD*
G04 #@! TO.C,R7*
G36*
G01*
X16380000Y86255000D02*
X16380000Y86625000D01*
G75*
G02*
X16515000Y86760000I135000J0D01*
G01*
X16785000Y86760000D01*
G75*
G02*
X16920000Y86625000I0J-135000D01*
G01*
X16920000Y86255000D01*
G75*
G02*
X16785000Y86120000I-135000J0D01*
G01*
X16515000Y86120000D01*
G75*
G02*
X16380000Y86255000I0J135000D01*
G01*
G37*
G36*
G01*
X17400000Y86255000D02*
X17400000Y86625000D01*
G75*
G02*
X17535000Y86760000I135000J0D01*
G01*
X17805000Y86760000D01*
G75*
G02*
X17940000Y86625000I0J-135000D01*
G01*
X17940000Y86255000D01*
G75*
G02*
X17805000Y86120000I-135000J0D01*
G01*
X17535000Y86120000D01*
G75*
G02*
X17400000Y86255000I0J135000D01*
G01*
G37*
G04 #@! TD*
G04 #@! TO.C,R20*
G36*
G01*
X42880000Y40255000D02*
X42880000Y40625000D01*
G75*
G02*
X43015000Y40760000I135000J0D01*
G01*
X43285000Y40760000D01*
G75*
G02*
X43420000Y40625000I0J-135000D01*
G01*
X43420000Y40255000D01*
G75*
G02*
X43285000Y40120000I-135000J0D01*
G01*
X43015000Y40120000D01*
G75*
G02*
X42880000Y40255000I0J135000D01*
G01*
G37*
G36*
G01*
X43900000Y40255000D02*
X43900000Y40625000D01*
G75*
G02*
X44035000Y40760000I135000J0D01*
G01*
X44305000Y40760000D01*
G75*
G02*
X44440000Y40625000I0J-135000D01*
G01*
X44440000Y40255000D01*
G75*
G02*
X44305000Y40120000I-135000J0D01*
G01*
X44035000Y40120000D01*
G75*
G02*
X43900000Y40255000I0J135000D01*
G01*
G37*
G04 #@! TD*
G04 #@! TO.C,SW2*
G36*
G01*
X90963800Y13767201D02*
X92803800Y13767201D01*
G75*
G02*
X92883800Y13687201I0J-80000D01*
G01*
X92883800Y13047201D01*
G75*
G02*
X92803800Y12967201I-80000J0D01*
G01*
X90963800Y12967201D01*
G75*
G02*
X90883800Y13047201I0J80000D01*
G01*
X90883800Y13687201D01*
G75*
G02*
X90963800Y13767201I80000J0D01*
G01*
G37*
G36*
G01*
X90963800Y9567200D02*
X92803800Y9567200D01*
G75*
G02*
X92883800Y9487200I0J-80000D01*
G01*
X92883800Y8847200D01*
G75*
G02*
X92803800Y8767200I-80000J0D01*
G01*
X90963800Y8767200D01*
G75*
G02*
X90883800Y8847200I0J80000D01*
G01*
X90883800Y9487200D01*
G75*
G02*
X90963800Y9567200I80000J0D01*
G01*
G37*
G04 #@! TD*
G04 #@! TO.C,R1*
G36*
G01*
X15435000Y98515000D02*
X18285000Y98515000D01*
G75*
G02*
X18535000Y98265000I0J-250000D01*
G01*
X18535000Y97540000D01*
G75*
G02*
X18285000Y97290000I-250000J0D01*
G01*
X15435000Y97290000D01*
G75*
G02*
X15185000Y97540000I0J250000D01*
G01*
X15185000Y98265000D01*
G75*
G02*
X15435000Y98515000I250000J0D01*
G01*
G37*
G36*
G01*
X15435000Y92590000D02*
X18285000Y92590000D01*
G75*
G02*
X18535000Y92340000I0J-250000D01*
G01*
X18535000Y91615000D01*
G75*
G02*
X18285000Y91365000I-250000J0D01*
G01*
X15435000Y91365000D01*
G75*
G02*
X15185000Y91615000I0J250000D01*
G01*
X15185000Y92340000D01*
G75*
G02*
X15435000Y92590000I250000J0D01*
G01*
G37*
G04 #@! TD*
G04 #@! TO.C,JP30*
G36*
G01*
X97535000Y92640001D02*
X98785000Y92640001D01*
G75*
G02*
X98885000Y92540001I0J-100000D01*
G01*
X98885000Y91740001D01*
G75*
G02*
X98785000Y91640001I-100000J0D01*
G01*
X97535000Y91640001D01*
G75*
G02*
X97435000Y91740001I0J100000D01*
G01*
X97435000Y92540001D01*
G75*
G02*
X97535000Y92640001I100000J0D01*
G01*
G37*
G36*
G01*
X97535000Y90739979D02*
X98785000Y90739979D01*
G75*
G02*
X98885000Y90639979I0J-100000D01*
G01*
X98885000Y89839979D01*
G75*
G02*
X98785000Y89739979I-100000J0D01*
G01*
X97535000Y89739979D01*
G75*
G02*
X97435000Y89839979I0J100000D01*
G01*
X97435000Y90639979D01*
G75*
G02*
X97535000Y90739979I100000J0D01*
G01*
G37*
G04 #@! TD*
G04 #@! TO.C,C3*
G36*
G01*
X21670000Y50460000D02*
X21670000Y50120000D01*
G75*
G02*
X21530000Y49980000I-140000J0D01*
G01*
X21250000Y49980000D01*
G75*
G02*
X21110000Y50120000I0J140000D01*
G01*
X21110000Y50460000D01*
G75*
G02*
X21250000Y50600000I140000J0D01*
G01*
X21530000Y50600000D01*
G75*
G02*
X21670000Y50460000I0J-140000D01*
G01*
G37*
G36*
G01*
X20710000Y50460000D02*
X20710000Y50120000D01*
G75*
G02*
X20570000Y49980000I-140000J0D01*
G01*
X20290000Y49980000D01*
G75*
G02*
X20150000Y50120000I0J140000D01*
G01*
X20150000Y50460000D01*
G75*
G02*
X20290000Y50600000I140000J0D01*
G01*
X20570000Y50600000D01*
G75*
G02*
X20710000Y50460000I0J-140000D01*
G01*
G37*
G04 #@! TD*
G04 #@! TO.C,C4*
G36*
G01*
X53670000Y41860000D02*
X53670000Y41520000D01*
G75*
G02*
X53530000Y41380000I-140000J0D01*
G01*
X53250000Y41380000D01*
G75*
G02*
X53110000Y41520000I0J140000D01*
G01*
X53110000Y41860000D01*
G75*
G02*
X53250000Y42000000I140000J0D01*
G01*
X53530000Y42000000D01*
G75*
G02*
X53670000Y41860000I0J-140000D01*
G01*
G37*
G36*
G01*
X52710000Y41860000D02*
X52710000Y41520000D01*
G75*
G02*
X52570000Y41380000I-140000J0D01*
G01*
X52290000Y41380000D01*
G75*
G02*
X52150000Y41520000I0J140000D01*
G01*
X52150000Y41860000D01*
G75*
G02*
X52290000Y42000000I140000J0D01*
G01*
X52570000Y42000000D01*
G75*
G02*
X52710000Y41860000I0J-140000D01*
G01*
G37*
G04 #@! TD*
G04 #@! TO.C,C8*
G36*
G01*
X63580000Y39430000D02*
X63240000Y39430000D01*
G75*
G02*
X63100000Y39570000I0J140000D01*
G01*
X63100000Y39850000D01*
G75*
G02*
X63240000Y39990000I140000J0D01*
G01*
X63580000Y39990000D01*
G75*
G02*
X63720000Y39850000I0J-140000D01*
G01*
X63720000Y39570000D01*
G75*
G02*
X63580000Y39430000I-140000J0D01*
G01*
G37*
G36*
G01*
X63580000Y40390000D02*
X63240000Y40390000D01*
G75*
G02*
X63100000Y40530000I0J140000D01*
G01*
X63100000Y40810000D01*
G75*
G02*
X63240000Y40950000I140000J0D01*
G01*
X63580000Y40950000D01*
G75*
G02*
X63720000Y40810000I0J-140000D01*
G01*
X63720000Y40530000D01*
G75*
G02*
X63580000Y40390000I-140000J0D01*
G01*
G37*
G04 #@! TD*
G04 #@! TO.C,R11*
G36*
G01*
X78890000Y78525000D02*
X78890000Y78155000D01*
G75*
G02*
X78755000Y78020000I-135000J0D01*
G01*
X78485000Y78020000D01*
G75*
G02*
X78350000Y78155000I0J135000D01*
G01*
X78350000Y78525000D01*
G75*
G02*
X78485000Y78660000I135000J0D01*
G01*
X78755000Y78660000D01*
G75*
G02*
X78890000Y78525000I0J-135000D01*
G01*
G37*
G36*
G01*
X77870000Y78525000D02*
X77870000Y78155000D01*
G75*
G02*
X77735000Y78020000I-135000J0D01*
G01*
X77465000Y78020000D01*
G75*
G02*
X77330000Y78155000I0J135000D01*
G01*
X77330000Y78525000D01*
G75*
G02*
X77465000Y78660000I135000J0D01*
G01*
X77735000Y78660000D01*
G75*
G02*
X77870000Y78525000I0J-135000D01*
G01*
G37*
G04 #@! TD*
D18*
G04 #@! TO.C,U6*
X63430000Y27535000D03*
X63430000Y28805000D03*
X63430000Y30075000D03*
X63430000Y31345000D03*
X54890000Y31345000D03*
X54890000Y30075000D03*
X54890000Y28805000D03*
X54890000Y27535000D03*
G04 #@! TD*
G04 #@! TO.C,JP29*
G36*
G01*
X100285000Y100140001D02*
X101535000Y100140001D01*
G75*
G02*
X101635000Y100040001I0J-100000D01*
G01*
X101635000Y99240001D01*
G75*
G02*
X101535000Y99140001I-100000J0D01*
G01*
X100285000Y99140001D01*
G75*
G02*
X100185000Y99240001I0J100000D01*
G01*
X100185000Y100040001D01*
G75*
G02*
X100285000Y100140001I100000J0D01*
G01*
G37*
G36*
G01*
X100285000Y98239979D02*
X101535000Y98239979D01*
G75*
G02*
X101635000Y98139979I0J-100000D01*
G01*
X101635000Y97339979D01*
G75*
G02*
X101535000Y97239979I-100000J0D01*
G01*
X100285000Y97239979D01*
G75*
G02*
X100185000Y97339979I0J100000D01*
G01*
X100185000Y98139979D01*
G75*
G02*
X100285000Y98239979I100000J0D01*
G01*
G37*
G04 #@! TD*
G04 #@! TO.C,C23*
G36*
G01*
X98400000Y8920000D02*
X98400000Y9260000D01*
G75*
G02*
X98540000Y9400000I140000J0D01*
G01*
X98820000Y9400000D01*
G75*
G02*
X98960000Y9260000I0J-140000D01*
G01*
X98960000Y8920000D01*
G75*
G02*
X98820000Y8780000I-140000J0D01*
G01*
X98540000Y8780000D01*
G75*
G02*
X98400000Y8920000I0J140000D01*
G01*
G37*
G36*
G01*
X99360000Y8920000D02*
X99360000Y9260000D01*
G75*
G02*
X99500000Y9400000I140000J0D01*
G01*
X99780000Y9400000D01*
G75*
G02*
X99920000Y9260000I0J-140000D01*
G01*
X99920000Y8920000D01*
G75*
G02*
X99780000Y8780000I-140000J0D01*
G01*
X99500000Y8780000D01*
G75*
G02*
X99360000Y8920000I0J140000D01*
G01*
G37*
G04 #@! TD*
G04 #@! TO.C,C22*
G36*
G01*
X105317500Y10342500D02*
X104977500Y10342500D01*
G75*
G02*
X104837500Y10482500I0J140000D01*
G01*
X104837500Y10762500D01*
G75*
G02*
X104977500Y10902500I140000J0D01*
G01*
X105317500Y10902500D01*
G75*
G02*
X105457500Y10762500I0J-140000D01*
G01*
X105457500Y10482500D01*
G75*
G02*
X105317500Y10342500I-140000J0D01*
G01*
G37*
G36*
G01*
X105317500Y11302500D02*
X104977500Y11302500D01*
G75*
G02*
X104837500Y11442500I0J140000D01*
G01*
X104837500Y11722500D01*
G75*
G02*
X104977500Y11862500I140000J0D01*
G01*
X105317500Y11862500D01*
G75*
G02*
X105457500Y11722500I0J-140000D01*
G01*
X105457500Y11442500D01*
G75*
G02*
X105317500Y11302500I-140000J0D01*
G01*
G37*
G04 #@! TD*
G04 #@! TO.C,JP13*
G36*
G01*
X60535000Y100342501D02*
X61785000Y100342501D01*
G75*
G02*
X61885000Y100242501I0J-100000D01*
G01*
X61885000Y99442501D01*
G75*
G02*
X61785000Y99342501I-100000J0D01*
G01*
X60535000Y99342501D01*
G75*
G02*
X60435000Y99442501I0J100000D01*
G01*
X60435000Y100242501D01*
G75*
G02*
X60535000Y100342501I100000J0D01*
G01*
G37*
G36*
G01*
X60535000Y98442479D02*
X61785000Y98442479D01*
G75*
G02*
X61885000Y98342479I0J-100000D01*
G01*
X61885000Y97542479D01*
G75*
G02*
X61785000Y97442479I-100000J0D01*
G01*
X60535000Y97442479D01*
G75*
G02*
X60435000Y97542479I0J100000D01*
G01*
X60435000Y98342479D01*
G75*
G02*
X60535000Y98442479I100000J0D01*
G01*
G37*
G04 #@! TD*
G04 #@! TO.C,D16*
G36*
G01*
X78035000Y74233750D02*
X78035000Y74746250D01*
G75*
G02*
X78253750Y74965000I218750J0D01*
G01*
X78691250Y74965000D01*
G75*
G02*
X78910000Y74746250I0J-218750D01*
G01*
X78910000Y74233750D01*
G75*
G02*
X78691250Y74015000I-218750J0D01*
G01*
X78253750Y74015000D01*
G75*
G02*
X78035000Y74233750I0J218750D01*
G01*
G37*
G36*
G01*
X79610000Y74233750D02*
X79610000Y74746250D01*
G75*
G02*
X79828750Y74965000I218750J0D01*
G01*
X80266250Y74965000D01*
G75*
G02*
X80485000Y74746250I0J-218750D01*
G01*
X80485000Y74233750D01*
G75*
G02*
X80266250Y74015000I-218750J0D01*
G01*
X79828750Y74015000D01*
G75*
G02*
X79610000Y74233750I0J218750D01*
G01*
G37*
G04 #@! TD*
G04 #@! TO.C,JP22*
G36*
G01*
X84535000Y100140001D02*
X85785000Y100140001D01*
G75*
G02*
X85885000Y100040001I0J-100000D01*
G01*
X85885000Y99240001D01*
G75*
G02*
X85785000Y99140001I-100000J0D01*
G01*
X84535000Y99140001D01*
G75*
G02*
X84435000Y99240001I0J100000D01*
G01*
X84435000Y100040001D01*
G75*
G02*
X84535000Y100140001I100000J0D01*
G01*
G37*
G36*
G01*
X84535000Y98239979D02*
X85785000Y98239979D01*
G75*
G02*
X85885000Y98139979I0J-100000D01*
G01*
X85885000Y97339979D01*
G75*
G02*
X85785000Y97239979I-100000J0D01*
G01*
X84535000Y97239979D01*
G75*
G02*
X84435000Y97339979I0J100000D01*
G01*
X84435000Y98139979D01*
G75*
G02*
X84535000Y98239979I100000J0D01*
G01*
G37*
G04 #@! TD*
D12*
G04 #@! TO.C,RN2*
X73210000Y69440000D03*
X73210000Y68640000D03*
X73210000Y67840000D03*
X73210000Y67040000D03*
X74910000Y67040000D03*
X74910000Y67840000D03*
X74910000Y68640000D03*
X74910000Y69440000D03*
G04 #@! TD*
G04 #@! TO.C,D34*
G36*
G01*
X80610000Y62352500D02*
X80610000Y62127500D01*
G75*
G02*
X80497500Y62015000I-112500J0D01*
G01*
X80122500Y62015000D01*
G75*
G02*
X80010000Y62127500I0J112500D01*
G01*
X80010000Y62352500D01*
G75*
G02*
X80122500Y62465000I112500J0D01*
G01*
X80497500Y62465000D01*
G75*
G02*
X80610000Y62352500I0J-112500D01*
G01*
G37*
G36*
G01*
X78510000Y62352500D02*
X78510000Y62127500D01*
G75*
G02*
X78397500Y62015000I-112500J0D01*
G01*
X78022500Y62015000D01*
G75*
G02*
X77910000Y62127500I0J112500D01*
G01*
X77910000Y62352500D01*
G75*
G02*
X78022500Y62465000I112500J0D01*
G01*
X78397500Y62465000D01*
G75*
G02*
X78510000Y62352500I0J-112500D01*
G01*
G37*
G04 #@! TD*
G04 #@! TO.C,JP35*
G36*
G01*
X135285000Y100140001D02*
X136535000Y100140001D01*
G75*
G02*
X136635000Y100040001I0J-100000D01*
G01*
X136635000Y99240001D01*
G75*
G02*
X136535000Y99140001I-100000J0D01*
G01*
X135285000Y99140001D01*
G75*
G02*
X135185000Y99240001I0J100000D01*
G01*
X135185000Y100040001D01*
G75*
G02*
X135285000Y100140001I100000J0D01*
G01*
G37*
G36*
G01*
X135285000Y98239979D02*
X136535000Y98239979D01*
G75*
G02*
X136635000Y98139979I0J-100000D01*
G01*
X136635000Y97339979D01*
G75*
G02*
X136535000Y97239979I-100000J0D01*
G01*
X135285000Y97239979D01*
G75*
G02*
X135185000Y97339979I0J100000D01*
G01*
X135185000Y98139979D01*
G75*
G02*
X135285000Y98239979I100000J0D01*
G01*
G37*
G04 #@! TD*
G04 #@! TO.C,JP24*
G36*
G01*
X80085000Y92640001D02*
X81335000Y92640001D01*
G75*
G02*
X81435000Y92540001I0J-100000D01*
G01*
X81435000Y91740001D01*
G75*
G02*
X81335000Y91640001I-100000J0D01*
G01*
X80085000Y91640001D01*
G75*
G02*
X79985000Y91740001I0J100000D01*
G01*
X79985000Y92540001D01*
G75*
G02*
X80085000Y92640001I100000J0D01*
G01*
G37*
G36*
G01*
X80085000Y90739979D02*
X81335000Y90739979D01*
G75*
G02*
X81435000Y90639979I0J-100000D01*
G01*
X81435000Y89839979D01*
G75*
G02*
X81335000Y89739979I-100000J0D01*
G01*
X80085000Y89739979D01*
G75*
G02*
X79985000Y89839979I0J100000D01*
G01*
X79985000Y90639979D01*
G75*
G02*
X80085000Y90739979I100000J0D01*
G01*
G37*
G04 #@! TD*
G04 #@! TO.C,R31*
G36*
G01*
X135938800Y32675000D02*
X135938800Y32305000D01*
G75*
G02*
X135803800Y32170000I-135000J0D01*
G01*
X135533800Y32170000D01*
G75*
G02*
X135398800Y32305000I0J135000D01*
G01*
X135398800Y32675000D01*
G75*
G02*
X135533800Y32810000I135000J0D01*
G01*
X135803800Y32810000D01*
G75*
G02*
X135938800Y32675000I0J-135000D01*
G01*
G37*
G36*
G01*
X134918800Y32675000D02*
X134918800Y32305000D01*
G75*
G02*
X134783800Y32170000I-135000J0D01*
G01*
X134513800Y32170000D01*
G75*
G02*
X134378800Y32305000I0J135000D01*
G01*
X134378800Y32675000D01*
G75*
G02*
X134513800Y32810000I135000J0D01*
G01*
X134783800Y32810000D01*
G75*
G02*
X134918800Y32675000I0J-135000D01*
G01*
G37*
G04 #@! TD*
G04 #@! TO.C,R21*
G36*
G01*
X71335000Y55815000D02*
X71335000Y52965000D01*
G75*
G02*
X71085000Y52715000I-250000J0D01*
G01*
X70360000Y52715000D01*
G75*
G02*
X70110000Y52965000I0J250000D01*
G01*
X70110000Y55815000D01*
G75*
G02*
X70360000Y56065000I250000J0D01*
G01*
X71085000Y56065000D01*
G75*
G02*
X71335000Y55815000I0J-250000D01*
G01*
G37*
G36*
G01*
X65410000Y55815000D02*
X65410000Y52965000D01*
G75*
G02*
X65160000Y52715000I-250000J0D01*
G01*
X64435000Y52715000D01*
G75*
G02*
X64185000Y52965000I0J250000D01*
G01*
X64185000Y55815000D01*
G75*
G02*
X64435000Y56065000I250000J0D01*
G01*
X65160000Y56065000D01*
G75*
G02*
X65410000Y55815000I0J-250000D01*
G01*
G37*
G04 #@! TD*
G04 #@! TO.C,R30*
G36*
G01*
X136308801Y14370000D02*
X136308801Y13590000D01*
G75*
G02*
X136238801Y13520000I-70000J0D01*
G01*
X135678801Y13520000D01*
G75*
G02*
X135608801Y13590000I0J70000D01*
G01*
X135608801Y14370000D01*
G75*
G02*
X135678801Y14440000I70000J0D01*
G01*
X136238801Y14440000D01*
G75*
G02*
X136308801Y14370000I0J-70000D01*
G01*
G37*
G36*
G01*
X134708801Y14370000D02*
X134708801Y13590000D01*
G75*
G02*
X134638801Y13520000I-70000J0D01*
G01*
X134078801Y13520000D01*
G75*
G02*
X134008801Y13590000I0J70000D01*
G01*
X134008801Y14370000D01*
G75*
G02*
X134078801Y14440000I70000J0D01*
G01*
X134638801Y14440000D01*
G75*
G02*
X134708801Y14370000I0J-70000D01*
G01*
G37*
G04 #@! TD*
G04 #@! TO.C,D14*
G36*
G01*
X67035000Y67746250D02*
X67035000Y67233750D01*
G75*
G02*
X66816250Y67015000I-218750J0D01*
G01*
X66378750Y67015000D01*
G75*
G02*
X66160000Y67233750I0J218750D01*
G01*
X66160000Y67746250D01*
G75*
G02*
X66378750Y67965000I218750J0D01*
G01*
X66816250Y67965000D01*
G75*
G02*
X67035000Y67746250I0J-218750D01*
G01*
G37*
G36*
G01*
X65460000Y67746250D02*
X65460000Y67233750D01*
G75*
G02*
X65241250Y67015000I-218750J0D01*
G01*
X64803750Y67015000D01*
G75*
G02*
X64585000Y67233750I0J218750D01*
G01*
X64585000Y67746250D01*
G75*
G02*
X64803750Y67965000I218750J0D01*
G01*
X65241250Y67965000D01*
G75*
G02*
X65460000Y67746250I0J-218750D01*
G01*
G37*
G04 #@! TD*
G04 #@! TO.C,JP11*
G36*
G01*
X32285000Y100140001D02*
X33535000Y100140001D01*
G75*
G02*
X33635000Y100040001I0J-100000D01*
G01*
X33635000Y99240001D01*
G75*
G02*
X33535000Y99140001I-100000J0D01*
G01*
X32285000Y99140001D01*
G75*
G02*
X32185000Y99240001I0J100000D01*
G01*
X32185000Y100040001D01*
G75*
G02*
X32285000Y100140001I100000J0D01*
G01*
G37*
G36*
G01*
X32285000Y98239979D02*
X33535000Y98239979D01*
G75*
G02*
X33635000Y98139979I0J-100000D01*
G01*
X33635000Y97339979D01*
G75*
G02*
X33535000Y97239979I-100000J0D01*
G01*
X32285000Y97239979D01*
G75*
G02*
X32185000Y97339979I0J100000D01*
G01*
X32185000Y98139979D01*
G75*
G02*
X32285000Y98239979I100000J0D01*
G01*
G37*
G04 #@! TD*
G04 #@! TO.C,C2*
G36*
G01*
X104856301Y89277213D02*
X104176301Y89277213D01*
G75*
G02*
X104091301Y89362213I0J85000D01*
G01*
X104091301Y90042213D01*
G75*
G02*
X104176301Y90127213I85000J0D01*
G01*
X104856301Y90127213D01*
G75*
G02*
X104941301Y90042213I0J-85000D01*
G01*
X104941301Y89362213D01*
G75*
G02*
X104856301Y89277213I-85000J0D01*
G01*
G37*
G36*
G01*
X104856301Y90857215D02*
X104176301Y90857215D01*
G75*
G02*
X104091301Y90942215I0J85000D01*
G01*
X104091301Y91622215D01*
G75*
G02*
X104176301Y91707215I85000J0D01*
G01*
X104856301Y91707215D01*
G75*
G02*
X104941301Y91622215I0J-85000D01*
G01*
X104941301Y90942215D01*
G75*
G02*
X104856301Y90857215I-85000J0D01*
G01*
G37*
G04 #@! TD*
G04 #@! TO.C,R14*
G36*
G01*
X135938800Y73175000D02*
X135938800Y72805000D01*
G75*
G02*
X135803800Y72670000I-135000J0D01*
G01*
X135533800Y72670000D01*
G75*
G02*
X135398800Y72805000I0J135000D01*
G01*
X135398800Y73175000D01*
G75*
G02*
X135533800Y73310000I135000J0D01*
G01*
X135803800Y73310000D01*
G75*
G02*
X135938800Y73175000I0J-135000D01*
G01*
G37*
G36*
G01*
X134918800Y73175000D02*
X134918800Y72805000D01*
G75*
G02*
X134783800Y72670000I-135000J0D01*
G01*
X134513800Y72670000D01*
G75*
G02*
X134378800Y72805000I0J135000D01*
G01*
X134378800Y73175000D01*
G75*
G02*
X134513800Y73310000I135000J0D01*
G01*
X134783800Y73310000D01*
G75*
G02*
X134918800Y73175000I0J-135000D01*
G01*
G37*
G04 #@! TD*
G04 #@! TO.C,R18*
G36*
G01*
X40085000Y40015000D02*
X40085000Y42865000D01*
G75*
G02*
X40335000Y43115000I250000J0D01*
G01*
X41060000Y43115000D01*
G75*
G02*
X41310000Y42865000I0J-250000D01*
G01*
X41310000Y40015000D01*
G75*
G02*
X41060000Y39765000I-250000J0D01*
G01*
X40335000Y39765000D01*
G75*
G02*
X40085000Y40015000I0J250000D01*
G01*
G37*
G36*
G01*
X46010000Y40015000D02*
X46010000Y42865000D01*
G75*
G02*
X46260000Y43115000I250000J0D01*
G01*
X46985000Y43115000D01*
G75*
G02*
X47235000Y42865000I0J-250000D01*
G01*
X47235000Y40015000D01*
G75*
G02*
X46985000Y39765000I-250000J0D01*
G01*
X46260000Y39765000D01*
G75*
G02*
X46010000Y40015000I0J250000D01*
G01*
G37*
G04 #@! TD*
G04 #@! TO.C,JP27*
G36*
G01*
X83285000Y92640001D02*
X84535000Y92640001D01*
G75*
G02*
X84635000Y92540001I0J-100000D01*
G01*
X84635000Y91740001D01*
G75*
G02*
X84535000Y91640001I-100000J0D01*
G01*
X83285000Y91640001D01*
G75*
G02*
X83185000Y91740001I0J100000D01*
G01*
X83185000Y92540001D01*
G75*
G02*
X83285000Y92640001I100000J0D01*
G01*
G37*
G36*
G01*
X83285000Y90739979D02*
X84535000Y90739979D01*
G75*
G02*
X84635000Y90639979I0J-100000D01*
G01*
X84635000Y89839979D01*
G75*
G02*
X84535000Y89739979I-100000J0D01*
G01*
X83285000Y89739979D01*
G75*
G02*
X83185000Y89839979I0J100000D01*
G01*
X83185000Y90639979D01*
G75*
G02*
X83285000Y90739979I100000J0D01*
G01*
G37*
G04 #@! TD*
G04 #@! TO.C,C12*
G36*
G01*
X42660000Y26665000D02*
X43160000Y26665000D01*
G75*
G02*
X43385000Y26440000I0J-225000D01*
G01*
X43385000Y25990000D01*
G75*
G02*
X43160000Y25765000I-225000J0D01*
G01*
X42660000Y25765000D01*
G75*
G02*
X42435000Y25990000I0J225000D01*
G01*
X42435000Y26440000D01*
G75*
G02*
X42660000Y26665000I225000J0D01*
G01*
G37*
G36*
G01*
X42660000Y25115000D02*
X43160000Y25115000D01*
G75*
G02*
X43385000Y24890000I0J-225000D01*
G01*
X43385000Y24440000D01*
G75*
G02*
X43160000Y24215000I-225000J0D01*
G01*
X42660000Y24215000D01*
G75*
G02*
X42435000Y24440000I0J225000D01*
G01*
X42435000Y24890000D01*
G75*
G02*
X42660000Y25115000I225000J0D01*
G01*
G37*
G04 #@! TD*
G04 #@! TO.C,R34*
G36*
G01*
X154030000Y27605000D02*
X154030000Y27975000D01*
G75*
G02*
X154165000Y28110000I135000J0D01*
G01*
X154435000Y28110000D01*
G75*
G02*
X154570000Y27975000I0J-135000D01*
G01*
X154570000Y27605000D01*
G75*
G02*
X154435000Y27470000I-135000J0D01*
G01*
X154165000Y27470000D01*
G75*
G02*
X154030000Y27605000I0J135000D01*
G01*
G37*
G36*
G01*
X155050000Y27605000D02*
X155050000Y27975000D01*
G75*
G02*
X155185000Y28110000I135000J0D01*
G01*
X155455000Y28110000D01*
G75*
G02*
X155590000Y27975000I0J-135000D01*
G01*
X155590000Y27605000D01*
G75*
G02*
X155455000Y27470000I-135000J0D01*
G01*
X155185000Y27470000D01*
G75*
G02*
X155050000Y27605000I0J135000D01*
G01*
G37*
G04 #@! TD*
G04 #@! TO.C,D12*
G36*
G01*
X67035000Y64246250D02*
X67035000Y63733750D01*
G75*
G02*
X66816250Y63515000I-218750J0D01*
G01*
X66378750Y63515000D01*
G75*
G02*
X66160000Y63733750I0J218750D01*
G01*
X66160000Y64246250D01*
G75*
G02*
X66378750Y64465000I218750J0D01*
G01*
X66816250Y64465000D01*
G75*
G02*
X67035000Y64246250I0J-218750D01*
G01*
G37*
G36*
G01*
X65460000Y64246250D02*
X65460000Y63733750D01*
G75*
G02*
X65241250Y63515000I-218750J0D01*
G01*
X64803750Y63515000D01*
G75*
G02*
X64585000Y63733750I0J218750D01*
G01*
X64585000Y64246250D01*
G75*
G02*
X64803750Y64465000I218750J0D01*
G01*
X65241250Y64465000D01*
G75*
G02*
X65460000Y64246250I0J-218750D01*
G01*
G37*
G04 #@! TD*
G04 #@! TO.C,D29*
G36*
G01*
X69485000Y56246250D02*
X69485000Y55733750D01*
G75*
G02*
X69266250Y55515000I-218750J0D01*
G01*
X68828750Y55515000D01*
G75*
G02*
X68610000Y55733750I0J218750D01*
G01*
X68610000Y56246250D01*
G75*
G02*
X68828750Y56465000I218750J0D01*
G01*
X69266250Y56465000D01*
G75*
G02*
X69485000Y56246250I0J-218750D01*
G01*
G37*
G36*
G01*
X67910000Y56246250D02*
X67910000Y55733750D01*
G75*
G02*
X67691250Y55515000I-218750J0D01*
G01*
X67253750Y55515000D01*
G75*
G02*
X67035000Y55733750I0J218750D01*
G01*
X67035000Y56246250D01*
G75*
G02*
X67253750Y56465000I218750J0D01*
G01*
X67691250Y56465000D01*
G75*
G02*
X67910000Y56246250I0J-218750D01*
G01*
G37*
G04 #@! TD*
G04 #@! TO.C,R25*
G36*
G01*
X153930000Y59405000D02*
X153930000Y59775000D01*
G75*
G02*
X154065000Y59910000I135000J0D01*
G01*
X154335000Y59910000D01*
G75*
G02*
X154470000Y59775000I0J-135000D01*
G01*
X154470000Y59405000D01*
G75*
G02*
X154335000Y59270000I-135000J0D01*
G01*
X154065000Y59270000D01*
G75*
G02*
X153930000Y59405000I0J135000D01*
G01*
G37*
G36*
G01*
X154950000Y59405000D02*
X154950000Y59775000D01*
G75*
G02*
X155085000Y59910000I135000J0D01*
G01*
X155355000Y59910000D01*
G75*
G02*
X155490000Y59775000I0J-135000D01*
G01*
X155490000Y59405000D01*
G75*
G02*
X155355000Y59270000I-135000J0D01*
G01*
X155085000Y59270000D01*
G75*
G02*
X154950000Y59405000I0J135000D01*
G01*
G37*
G04 #@! TD*
G04 #@! TO.C,D21*
G36*
G01*
X75710000Y78402500D02*
X75710000Y78177500D01*
G75*
G02*
X75597500Y78065000I-112500J0D01*
G01*
X75222500Y78065000D01*
G75*
G02*
X75110000Y78177500I0J112500D01*
G01*
X75110000Y78402500D01*
G75*
G02*
X75222500Y78515000I112500J0D01*
G01*
X75597500Y78515000D01*
G75*
G02*
X75710000Y78402500I0J-112500D01*
G01*
G37*
G36*
G01*
X73610000Y78402500D02*
X73610000Y78177500D01*
G75*
G02*
X73497500Y78065000I-112500J0D01*
G01*
X73122500Y78065000D01*
G75*
G02*
X73010000Y78177500I0J112500D01*
G01*
X73010000Y78402500D01*
G75*
G02*
X73122500Y78515000I112500J0D01*
G01*
X73497500Y78515000D01*
G75*
G02*
X73610000Y78402500I0J-112500D01*
G01*
G37*
G04 #@! TD*
G04 #@! TO.C,JP23*
G36*
G01*
X77285000Y92640001D02*
X78535000Y92640001D01*
G75*
G02*
X78635000Y92540001I0J-100000D01*
G01*
X78635000Y91740001D01*
G75*
G02*
X78535000Y91640001I-100000J0D01*
G01*
X77285000Y91640001D01*
G75*
G02*
X77185000Y91740001I0J100000D01*
G01*
X77185000Y92540001D01*
G75*
G02*
X77285000Y92640001I100000J0D01*
G01*
G37*
G36*
G01*
X77285000Y90739979D02*
X78535000Y90739979D01*
G75*
G02*
X78635000Y90639979I0J-100000D01*
G01*
X78635000Y89839979D01*
G75*
G02*
X78535000Y89739979I-100000J0D01*
G01*
X77285000Y89739979D01*
G75*
G02*
X77185000Y89839979I0J100000D01*
G01*
X77185000Y90639979D01*
G75*
G02*
X77285000Y90739979I100000J0D01*
G01*
G37*
G04 #@! TD*
G04 #@! TO.C,C13*
G36*
G01*
X43160000Y26215000D02*
X42660000Y26215000D01*
G75*
G02*
X42435000Y26440000I0J225000D01*
G01*
X42435000Y26890000D01*
G75*
G02*
X42660000Y27115000I225000J0D01*
G01*
X43160000Y27115000D01*
G75*
G02*
X43385000Y26890000I0J-225000D01*
G01*
X43385000Y26440000D01*
G75*
G02*
X43160000Y26215000I-225000J0D01*
G01*
G37*
G36*
G01*
X43160000Y27765000D02*
X42660000Y27765000D01*
G75*
G02*
X42435000Y27990000I0J225000D01*
G01*
X42435000Y28440000D01*
G75*
G02*
X42660000Y28665000I225000J0D01*
G01*
X43160000Y28665000D01*
G75*
G02*
X43385000Y28440000I0J-225000D01*
G01*
X43385000Y27990000D01*
G75*
G02*
X43160000Y27765000I-225000J0D01*
G01*
G37*
G04 #@! TD*
G04 #@! TO.C,Q9*
G36*
G01*
X16780000Y84107500D02*
X16780000Y84857500D01*
G75*
G02*
X17155000Y85232500I375000J0D01*
G01*
X18405000Y85232500D01*
G75*
G02*
X18780000Y84857500I0J-375000D01*
G01*
X18780000Y84107500D01*
G75*
G02*
X18405000Y83732500I-375000J0D01*
G01*
X17155000Y83732500D01*
G75*
G02*
X16780000Y84107500I0J375000D01*
G01*
G37*
G36*
G01*
X16780000Y81807500D02*
X16780000Y82557500D01*
G75*
G02*
X17155000Y82932500I375000J0D01*
G01*
X18405000Y82932500D01*
G75*
G02*
X18780000Y82557500I0J-375000D01*
G01*
X18780000Y81807500D01*
G75*
G02*
X18405000Y81432500I-375000J0D01*
G01*
X17155000Y81432500D01*
G75*
G02*
X16780000Y81807500I0J375000D01*
G01*
G37*
G36*
G01*
X16780000Y79507500D02*
X16780000Y80257500D01*
G75*
G02*
X17155000Y80632500I375000J0D01*
G01*
X18405000Y80632500D01*
G75*
G02*
X18780000Y80257500I0J-375000D01*
G01*
X18780000Y79507500D01*
G75*
G02*
X18405000Y79132500I-375000J0D01*
G01*
X17155000Y79132500D01*
G75*
G02*
X16780000Y79507500I0J375000D01*
G01*
G37*
G36*
G01*
X23080000Y80782500D02*
X23080000Y83582500D01*
G75*
G02*
X23580000Y84082500I500000J0D01*
G01*
X24580000Y84082500D01*
G75*
G02*
X25080000Y83582500I0J-500000D01*
G01*
X25080000Y80782500D01*
G75*
G02*
X24580000Y80282500I-500000J0D01*
G01*
X23580000Y80282500D01*
G75*
G02*
X23080000Y80782500I0J500000D01*
G01*
G37*
G04 #@! TD*
G04 #@! TO.C,D10*
G36*
G01*
X64585000Y72483750D02*
X64585000Y72996250D01*
G75*
G02*
X64803750Y73215000I218750J0D01*
G01*
X65241250Y73215000D01*
G75*
G02*
X65460000Y72996250I0J-218750D01*
G01*
X65460000Y72483750D01*
G75*
G02*
X65241250Y72265000I-218750J0D01*
G01*
X64803750Y72265000D01*
G75*
G02*
X64585000Y72483750I0J218750D01*
G01*
G37*
G36*
G01*
X66160000Y72483750D02*
X66160000Y72996250D01*
G75*
G02*
X66378750Y73215000I218750J0D01*
G01*
X66816250Y73215000D01*
G75*
G02*
X67035000Y72996250I0J-218750D01*
G01*
X67035000Y72483750D01*
G75*
G02*
X66816250Y72265000I-218750J0D01*
G01*
X66378750Y72265000D01*
G75*
G02*
X66160000Y72483750I0J218750D01*
G01*
G37*
G04 #@! TD*
G04 #@! TO.C,D26*
G36*
G01*
X122972500Y66033750D02*
X122972500Y66546250D01*
G75*
G02*
X123191250Y66765000I218750J0D01*
G01*
X123628750Y66765000D01*
G75*
G02*
X123847500Y66546250I0J-218750D01*
G01*
X123847500Y66033750D01*
G75*
G02*
X123628750Y65815000I-218750J0D01*
G01*
X123191250Y65815000D01*
G75*
G02*
X122972500Y66033750I0J218750D01*
G01*
G37*
G36*
G01*
X124547500Y66033750D02*
X124547500Y66546250D01*
G75*
G02*
X124766250Y66765000I218750J0D01*
G01*
X125203750Y66765000D01*
G75*
G02*
X125422500Y66546250I0J-218750D01*
G01*
X125422500Y66033750D01*
G75*
G02*
X125203750Y65815000I-218750J0D01*
G01*
X124766250Y65815000D01*
G75*
G02*
X124547500Y66033750I0J218750D01*
G01*
G37*
G04 #@! TD*
G04 #@! TO.C,D4*
G36*
G01*
X64010000Y91552500D02*
X64010000Y91327500D01*
G75*
G02*
X63897500Y91215000I-112500J0D01*
G01*
X63522500Y91215000D01*
G75*
G02*
X63410000Y91327500I0J112500D01*
G01*
X63410000Y91552500D01*
G75*
G02*
X63522500Y91665000I112500J0D01*
G01*
X63897500Y91665000D01*
G75*
G02*
X64010000Y91552500I0J-112500D01*
G01*
G37*
G36*
G01*
X61910000Y91552500D02*
X61910000Y91327500D01*
G75*
G02*
X61797500Y91215000I-112500J0D01*
G01*
X61422500Y91215000D01*
G75*
G02*
X61310000Y91327500I0J112500D01*
G01*
X61310000Y91552500D01*
G75*
G02*
X61422500Y91665000I112500J0D01*
G01*
X61797500Y91665000D01*
G75*
G02*
X61910000Y91552500I0J-112500D01*
G01*
G37*
G04 #@! TD*
G04 #@! TO.C,D22*
G36*
G01*
X78035000Y67233750D02*
X78035000Y67746250D01*
G75*
G02*
X78253750Y67965000I218750J0D01*
G01*
X78691250Y67965000D01*
G75*
G02*
X78910000Y67746250I0J-218750D01*
G01*
X78910000Y67233750D01*
G75*
G02*
X78691250Y67015000I-218750J0D01*
G01*
X78253750Y67015000D01*
G75*
G02*
X78035000Y67233750I0J218750D01*
G01*
G37*
G36*
G01*
X79610000Y67233750D02*
X79610000Y67746250D01*
G75*
G02*
X79828750Y67965000I218750J0D01*
G01*
X80266250Y67965000D01*
G75*
G02*
X80485000Y67746250I0J-218750D01*
G01*
X80485000Y67233750D01*
G75*
G02*
X80266250Y67015000I-218750J0D01*
G01*
X79828750Y67015000D01*
G75*
G02*
X79610000Y67233750I0J218750D01*
G01*
G37*
G04 #@! TD*
G04 #@! TO.C,D9*
G36*
G01*
X67160000Y74602500D02*
X67160000Y74377500D01*
G75*
G02*
X67047500Y74265000I-112500J0D01*
G01*
X66672500Y74265000D01*
G75*
G02*
X66560000Y74377500I0J112500D01*
G01*
X66560000Y74602500D01*
G75*
G02*
X66672500Y74715000I112500J0D01*
G01*
X67047500Y74715000D01*
G75*
G02*
X67160000Y74602500I0J-112500D01*
G01*
G37*
G36*
G01*
X65060000Y74602500D02*
X65060000Y74377500D01*
G75*
G02*
X64947500Y74265000I-112500J0D01*
G01*
X64572500Y74265000D01*
G75*
G02*
X64460000Y74377500I0J112500D01*
G01*
X64460000Y74602500D01*
G75*
G02*
X64572500Y74715000I112500J0D01*
G01*
X64947500Y74715000D01*
G75*
G02*
X65060000Y74602500I0J-112500D01*
G01*
G37*
G04 #@! TD*
G04 #@! TO.C,D43*
G36*
G01*
X41422500Y38196250D02*
X41422500Y37683750D01*
G75*
G02*
X41203750Y37465000I-218750J0D01*
G01*
X40766250Y37465000D01*
G75*
G02*
X40547500Y37683750I0J218750D01*
G01*
X40547500Y38196250D01*
G75*
G02*
X40766250Y38415000I218750J0D01*
G01*
X41203750Y38415000D01*
G75*
G02*
X41422500Y38196250I0J-218750D01*
G01*
G37*
G36*
G01*
X39847500Y38196250D02*
X39847500Y37683750D01*
G75*
G02*
X39628750Y37465000I-218750J0D01*
G01*
X39191250Y37465000D01*
G75*
G02*
X38972500Y37683750I0J218750D01*
G01*
X38972500Y38196250D01*
G75*
G02*
X39191250Y38415000I218750J0D01*
G01*
X39628750Y38415000D01*
G75*
G02*
X39847500Y38196250I0J-218750D01*
G01*
G37*
G04 #@! TD*
G04 #@! TO.C,JP19*
G36*
G01*
X94285000Y92640001D02*
X95535000Y92640001D01*
G75*
G02*
X95635000Y92540001I0J-100000D01*
G01*
X95635000Y91740001D01*
G75*
G02*
X95535000Y91640001I-100000J0D01*
G01*
X94285000Y91640001D01*
G75*
G02*
X94185000Y91740001I0J100000D01*
G01*
X94185000Y92540001D01*
G75*
G02*
X94285000Y92640001I100000J0D01*
G01*
G37*
G36*
G01*
X94285000Y90739979D02*
X95535000Y90739979D01*
G75*
G02*
X95635000Y90639979I0J-100000D01*
G01*
X95635000Y89839979D01*
G75*
G02*
X95535000Y89739979I-100000J0D01*
G01*
X94285000Y89739979D01*
G75*
G02*
X94185000Y89839979I0J100000D01*
G01*
X94185000Y90639979D01*
G75*
G02*
X94285000Y90739979I100000J0D01*
G01*
G37*
G04 #@! TD*
G04 #@! TO.C,D30*
G36*
G01*
X67172500Y57633750D02*
X67172500Y58146250D01*
G75*
G02*
X67391250Y58365000I218750J0D01*
G01*
X67828750Y58365000D01*
G75*
G02*
X68047500Y58146250I0J-218750D01*
G01*
X68047500Y57633750D01*
G75*
G02*
X67828750Y57415000I-218750J0D01*
G01*
X67391250Y57415000D01*
G75*
G02*
X67172500Y57633750I0J218750D01*
G01*
G37*
G36*
G01*
X68747500Y57633750D02*
X68747500Y58146250D01*
G75*
G02*
X68966250Y58365000I218750J0D01*
G01*
X69403750Y58365000D01*
G75*
G02*
X69622500Y58146250I0J-218750D01*
G01*
X69622500Y57633750D01*
G75*
G02*
X69403750Y57415000I-218750J0D01*
G01*
X68966250Y57415000D01*
G75*
G02*
X68747500Y57633750I0J218750D01*
G01*
G37*
G04 #@! TD*
G04 #@! TO.C,R22*
G36*
G01*
X47380000Y38505000D02*
X47380000Y38875000D01*
G75*
G02*
X47515000Y39010000I135000J0D01*
G01*
X47785000Y39010000D01*
G75*
G02*
X47920000Y38875000I0J-135000D01*
G01*
X47920000Y38505000D01*
G75*
G02*
X47785000Y38370000I-135000J0D01*
G01*
X47515000Y38370000D01*
G75*
G02*
X47380000Y38505000I0J135000D01*
G01*
G37*
G36*
G01*
X48400000Y38505000D02*
X48400000Y38875000D01*
G75*
G02*
X48535000Y39010000I135000J0D01*
G01*
X48805000Y39010000D01*
G75*
G02*
X48940000Y38875000I0J-135000D01*
G01*
X48940000Y38505000D01*
G75*
G02*
X48805000Y38370000I-135000J0D01*
G01*
X48535000Y38370000D01*
G75*
G02*
X48400000Y38505000I0J135000D01*
G01*
G37*
G04 #@! TD*
G04 #@! TO.C,JP14*
G36*
G01*
X56685000Y100140001D02*
X57935000Y100140001D01*
G75*
G02*
X58035000Y100040001I0J-100000D01*
G01*
X58035000Y99240001D01*
G75*
G02*
X57935000Y99140001I-100000J0D01*
G01*
X56685000Y99140001D01*
G75*
G02*
X56585000Y99240001I0J100000D01*
G01*
X56585000Y100040001D01*
G75*
G02*
X56685000Y100140001I100000J0D01*
G01*
G37*
G36*
G01*
X56685000Y98239979D02*
X57935000Y98239979D01*
G75*
G02*
X58035000Y98139979I0J-100000D01*
G01*
X58035000Y97339979D01*
G75*
G02*
X57935000Y97239979I-100000J0D01*
G01*
X56685000Y97239979D01*
G75*
G02*
X56585000Y97339979I0J100000D01*
G01*
X56585000Y98139979D01*
G75*
G02*
X56685000Y98239979I100000J0D01*
G01*
G37*
G04 #@! TD*
G04 #@! TO.C,C15*
G36*
G01*
X63215000Y20695000D02*
X63715000Y20695000D01*
G75*
G02*
X63940000Y20470000I0J-225000D01*
G01*
X63940000Y20020000D01*
G75*
G02*
X63715000Y19795000I-225000J0D01*
G01*
X63215000Y19795000D01*
G75*
G02*
X62990000Y20020000I0J225000D01*
G01*
X62990000Y20470000D01*
G75*
G02*
X63215000Y20695000I225000J0D01*
G01*
G37*
G36*
G01*
X63215000Y19145000D02*
X63715000Y19145000D01*
G75*
G02*
X63940000Y18920000I0J-225000D01*
G01*
X63940000Y18470000D01*
G75*
G02*
X63715000Y18245000I-225000J0D01*
G01*
X63215000Y18245000D01*
G75*
G02*
X62990000Y18470000I0J225000D01*
G01*
X62990000Y18920000D01*
G75*
G02*
X63215000Y19145000I225000J0D01*
G01*
G37*
G04 #@! TD*
G04 #@! TO.C,R37*
G36*
G01*
X155590000Y9475000D02*
X155590000Y9105000D01*
G75*
G02*
X155455000Y8970000I-135000J0D01*
G01*
X155185000Y8970000D01*
G75*
G02*
X155050000Y9105000I0J135000D01*
G01*
X155050000Y9475000D01*
G75*
G02*
X155185000Y9610000I135000J0D01*
G01*
X155455000Y9610000D01*
G75*
G02*
X155590000Y9475000I0J-135000D01*
G01*
G37*
G36*
G01*
X154570000Y9475000D02*
X154570000Y9105000D01*
G75*
G02*
X154435000Y8970000I-135000J0D01*
G01*
X154165000Y8970000D01*
G75*
G02*
X154030000Y9105000I0J135000D01*
G01*
X154030000Y9475000D01*
G75*
G02*
X154165000Y9610000I135000J0D01*
G01*
X154435000Y9610000D01*
G75*
G02*
X154570000Y9475000I0J-135000D01*
G01*
G37*
G04 #@! TD*
G04 #@! TO.C,Q7*
G36*
G01*
X136720000Y22610000D02*
X136720000Y23310000D01*
G75*
G02*
X136970000Y23560000I250000J0D01*
G01*
X138670000Y23560000D01*
G75*
G02*
X138920000Y23310000I0J-250000D01*
G01*
X138920000Y22610000D01*
G75*
G02*
X138670000Y22360000I-250000J0D01*
G01*
X136970000Y22360000D01*
G75*
G02*
X136720000Y22610000I0J250000D01*
G01*
G37*
G36*
G01*
X140920000Y21080000D02*
X140920000Y23330000D01*
G75*
G02*
X141170000Y23580000I250000J0D01*
G01*
X143720000Y23580000D01*
G75*
G02*
X143970000Y23330000I0J-250000D01*
G01*
X143970000Y21080000D01*
G75*
G02*
X143720000Y20830000I-250000J0D01*
G01*
X141170000Y20830000D01*
G75*
G02*
X140920000Y21080000I0J250000D01*
G01*
G37*
G36*
G01*
X140920000Y18030000D02*
X140920000Y20280000D01*
G75*
G02*
X141170000Y20530000I250000J0D01*
G01*
X143720000Y20530000D01*
G75*
G02*
X143970000Y20280000I0J-250000D01*
G01*
X143970000Y18030000D01*
G75*
G02*
X143720000Y17780000I-250000J0D01*
G01*
X141170000Y17780000D01*
G75*
G02*
X140920000Y18030000I0J250000D01*
G01*
G37*
G36*
G01*
X144270000Y21080000D02*
X144270000Y23330000D01*
G75*
G02*
X144520000Y23580000I250000J0D01*
G01*
X147070000Y23580000D01*
G75*
G02*
X147320000Y23330000I0J-250000D01*
G01*
X147320000Y21080000D01*
G75*
G02*
X147070000Y20830000I-250000J0D01*
G01*
X144520000Y20830000D01*
G75*
G02*
X144270000Y21080000I0J250000D01*
G01*
G37*
G36*
G01*
X144270000Y18030000D02*
X144270000Y20280000D01*
G75*
G02*
X144520000Y20530000I250000J0D01*
G01*
X147070000Y20530000D01*
G75*
G02*
X147320000Y20280000I0J-250000D01*
G01*
X147320000Y18030000D01*
G75*
G02*
X147070000Y17780000I-250000J0D01*
G01*
X144520000Y17780000D01*
G75*
G02*
X144270000Y18030000I0J250000D01*
G01*
G37*
G36*
G01*
X136720000Y18050000D02*
X136720000Y18750000D01*
G75*
G02*
X136970000Y19000000I250000J0D01*
G01*
X138670000Y19000000D01*
G75*
G02*
X138920000Y18750000I0J-250000D01*
G01*
X138920000Y18050000D01*
G75*
G02*
X138670000Y17800000I-250000J0D01*
G01*
X136970000Y17800000D01*
G75*
G02*
X136720000Y18050000I0J250000D01*
G01*
G37*
G04 #@! TD*
G04 #@! TO.C,C17*
G36*
G01*
X61295000Y20230000D02*
X61635000Y20230000D01*
G75*
G02*
X61775000Y20090000I0J-140000D01*
G01*
X61775000Y19810000D01*
G75*
G02*
X61635000Y19670000I-140000J0D01*
G01*
X61295000Y19670000D01*
G75*
G02*
X61155000Y19810000I0J140000D01*
G01*
X61155000Y20090000D01*
G75*
G02*
X61295000Y20230000I140000J0D01*
G01*
G37*
G36*
G01*
X61295000Y19270000D02*
X61635000Y19270000D01*
G75*
G02*
X61775000Y19130000I0J-140000D01*
G01*
X61775000Y18850000D01*
G75*
G02*
X61635000Y18710000I-140000J0D01*
G01*
X61295000Y18710000D01*
G75*
G02*
X61155000Y18850000I0J140000D01*
G01*
X61155000Y19130000D01*
G75*
G02*
X61295000Y19270000I140000J0D01*
G01*
G37*
G04 #@! TD*
G04 #@! TO.C,U8*
G36*
G01*
X104047500Y11102500D02*
X104047500Y10902500D01*
G75*
G02*
X103947500Y10802500I-100000J0D01*
G01*
X103597500Y10802500D01*
G75*
G02*
X103497500Y10902500I0J100000D01*
G01*
X103497500Y11102500D01*
G75*
G02*
X103597500Y11202500I100000J0D01*
G01*
X103947500Y11202500D01*
G75*
G02*
X104047500Y11102500I0J-100000D01*
G01*
G37*
G36*
G01*
X104047500Y11702500D02*
X104047500Y11502500D01*
G75*
G02*
X103947500Y11402500I-100000J0D01*
G01*
X103597500Y11402500D01*
G75*
G02*
X103497500Y11502500I0J100000D01*
G01*
X103497500Y11702500D01*
G75*
G02*
X103597500Y11802500I100000J0D01*
G01*
X103947500Y11802500D01*
G75*
G02*
X104047500Y11702500I0J-100000D01*
G01*
G37*
G36*
G01*
X103647500Y12402500D02*
X103647500Y12052500D01*
G75*
G02*
X103547500Y11952500I-100000J0D01*
G01*
X103347500Y11952500D01*
G75*
G02*
X103247500Y12052500I0J100000D01*
G01*
X103247500Y12402500D01*
G75*
G02*
X103347500Y12502500I100000J0D01*
G01*
X103547500Y12502500D01*
G75*
G02*
X103647500Y12402500I0J-100000D01*
G01*
G37*
G36*
G01*
X103047500Y12402500D02*
X103047500Y12052500D01*
G75*
G02*
X102947500Y11952500I-100000J0D01*
G01*
X102747500Y11952500D01*
G75*
G02*
X102647500Y12052500I0J100000D01*
G01*
X102647500Y12402500D01*
G75*
G02*
X102747500Y12502500I100000J0D01*
G01*
X102947500Y12502500D01*
G75*
G02*
X103047500Y12402500I0J-100000D01*
G01*
G37*
G36*
G01*
X102447500Y12402500D02*
X102447500Y12052500D01*
G75*
G02*
X102347500Y11952500I-100000J0D01*
G01*
X102147500Y11952500D01*
G75*
G02*
X102047500Y12052500I0J100000D01*
G01*
X102047500Y12402500D01*
G75*
G02*
X102147500Y12502500I100000J0D01*
G01*
X102347500Y12502500D01*
G75*
G02*
X102447500Y12402500I0J-100000D01*
G01*
G37*
G36*
G01*
X102197500Y11702500D02*
X102197500Y11502500D01*
G75*
G02*
X102097500Y11402500I-100000J0D01*
G01*
X101747500Y11402500D01*
G75*
G02*
X101647500Y11502500I0J100000D01*
G01*
X101647500Y11702500D01*
G75*
G02*
X101747500Y11802500I100000J0D01*
G01*
X102097500Y11802500D01*
G75*
G02*
X102197500Y11702500I0J-100000D01*
G01*
G37*
G36*
G01*
X102197500Y11102500D02*
X102197500Y10902500D01*
G75*
G02*
X102097500Y10802500I-100000J0D01*
G01*
X101747500Y10802500D01*
G75*
G02*
X101647500Y10902500I0J100000D01*
G01*
X101647500Y11102500D01*
G75*
G02*
X101747500Y11202500I100000J0D01*
G01*
X102097500Y11202500D01*
G75*
G02*
X102197500Y11102500I0J-100000D01*
G01*
G37*
G36*
G01*
X102447500Y10552500D02*
X102447500Y10202500D01*
G75*
G02*
X102347500Y10102500I-100000J0D01*
G01*
X102147500Y10102500D01*
G75*
G02*
X102047500Y10202500I0J100000D01*
G01*
X102047500Y10552500D01*
G75*
G02*
X102147500Y10652500I100000J0D01*
G01*
X102347500Y10652500D01*
G75*
G02*
X102447500Y10552500I0J-100000D01*
G01*
G37*
G36*
G01*
X103047500Y10552500D02*
X103047500Y10202500D01*
G75*
G02*
X102947500Y10102500I-100000J0D01*
G01*
X102747500Y10102500D01*
G75*
G02*
X102647500Y10202500I0J100000D01*
G01*
X102647500Y10552500D01*
G75*
G02*
X102747500Y10652500I100000J0D01*
G01*
X102947500Y10652500D01*
G75*
G02*
X103047500Y10552500I0J-100000D01*
G01*
G37*
G36*
G01*
X103647500Y10552500D02*
X103647500Y10202500D01*
G75*
G02*
X103547500Y10102500I-100000J0D01*
G01*
X103347500Y10102500D01*
G75*
G02*
X103247500Y10202500I0J100000D01*
G01*
X103247500Y10552500D01*
G75*
G02*
X103347500Y10652500I100000J0D01*
G01*
X103547500Y10652500D01*
G75*
G02*
X103647500Y10552500I0J-100000D01*
G01*
G37*
G04 #@! TD*
G04 #@! TO.C,D18*
G36*
G01*
X80485000Y72996250D02*
X80485000Y72483750D01*
G75*
G02*
X80266250Y72265000I-218750J0D01*
G01*
X79828750Y72265000D01*
G75*
G02*
X79610000Y72483750I0J218750D01*
G01*
X79610000Y72996250D01*
G75*
G02*
X79828750Y73215000I218750J0D01*
G01*
X80266250Y73215000D01*
G75*
G02*
X80485000Y72996250I0J-218750D01*
G01*
G37*
G36*
G01*
X78910000Y72996250D02*
X78910000Y72483750D01*
G75*
G02*
X78691250Y72265000I-218750J0D01*
G01*
X78253750Y72265000D01*
G75*
G02*
X78035000Y72483750I0J218750D01*
G01*
X78035000Y72996250D01*
G75*
G02*
X78253750Y73215000I218750J0D01*
G01*
X78691250Y73215000D01*
G75*
G02*
X78910000Y72996250I0J-218750D01*
G01*
G37*
G04 #@! TD*
G04 #@! TO.C,C10*
G36*
G01*
X58580000Y39930000D02*
X58240000Y39930000D01*
G75*
G02*
X58100000Y40070000I0J140000D01*
G01*
X58100000Y40350000D01*
G75*
G02*
X58240000Y40490000I140000J0D01*
G01*
X58580000Y40490000D01*
G75*
G02*
X58720000Y40350000I0J-140000D01*
G01*
X58720000Y40070000D01*
G75*
G02*
X58580000Y39930000I-140000J0D01*
G01*
G37*
G36*
G01*
X58580000Y40890000D02*
X58240000Y40890000D01*
G75*
G02*
X58100000Y41030000I0J140000D01*
G01*
X58100000Y41310000D01*
G75*
G02*
X58240000Y41450000I140000J0D01*
G01*
X58580000Y41450000D01*
G75*
G02*
X58720000Y41310000I0J-140000D01*
G01*
X58720000Y41030000D01*
G75*
G02*
X58580000Y40890000I-140000J0D01*
G01*
G37*
G04 #@! TD*
G04 #@! TO.C,JP34*
G36*
G01*
X128985000Y92640001D02*
X130235000Y92640001D01*
G75*
G02*
X130335000Y92540001I0J-100000D01*
G01*
X130335000Y91740001D01*
G75*
G02*
X130235000Y91640001I-100000J0D01*
G01*
X128985000Y91640001D01*
G75*
G02*
X128885000Y91740001I0J100000D01*
G01*
X128885000Y92540001D01*
G75*
G02*
X128985000Y92640001I100000J0D01*
G01*
G37*
G36*
G01*
X128985000Y90739979D02*
X130235000Y90739979D01*
G75*
G02*
X130335000Y90639979I0J-100000D01*
G01*
X130335000Y89839979D01*
G75*
G02*
X130235000Y89739979I-100000J0D01*
G01*
X128985000Y89739979D01*
G75*
G02*
X128885000Y89839979I0J100000D01*
G01*
X128885000Y90639979D01*
G75*
G02*
X128985000Y90739979I100000J0D01*
G01*
G37*
G04 #@! TD*
G04 #@! TO.C,D3*
G36*
G01*
X16560000Y92577500D02*
X16560000Y92802500D01*
G75*
G02*
X16672500Y92915000I112500J0D01*
G01*
X17047500Y92915000D01*
G75*
G02*
X17160000Y92802500I0J-112500D01*
G01*
X17160000Y92577500D01*
G75*
G02*
X17047500Y92465000I-112500J0D01*
G01*
X16672500Y92465000D01*
G75*
G02*
X16560000Y92577500I0J112500D01*
G01*
G37*
G36*
G01*
X18660000Y92577500D02*
X18660000Y92802500D01*
G75*
G02*
X18772500Y92915000I112500J0D01*
G01*
X19147500Y92915000D01*
G75*
G02*
X19260000Y92802500I0J-112500D01*
G01*
X19260000Y92577500D01*
G75*
G02*
X19147500Y92465000I-112500J0D01*
G01*
X18772500Y92465000D01*
G75*
G02*
X18660000Y92577500I0J112500D01*
G01*
G37*
G04 #@! TD*
G04 #@! TO.C,JP20*
G36*
G01*
X91535000Y92640001D02*
X92785000Y92640001D01*
G75*
G02*
X92885000Y92540001I0J-100000D01*
G01*
X92885000Y91740001D01*
G75*
G02*
X92785000Y91640001I-100000J0D01*
G01*
X91535000Y91640001D01*
G75*
G02*
X91435000Y91740001I0J100000D01*
G01*
X91435000Y92540001D01*
G75*
G02*
X91535000Y92640001I100000J0D01*
G01*
G37*
G36*
G01*
X91535000Y90739979D02*
X92785000Y90739979D01*
G75*
G02*
X92885000Y90639979I0J-100000D01*
G01*
X92885000Y89839979D01*
G75*
G02*
X92785000Y89739979I-100000J0D01*
G01*
X91535000Y89739979D01*
G75*
G02*
X91435000Y89839979I0J100000D01*
G01*
X91435000Y90639979D01*
G75*
G02*
X91535000Y90739979I100000J0D01*
G01*
G37*
G04 #@! TD*
G04 #@! TO.C,D24*
G36*
G01*
X78035000Y63733750D02*
X78035000Y64246250D01*
G75*
G02*
X78253750Y64465000I218750J0D01*
G01*
X78691250Y64465000D01*
G75*
G02*
X78910000Y64246250I0J-218750D01*
G01*
X78910000Y63733750D01*
G75*
G02*
X78691250Y63515000I-218750J0D01*
G01*
X78253750Y63515000D01*
G75*
G02*
X78035000Y63733750I0J218750D01*
G01*
G37*
G36*
G01*
X79610000Y63733750D02*
X79610000Y64246250D01*
G75*
G02*
X79828750Y64465000I218750J0D01*
G01*
X80266250Y64465000D01*
G75*
G02*
X80485000Y64246250I0J-218750D01*
G01*
X80485000Y63733750D01*
G75*
G02*
X80266250Y63515000I-218750J0D01*
G01*
X79828750Y63515000D01*
G75*
G02*
X79610000Y63733750I0J218750D01*
G01*
G37*
G04 #@! TD*
G04 #@! TO.C,JP9*
G36*
G01*
X35035000Y100140001D02*
X36285000Y100140001D01*
G75*
G02*
X36385000Y100040001I0J-100000D01*
G01*
X36385000Y99240001D01*
G75*
G02*
X36285000Y99140001I-100000J0D01*
G01*
X35035000Y99140001D01*
G75*
G02*
X34935000Y99240001I0J100000D01*
G01*
X34935000Y100040001D01*
G75*
G02*
X35035000Y100140001I100000J0D01*
G01*
G37*
G36*
G01*
X35035000Y98239979D02*
X36285000Y98239979D01*
G75*
G02*
X36385000Y98139979I0J-100000D01*
G01*
X36385000Y97339979D01*
G75*
G02*
X36285000Y97239979I-100000J0D01*
G01*
X35035000Y97239979D01*
G75*
G02*
X34935000Y97339979I0J100000D01*
G01*
X34935000Y98139979D01*
G75*
G02*
X35035000Y98239979I100000J0D01*
G01*
G37*
G04 #@! TD*
G04 #@! TO.C,D31*
G36*
G01*
X55166250Y39215000D02*
X54653750Y39215000D01*
G75*
G02*
X54435000Y39433750I0J218750D01*
G01*
X54435000Y39871250D01*
G75*
G02*
X54653750Y40090000I218750J0D01*
G01*
X55166250Y40090000D01*
G75*
G02*
X55385000Y39871250I0J-218750D01*
G01*
X55385000Y39433750D01*
G75*
G02*
X55166250Y39215000I-218750J0D01*
G01*
G37*
G36*
G01*
X55166250Y40790000D02*
X54653750Y40790000D01*
G75*
G02*
X54435000Y41008750I0J218750D01*
G01*
X54435000Y41446250D01*
G75*
G02*
X54653750Y41665000I218750J0D01*
G01*
X55166250Y41665000D01*
G75*
G02*
X55385000Y41446250I0J-218750D01*
G01*
X55385000Y41008750D01*
G75*
G02*
X55166250Y40790000I-218750J0D01*
G01*
G37*
G04 #@! TD*
G04 #@! TO.C,JP31*
G36*
G01*
X129285000Y100140001D02*
X130535000Y100140001D01*
G75*
G02*
X130635000Y100040001I0J-100000D01*
G01*
X130635000Y99240001D01*
G75*
G02*
X130535000Y99140001I-100000J0D01*
G01*
X129285000Y99140001D01*
G75*
G02*
X129185000Y99240001I0J100000D01*
G01*
X129185000Y100040001D01*
G75*
G02*
X129285000Y100140001I100000J0D01*
G01*
G37*
G36*
G01*
X129285000Y98239979D02*
X130535000Y98239979D01*
G75*
G02*
X130635000Y98139979I0J-100000D01*
G01*
X130635000Y97339979D01*
G75*
G02*
X130535000Y97239979I-100000J0D01*
G01*
X129285000Y97239979D01*
G75*
G02*
X129185000Y97339979I0J100000D01*
G01*
X129185000Y98139979D01*
G75*
G02*
X129285000Y98239979I100000J0D01*
G01*
G37*
G04 #@! TD*
G04 #@! TO.C,JP3*
G36*
G01*
X29535000Y100140001D02*
X30785000Y100140001D01*
G75*
G02*
X30885000Y100040001I0J-100000D01*
G01*
X30885000Y99240001D01*
G75*
G02*
X30785000Y99140001I-100000J0D01*
G01*
X29535000Y99140001D01*
G75*
G02*
X29435000Y99240001I0J100000D01*
G01*
X29435000Y100040001D01*
G75*
G02*
X29535000Y100140001I100000J0D01*
G01*
G37*
G36*
G01*
X29535000Y98239979D02*
X30785000Y98239979D01*
G75*
G02*
X30885000Y98139979I0J-100000D01*
G01*
X30885000Y97339979D01*
G75*
G02*
X30785000Y97239979I-100000J0D01*
G01*
X29535000Y97239979D01*
G75*
G02*
X29435000Y97339979I0J100000D01*
G01*
X29435000Y98139979D01*
G75*
G02*
X29535000Y98239979I100000J0D01*
G01*
G37*
G04 #@! TD*
G04 #@! TO.C,R3*
G36*
G01*
X84890000Y94755000D02*
X84890000Y95125000D01*
G75*
G02*
X85025000Y95260000I135000J0D01*
G01*
X85295000Y95260000D01*
G75*
G02*
X85430000Y95125000I0J-135000D01*
G01*
X85430000Y94755000D01*
G75*
G02*
X85295000Y94620000I-135000J0D01*
G01*
X85025000Y94620000D01*
G75*
G02*
X84890000Y94755000I0J135000D01*
G01*
G37*
G36*
G01*
X85910000Y94755000D02*
X85910000Y95125000D01*
G75*
G02*
X86045000Y95260000I135000J0D01*
G01*
X86315000Y95260000D01*
G75*
G02*
X86450000Y95125000I0J-135000D01*
G01*
X86450000Y94755000D01*
G75*
G02*
X86315000Y94620000I-135000J0D01*
G01*
X86045000Y94620000D01*
G75*
G02*
X85910000Y94755000I0J135000D01*
G01*
G37*
G04 #@! TD*
G04 #@! TO.C,C11*
G36*
G01*
X60410000Y39465000D02*
X59910000Y39465000D01*
G75*
G02*
X59685000Y39690000I0J225000D01*
G01*
X59685000Y40140000D01*
G75*
G02*
X59910000Y40365000I225000J0D01*
G01*
X60410000Y40365000D01*
G75*
G02*
X60635000Y40140000I0J-225000D01*
G01*
X60635000Y39690000D01*
G75*
G02*
X60410000Y39465000I-225000J0D01*
G01*
G37*
G36*
G01*
X60410000Y41015000D02*
X59910000Y41015000D01*
G75*
G02*
X59685000Y41240000I0J225000D01*
G01*
X59685000Y41690000D01*
G75*
G02*
X59910000Y41915000I225000J0D01*
G01*
X60410000Y41915000D01*
G75*
G02*
X60635000Y41690000I0J-225000D01*
G01*
X60635000Y41240000D01*
G75*
G02*
X60410000Y41015000I-225000J0D01*
G01*
G37*
G04 #@! TD*
G04 #@! TO.C,D5*
G36*
G01*
X64760000Y94315000D02*
X64760000Y93565000D01*
G75*
G02*
X64535000Y93340000I-225000J0D01*
G01*
X64085000Y93340000D01*
G75*
G02*
X63860000Y93565000I0J225000D01*
G01*
X63860000Y94315000D01*
G75*
G02*
X64085000Y94540000I225000J0D01*
G01*
X64535000Y94540000D01*
G75*
G02*
X64760000Y94315000I0J-225000D01*
G01*
G37*
G36*
G01*
X61460000Y94315000D02*
X61460000Y93565000D01*
G75*
G02*
X61235000Y93340000I-225000J0D01*
G01*
X60785000Y93340000D01*
G75*
G02*
X60560000Y93565000I0J225000D01*
G01*
X60560000Y94315000D01*
G75*
G02*
X60785000Y94540000I225000J0D01*
G01*
X61235000Y94540000D01*
G75*
G02*
X61460000Y94315000I0J-225000D01*
G01*
G37*
G04 #@! TD*
G04 #@! TO.C,R15*
G36*
G01*
X155390000Y87875000D02*
X155390000Y87505000D01*
G75*
G02*
X155255000Y87370000I-135000J0D01*
G01*
X154985000Y87370000D01*
G75*
G02*
X154850000Y87505000I0J135000D01*
G01*
X154850000Y87875000D01*
G75*
G02*
X154985000Y88010000I135000J0D01*
G01*
X155255000Y88010000D01*
G75*
G02*
X155390000Y87875000I0J-135000D01*
G01*
G37*
G36*
G01*
X154370000Y87875000D02*
X154370000Y87505000D01*
G75*
G02*
X154235000Y87370000I-135000J0D01*
G01*
X153965000Y87370000D01*
G75*
G02*
X153830000Y87505000I0J135000D01*
G01*
X153830000Y87875000D01*
G75*
G02*
X153965000Y88010000I135000J0D01*
G01*
X154235000Y88010000D01*
G75*
G02*
X154370000Y87875000I0J-135000D01*
G01*
G37*
G04 #@! TD*
G04 #@! TO.C,D6*
G36*
G01*
X15810000Y87815000D02*
X15810000Y88565000D01*
G75*
G02*
X16035000Y88790000I225000J0D01*
G01*
X16485000Y88790000D01*
G75*
G02*
X16710000Y88565000I0J-225000D01*
G01*
X16710000Y87815000D01*
G75*
G02*
X16485000Y87590000I-225000J0D01*
G01*
X16035000Y87590000D01*
G75*
G02*
X15810000Y87815000I0J225000D01*
G01*
G37*
G36*
G01*
X19110000Y87815000D02*
X19110000Y88565000D01*
G75*
G02*
X19335000Y88790000I225000J0D01*
G01*
X19785000Y88790000D01*
G75*
G02*
X20010000Y88565000I0J-225000D01*
G01*
X20010000Y87815000D01*
G75*
G02*
X19785000Y87590000I-225000J0D01*
G01*
X19335000Y87590000D01*
G75*
G02*
X19110000Y87815000I0J225000D01*
G01*
G37*
G04 #@! TD*
G04 #@! TO.C,JP33*
G36*
G01*
X131735000Y92640001D02*
X132985000Y92640001D01*
G75*
G02*
X133085000Y92540001I0J-100000D01*
G01*
X133085000Y91740001D01*
G75*
G02*
X132985000Y91640001I-100000J0D01*
G01*
X131735000Y91640001D01*
G75*
G02*
X131635000Y91740001I0J100000D01*
G01*
X131635000Y92540001D01*
G75*
G02*
X131735000Y92640001I100000J0D01*
G01*
G37*
G36*
G01*
X131735000Y90739979D02*
X132985000Y90739979D01*
G75*
G02*
X133085000Y90639979I0J-100000D01*
G01*
X133085000Y89839979D01*
G75*
G02*
X132985000Y89739979I-100000J0D01*
G01*
X131735000Y89739979D01*
G75*
G02*
X131635000Y89839979I0J100000D01*
G01*
X131635000Y90639979D01*
G75*
G02*
X131735000Y90739979I100000J0D01*
G01*
G37*
G04 #@! TD*
G04 #@! TO.C,R27*
G36*
G01*
X4920000Y26240000D02*
X5700000Y26240000D01*
G75*
G02*
X5770000Y26170000I0J-70000D01*
G01*
X5770000Y25610000D01*
G75*
G02*
X5700000Y25540000I-70000J0D01*
G01*
X4920000Y25540000D01*
G75*
G02*
X4850000Y25610000I0J70000D01*
G01*
X4850000Y26170000D01*
G75*
G02*
X4920000Y26240000I70000J0D01*
G01*
G37*
G36*
G01*
X4920000Y24640000D02*
X5700000Y24640000D01*
G75*
G02*
X5770000Y24570000I0J-70000D01*
G01*
X5770000Y24010000D01*
G75*
G02*
X5700000Y23940000I-70000J0D01*
G01*
X4920000Y23940000D01*
G75*
G02*
X4850000Y24010000I0J70000D01*
G01*
X4850000Y24570000D01*
G75*
G02*
X4920000Y24640000I70000J0D01*
G01*
G37*
G04 #@! TD*
G04 #@! TO.C,D15*
G36*
G01*
X67160000Y71102500D02*
X67160000Y70877500D01*
G75*
G02*
X67047500Y70765000I-112500J0D01*
G01*
X66672500Y70765000D01*
G75*
G02*
X66560000Y70877500I0J112500D01*
G01*
X66560000Y71102500D01*
G75*
G02*
X66672500Y71215000I112500J0D01*
G01*
X67047500Y71215000D01*
G75*
G02*
X67160000Y71102500I0J-112500D01*
G01*
G37*
G36*
G01*
X65060000Y71102500D02*
X65060000Y70877500D01*
G75*
G02*
X64947500Y70765000I-112500J0D01*
G01*
X64572500Y70765000D01*
G75*
G02*
X64460000Y70877500I0J112500D01*
G01*
X64460000Y71102500D01*
G75*
G02*
X64572500Y71215000I112500J0D01*
G01*
X64947500Y71215000D01*
G75*
G02*
X65060000Y71102500I0J-112500D01*
G01*
G37*
G04 #@! TD*
G04 #@! TO.C,RN3*
X119060000Y63490000D03*
X119060000Y62690000D03*
X119060000Y61890000D03*
X119060000Y61090000D03*
X120760000Y61090000D03*
X120760000Y61890000D03*
X120760000Y62690000D03*
X120760000Y63490000D03*
G04 #@! TD*
G04 #@! TO.C,D8*
G36*
G01*
X20435000Y76683750D02*
X20435000Y77196250D01*
G75*
G02*
X20653750Y77415000I218750J0D01*
G01*
X21091250Y77415000D01*
G75*
G02*
X21310000Y77196250I0J-218750D01*
G01*
X21310000Y76683750D01*
G75*
G02*
X21091250Y76465000I-218750J0D01*
G01*
X20653750Y76465000D01*
G75*
G02*
X20435000Y76683750I0J218750D01*
G01*
G37*
G36*
G01*
X22010000Y76683750D02*
X22010000Y77196250D01*
G75*
G02*
X22228750Y77415000I218750J0D01*
G01*
X22666250Y77415000D01*
G75*
G02*
X22885000Y77196250I0J-218750D01*
G01*
X22885000Y76683750D01*
G75*
G02*
X22666250Y76465000I-218750J0D01*
G01*
X22228750Y76465000D01*
G75*
G02*
X22010000Y76683750I0J218750D01*
G01*
G37*
G04 #@! TD*
G04 #@! TO.C,JP1*
G36*
G01*
X20285000Y100140001D02*
X21535000Y100140001D01*
G75*
G02*
X21635000Y100040001I0J-100000D01*
G01*
X21635000Y99240001D01*
G75*
G02*
X21535000Y99140001I-100000J0D01*
G01*
X20285000Y99140001D01*
G75*
G02*
X20185000Y99240001I0J100000D01*
G01*
X20185000Y100040001D01*
G75*
G02*
X20285000Y100140001I100000J0D01*
G01*
G37*
G36*
G01*
X20285000Y98239979D02*
X21535000Y98239979D01*
G75*
G02*
X21635000Y98139979I0J-100000D01*
G01*
X21635000Y97339979D01*
G75*
G02*
X21535000Y97239979I-100000J0D01*
G01*
X20285000Y97239979D01*
G75*
G02*
X20185000Y97339979I0J100000D01*
G01*
X20185000Y98139979D01*
G75*
G02*
X20285000Y98239979I100000J0D01*
G01*
G37*
G04 #@! TD*
D16*
G04 #@! TO.C,M10*
X121685003Y25815001D03*
G04 #@! TD*
G04 #@! TO.C,D25*
G36*
G01*
X122972500Y64283750D02*
X122972500Y64796250D01*
G75*
G02*
X123191250Y65015000I218750J0D01*
G01*
X123628750Y65015000D01*
G75*
G02*
X123847500Y64796250I0J-218750D01*
G01*
X123847500Y64283750D01*
G75*
G02*
X123628750Y64065000I-218750J0D01*
G01*
X123191250Y64065000D01*
G75*
G02*
X122972500Y64283750I0J218750D01*
G01*
G37*
G36*
G01*
X124547500Y64283750D02*
X124547500Y64796250D01*
G75*
G02*
X124766250Y65015000I218750J0D01*
G01*
X125203750Y65015000D01*
G75*
G02*
X125422500Y64796250I0J-218750D01*
G01*
X125422500Y64283750D01*
G75*
G02*
X125203750Y64065000I-218750J0D01*
G01*
X124766250Y64065000D01*
G75*
G02*
X124547500Y64283750I0J218750D01*
G01*
G37*
G04 #@! TD*
G04 #@! TO.C,D40*
G36*
G01*
X122810000Y57327500D02*
X122810000Y57552500D01*
G75*
G02*
X122922500Y57665000I112500J0D01*
G01*
X123297500Y57665000D01*
G75*
G02*
X123410000Y57552500I0J-112500D01*
G01*
X123410000Y57327500D01*
G75*
G02*
X123297500Y57215000I-112500J0D01*
G01*
X122922500Y57215000D01*
G75*
G02*
X122810000Y57327500I0J112500D01*
G01*
G37*
G36*
G01*
X124910000Y57327500D02*
X124910000Y57552500D01*
G75*
G02*
X125022500Y57665000I112500J0D01*
G01*
X125397500Y57665000D01*
G75*
G02*
X125510000Y57552500I0J-112500D01*
G01*
X125510000Y57327500D01*
G75*
G02*
X125397500Y57215000I-112500J0D01*
G01*
X125022500Y57215000D01*
G75*
G02*
X124910000Y57327500I0J112500D01*
G01*
G37*
G04 #@! TD*
G04 #@! TO.C,M1*
X58738459Y81493709D03*
G04 #@! TD*
G04 #@! TO.C,JP17*
G36*
G01*
X87285000Y100140001D02*
X88535000Y100140001D01*
G75*
G02*
X88635000Y100040001I0J-100000D01*
G01*
X88635000Y99240001D01*
G75*
G02*
X88535000Y99140001I-100000J0D01*
G01*
X87285000Y99140001D01*
G75*
G02*
X87185000Y99240001I0J100000D01*
G01*
X87185000Y100040001D01*
G75*
G02*
X87285000Y100140001I100000J0D01*
G01*
G37*
G36*
G01*
X87285000Y98239979D02*
X88535000Y98239979D01*
G75*
G02*
X88635000Y98139979I0J-100000D01*
G01*
X88635000Y97339979D01*
G75*
G02*
X88535000Y97239979I-100000J0D01*
G01*
X87285000Y97239979D01*
G75*
G02*
X87185000Y97339979I0J100000D01*
G01*
X87185000Y98139979D01*
G75*
G02*
X87285000Y98239979I100000J0D01*
G01*
G37*
G04 #@! TD*
G04 #@! TO.C,JP25*
G36*
G01*
X79035000Y100140001D02*
X80285000Y100140001D01*
G75*
G02*
X80385000Y100040001I0J-100000D01*
G01*
X80385000Y99240001D01*
G75*
G02*
X80285000Y99140001I-100000J0D01*
G01*
X79035000Y99140001D01*
G75*
G02*
X78935000Y99240001I0J100000D01*
G01*
X78935000Y100040001D01*
G75*
G02*
X79035000Y100140001I100000J0D01*
G01*
G37*
G36*
G01*
X79035000Y98239979D02*
X80285000Y98239979D01*
G75*
G02*
X80385000Y98139979I0J-100000D01*
G01*
X80385000Y97339979D01*
G75*
G02*
X80285000Y97239979I-100000J0D01*
G01*
X79035000Y97239979D01*
G75*
G02*
X78935000Y97339979I0J100000D01*
G01*
X78935000Y98139979D01*
G75*
G02*
X79035000Y98239979I100000J0D01*
G01*
G37*
G04 #@! TD*
G04 #@! TO.C,M11*
X79747500Y7283334D03*
G04 #@! TD*
G04 #@! TO.C,R24*
G36*
G01*
X135948800Y63175000D02*
X135948800Y62805000D01*
G75*
G02*
X135813800Y62670000I-135000J0D01*
G01*
X135543800Y62670000D01*
G75*
G02*
X135408800Y62805000I0J135000D01*
G01*
X135408800Y63175000D01*
G75*
G02*
X135543800Y63310000I135000J0D01*
G01*
X135813800Y63310000D01*
G75*
G02*
X135948800Y63175000I0J-135000D01*
G01*
G37*
G36*
G01*
X134928800Y63175000D02*
X134928800Y62805000D01*
G75*
G02*
X134793800Y62670000I-135000J0D01*
G01*
X134523800Y62670000D01*
G75*
G02*
X134388800Y62805000I0J135000D01*
G01*
X134388800Y63175000D01*
G75*
G02*
X134523800Y63310000I135000J0D01*
G01*
X134793800Y63310000D01*
G75*
G02*
X134928800Y63175000I0J-135000D01*
G01*
G37*
G04 #@! TD*
D12*
G04 #@! TO.C,RN4*
X119060000Y58640000D03*
X119060000Y57840000D03*
X119060000Y57040000D03*
X119060000Y56240000D03*
X120760000Y56240000D03*
X120760000Y57040000D03*
X120760000Y57840000D03*
X120760000Y58640000D03*
G04 #@! TD*
G04 #@! TO.C,JP16*
G36*
G01*
X47285000Y100140001D02*
X48535000Y100140001D01*
G75*
G02*
X48635000Y100040001I0J-100000D01*
G01*
X48635000Y99240001D01*
G75*
G02*
X48535000Y99140001I-100000J0D01*
G01*
X47285000Y99140001D01*
G75*
G02*
X47185000Y99240001I0J100000D01*
G01*
X47185000Y100040001D01*
G75*
G02*
X47285000Y100140001I100000J0D01*
G01*
G37*
G36*
G01*
X47285000Y98239979D02*
X48535000Y98239979D01*
G75*
G02*
X48635000Y98139979I0J-100000D01*
G01*
X48635000Y97339979D01*
G75*
G02*
X48535000Y97239979I-100000J0D01*
G01*
X47285000Y97239979D01*
G75*
G02*
X47185000Y97339979I0J100000D01*
G01*
X47185000Y98139979D01*
G75*
G02*
X47285000Y98239979I100000J0D01*
G01*
G37*
G04 #@! TD*
G04 #@! TO.C,D2*
G36*
G01*
X21010000Y94815000D02*
X21010000Y94065000D01*
G75*
G02*
X20785000Y93840000I-225000J0D01*
G01*
X20335000Y93840000D01*
G75*
G02*
X20110000Y94065000I0J225000D01*
G01*
X20110000Y94815000D01*
G75*
G02*
X20335000Y95040000I225000J0D01*
G01*
X20785000Y95040000D01*
G75*
G02*
X21010000Y94815000I0J-225000D01*
G01*
G37*
G36*
G01*
X17710000Y94815000D02*
X17710000Y94065000D01*
G75*
G02*
X17485000Y93840000I-225000J0D01*
G01*
X17035000Y93840000D01*
G75*
G02*
X16810000Y94065000I0J225000D01*
G01*
X16810000Y94815000D01*
G75*
G02*
X17035000Y95040000I225000J0D01*
G01*
X17485000Y95040000D01*
G75*
G02*
X17710000Y94815000I0J-225000D01*
G01*
G37*
G04 #@! TD*
G04 #@! TO.C,D23*
G36*
G01*
X80485000Y65996250D02*
X80485000Y65483750D01*
G75*
G02*
X80266250Y65265000I-218750J0D01*
G01*
X79828750Y65265000D01*
G75*
G02*
X79610000Y65483750I0J218750D01*
G01*
X79610000Y65996250D01*
G75*
G02*
X79828750Y66215000I218750J0D01*
G01*
X80266250Y66215000D01*
G75*
G02*
X80485000Y65996250I0J-218750D01*
G01*
G37*
G36*
G01*
X78910000Y65996250D02*
X78910000Y65483750D01*
G75*
G02*
X78691250Y65265000I-218750J0D01*
G01*
X78253750Y65265000D01*
G75*
G02*
X78035000Y65483750I0J218750D01*
G01*
X78035000Y65996250D01*
G75*
G02*
X78253750Y66215000I218750J0D01*
G01*
X78691250Y66215000D01*
G75*
G02*
X78910000Y65996250I0J-218750D01*
G01*
G37*
G04 #@! TD*
G04 #@! TO.C,R17*
G36*
G01*
X155590000Y77875000D02*
X155590000Y77505000D01*
G75*
G02*
X155455000Y77370000I-135000J0D01*
G01*
X155185000Y77370000D01*
G75*
G02*
X155050000Y77505000I0J135000D01*
G01*
X155050000Y77875000D01*
G75*
G02*
X155185000Y78010000I135000J0D01*
G01*
X155455000Y78010000D01*
G75*
G02*
X155590000Y77875000I0J-135000D01*
G01*
G37*
G36*
G01*
X154570000Y77875000D02*
X154570000Y77505000D01*
G75*
G02*
X154435000Y77370000I-135000J0D01*
G01*
X154165000Y77370000D01*
G75*
G02*
X154030000Y77505000I0J135000D01*
G01*
X154030000Y77875000D01*
G75*
G02*
X154165000Y78010000I135000J0D01*
G01*
X154435000Y78010000D01*
G75*
G02*
X154570000Y77875000I0J-135000D01*
G01*
G37*
G04 #@! TD*
G04 #@! TO.C,C14*
G36*
G01*
X57295000Y20230000D02*
X57635000Y20230000D01*
G75*
G02*
X57775000Y20090000I0J-140000D01*
G01*
X57775000Y19810000D01*
G75*
G02*
X57635000Y19670000I-140000J0D01*
G01*
X57295000Y19670000D01*
G75*
G02*
X57155000Y19810000I0J140000D01*
G01*
X57155000Y20090000D01*
G75*
G02*
X57295000Y20230000I140000J0D01*
G01*
G37*
G36*
G01*
X57295000Y19270000D02*
X57635000Y19270000D01*
G75*
G02*
X57775000Y19130000I0J-140000D01*
G01*
X57775000Y18850000D01*
G75*
G02*
X57635000Y18710000I-140000J0D01*
G01*
X57295000Y18710000D01*
G75*
G02*
X57155000Y18850000I0J140000D01*
G01*
X57155000Y19130000D01*
G75*
G02*
X57295000Y19270000I140000J0D01*
G01*
G37*
G04 #@! TD*
G04 #@! TO.C,C16*
G36*
G01*
X69490000Y28600000D02*
X69830000Y28600000D01*
G75*
G02*
X69970000Y28460000I0J-140000D01*
G01*
X69970000Y28180000D01*
G75*
G02*
X69830000Y28040000I-140000J0D01*
G01*
X69490000Y28040000D01*
G75*
G02*
X69350000Y28180000I0J140000D01*
G01*
X69350000Y28460000D01*
G75*
G02*
X69490000Y28600000I140000J0D01*
G01*
G37*
G36*
G01*
X69490000Y27640000D02*
X69830000Y27640000D01*
G75*
G02*
X69970000Y27500000I0J-140000D01*
G01*
X69970000Y27220000D01*
G75*
G02*
X69830000Y27080000I-140000J0D01*
G01*
X69490000Y27080000D01*
G75*
G02*
X69350000Y27220000I0J140000D01*
G01*
X69350000Y27500000D01*
G75*
G02*
X69490000Y27640000I140000J0D01*
G01*
G37*
G04 #@! TD*
G04 #@! TO.C,C21*
G36*
G01*
X97650000Y14270000D02*
X97650000Y14610000D01*
G75*
G02*
X97790000Y14750000I140000J0D01*
G01*
X98070000Y14750000D01*
G75*
G02*
X98210000Y14610000I0J-140000D01*
G01*
X98210000Y14270000D01*
G75*
G02*
X98070000Y14130000I-140000J0D01*
G01*
X97790000Y14130000D01*
G75*
G02*
X97650000Y14270000I0J140000D01*
G01*
G37*
G36*
G01*
X98610000Y14270000D02*
X98610000Y14610000D01*
G75*
G02*
X98750000Y14750000I140000J0D01*
G01*
X99030000Y14750000D01*
G75*
G02*
X99170000Y14610000I0J-140000D01*
G01*
X99170000Y14270000D01*
G75*
G02*
X99030000Y14130000I-140000J0D01*
G01*
X98750000Y14130000D01*
G75*
G02*
X98610000Y14270000I0J140000D01*
G01*
G37*
G04 #@! TD*
G04 #@! TO.C,R9*
G36*
G01*
X18835000Y64265000D02*
X18835000Y67115000D01*
G75*
G02*
X19085000Y67365000I250000J0D01*
G01*
X19810000Y67365000D01*
G75*
G02*
X20060000Y67115000I0J-250000D01*
G01*
X20060000Y64265000D01*
G75*
G02*
X19810000Y64015000I-250000J0D01*
G01*
X19085000Y64015000D01*
G75*
G02*
X18835000Y64265000I0J250000D01*
G01*
G37*
G36*
G01*
X24760000Y64265000D02*
X24760000Y67115000D01*
G75*
G02*
X25010000Y67365000I250000J0D01*
G01*
X25735000Y67365000D01*
G75*
G02*
X25985000Y67115000I0J-250000D01*
G01*
X25985000Y64265000D01*
G75*
G02*
X25735000Y64015000I-250000J0D01*
G01*
X25010000Y64015000D01*
G75*
G02*
X24760000Y64265000I0J250000D01*
G01*
G37*
G04 #@! TD*
G04 #@! TO.C,JP5*
G36*
G01*
X40535000Y100140001D02*
X41785000Y100140001D01*
G75*
G02*
X41885000Y100040001I0J-100000D01*
G01*
X41885000Y99240001D01*
G75*
G02*
X41785000Y99140001I-100000J0D01*
G01*
X40535000Y99140001D01*
G75*
G02*
X40435000Y99240001I0J100000D01*
G01*
X40435000Y100040001D01*
G75*
G02*
X40535000Y100140001I100000J0D01*
G01*
G37*
G36*
G01*
X40535000Y98239979D02*
X41785000Y98239979D01*
G75*
G02*
X41885000Y98139979I0J-100000D01*
G01*
X41885000Y97339979D01*
G75*
G02*
X41785000Y97239979I-100000J0D01*
G01*
X40535000Y97239979D01*
G75*
G02*
X40435000Y97339979I0J100000D01*
G01*
X40435000Y98139979D01*
G75*
G02*
X40535000Y98239979I100000J0D01*
G01*
G37*
G04 #@! TD*
G04 #@! TO.C,U1*
G36*
G01*
X102258800Y90487200D02*
X102908800Y90487200D01*
G75*
G02*
X103068800Y90327200I0J-160000D01*
G01*
X103068800Y90007200D01*
G75*
G02*
X102908800Y89847200I-160000J0D01*
G01*
X102258800Y89847200D01*
G75*
G02*
X102098800Y90007200I0J160000D01*
G01*
X102098800Y90327200D01*
G75*
G02*
X102258800Y90487200I160000J0D01*
G01*
G37*
G36*
G01*
X101058800Y90487200D02*
X101708800Y90487200D01*
G75*
G02*
X101868800Y90327200I0J-160000D01*
G01*
X101868800Y90007200D01*
G75*
G02*
X101708800Y89847200I-160000J0D01*
G01*
X101058800Y89847200D01*
G75*
G02*
X100898800Y90007200I0J160000D01*
G01*
X100898800Y90327200D01*
G75*
G02*
X101058800Y90487200I160000J0D01*
G01*
G37*
G36*
G01*
X102258800Y89687200D02*
X102908800Y89687200D01*
G75*
G02*
X103068800Y89527200I0J-160000D01*
G01*
X103068800Y89207200D01*
G75*
G02*
X102908800Y89047200I-160000J0D01*
G01*
X102258800Y89047200D01*
G75*
G02*
X102098800Y89207200I0J160000D01*
G01*
X102098800Y89527200D01*
G75*
G02*
X102258800Y89687200I160000J0D01*
G01*
G37*
G36*
G01*
X101058800Y89687200D02*
X101708800Y89687200D01*
G75*
G02*
X101868800Y89527200I0J-160000D01*
G01*
X101868800Y89207200D01*
G75*
G02*
X101708800Y89047200I-160000J0D01*
G01*
X101058800Y89047200D01*
G75*
G02*
X100898800Y89207200I0J160000D01*
G01*
X100898800Y89527200D01*
G75*
G02*
X101058800Y89687200I160000J0D01*
G01*
G37*
G36*
G01*
X102883800Y91642200D02*
X103033800Y91642200D01*
G75*
G02*
X103108800Y91567200I0J-75000D01*
G01*
X103108800Y90867200D01*
G75*
G02*
X103033800Y90792200I-75000J0D01*
G01*
X102883800Y90792200D01*
G75*
G02*
X102808800Y90867200I0J75000D01*
G01*
X102808800Y91567200D01*
G75*
G02*
X102883800Y91642200I75000J0D01*
G01*
G37*
G36*
G01*
X102233800Y91642200D02*
X102383800Y91642200D01*
G75*
G02*
X102458800Y91567200I0J-75000D01*
G01*
X102458800Y90867200D01*
G75*
G02*
X102383800Y90792200I-75000J0D01*
G01*
X102233800Y90792200D01*
G75*
G02*
X102158800Y90867200I0J75000D01*
G01*
X102158800Y91567200D01*
G75*
G02*
X102233800Y91642200I75000J0D01*
G01*
G37*
G36*
G01*
X101583800Y91642200D02*
X101733800Y91642200D01*
G75*
G02*
X101808800Y91567200I0J-75000D01*
G01*
X101808800Y90867200D01*
G75*
G02*
X101733800Y90792200I-75000J0D01*
G01*
X101583800Y90792200D01*
G75*
G02*
X101508800Y90867200I0J75000D01*
G01*
X101508800Y91567200D01*
G75*
G02*
X101583800Y91642200I75000J0D01*
G01*
G37*
G36*
G01*
X100933800Y91642200D02*
X101083800Y91642200D01*
G75*
G02*
X101158800Y91567200I0J-75000D01*
G01*
X101158800Y90867200D01*
G75*
G02*
X101083800Y90792200I-75000J0D01*
G01*
X100933800Y90792200D01*
G75*
G02*
X100858800Y90867200I0J75000D01*
G01*
X100858800Y91567200D01*
G75*
G02*
X100933800Y91642200I75000J0D01*
G01*
G37*
G36*
G01*
X100933800Y88742200D02*
X101083800Y88742200D01*
G75*
G02*
X101158800Y88667200I0J-75000D01*
G01*
X101158800Y87967200D01*
G75*
G02*
X101083800Y87892200I-75000J0D01*
G01*
X100933800Y87892200D01*
G75*
G02*
X100858800Y87967200I0J75000D01*
G01*
X100858800Y88667200D01*
G75*
G02*
X100933800Y88742200I75000J0D01*
G01*
G37*
G36*
G01*
X101583800Y88742200D02*
X101733800Y88742200D01*
G75*
G02*
X101808800Y88667200I0J-75000D01*
G01*
X101808800Y87967200D01*
G75*
G02*
X101733800Y87892200I-75000J0D01*
G01*
X101583800Y87892200D01*
G75*
G02*
X101508800Y87967200I0J75000D01*
G01*
X101508800Y88667200D01*
G75*
G02*
X101583800Y88742200I75000J0D01*
G01*
G37*
G36*
G01*
X102233800Y88742200D02*
X102383800Y88742200D01*
G75*
G02*
X102458800Y88667200I0J-75000D01*
G01*
X102458800Y87967200D01*
G75*
G02*
X102383800Y87892200I-75000J0D01*
G01*
X102233800Y87892200D01*
G75*
G02*
X102158800Y87967200I0J75000D01*
G01*
X102158800Y88667200D01*
G75*
G02*
X102233800Y88742200I75000J0D01*
G01*
G37*
G36*
G01*
X102883800Y88742200D02*
X103033800Y88742200D01*
G75*
G02*
X103108800Y88667200I0J-75000D01*
G01*
X103108800Y87967200D01*
G75*
G02*
X103033800Y87892200I-75000J0D01*
G01*
X102883800Y87892200D01*
G75*
G02*
X102808800Y87967200I0J75000D01*
G01*
X102808800Y88667200D01*
G75*
G02*
X102883800Y88742200I75000J0D01*
G01*
G37*
G04 #@! TD*
M02*
