G04 #@! TF.GenerationSoftware,KiCad,Pcbnew,8.0.4-8.0.4-0~ubuntu22.04.1*
G04 #@! TF.CreationDate,2024-07-30T00:29:42+00:00*
G04 #@! TF.ProjectId,ECU-techPorsche88,4543552d-7465-4636-9850-6f7273636865,rev?*
G04 #@! TF.SameCoordinates,PX403adf0PY916f720*
G04 #@! TF.FileFunction,Profile,NP*
%FSLAX46Y46*%
G04 Gerber Fmt 4.6, Leading zero omitted, Abs format (unit mm)*
G04 Created by KiCad (PCBNEW 8.0.4-8.0.4-0~ubuntu22.04.1) date 2024-07-30 00:29:42*
%MOMM*%
%LPD*%
G01*
G04 APERTURE LIST*
G04 #@! TA.AperFunction,Profile*
%ADD10C,0.200000*%
G04 #@! TD*
G04 APERTURE END LIST*
D10*
X159983800Y43925200D02*
X159983800Y6167200D01*
X-16200Y62125200D02*
X-16200Y93925200D01*
X14483800Y93925200D02*
X14483800Y107125200D01*
X143483800Y57125200D02*
X143483800Y43925200D01*
X159983800Y57125200D02*
X143483800Y57125200D01*
X-16200Y93925200D02*
X14483800Y93925200D01*
X14483800Y107125200D02*
X-16200Y107125200D01*
X-16200Y48925200D02*
X14483800Y48925200D01*
X143483800Y43925200D02*
X159983800Y43925200D01*
X159983800Y93925200D02*
X159983800Y57125200D01*
X5983800Y167200D02*
X-16200Y6167200D01*
X143483800Y107125200D02*
X143483800Y93925200D01*
X159983800Y107125200D02*
X143483800Y107125200D01*
X14483800Y48925200D02*
X14483800Y62125200D01*
X156983800Y118125200D02*
X159983800Y115125200D01*
X-16200Y6167200D02*
X-16200Y48925200D01*
X143483800Y93925200D02*
X159983800Y93925200D01*
X159983800Y115125200D02*
X159983800Y107125200D01*
X14483800Y62125200D02*
X-16200Y62125200D01*
X2983800Y118125200D02*
X156983800Y118125200D01*
X159983800Y6167200D02*
X153983800Y167200D01*
X153983800Y167200D02*
X5983800Y167200D01*
X-16200Y107125200D02*
X-16200Y115125200D01*
X-16200Y115125200D02*
X2983800Y118125200D01*
M02*
