G04 #@! TF.GenerationSoftware,KiCad,Pcbnew,8.0.4-8.0.4-0~ubuntu22.04.1*
G04 #@! TF.CreationDate,2024-07-30T00:29:42+00:00*
G04 #@! TF.ProjectId,ECU-techPorsche88,4543552d-7465-4636-9850-6f7273636865,rev?*
G04 #@! TF.SameCoordinates,PX403adf0PY916f720*
G04 #@! TF.FileFunction,Paste,Bot*
G04 #@! TF.FilePolarity,Positive*
%FSLAX46Y46*%
G04 Gerber Fmt 4.6, Leading zero omitted, Abs format (unit mm)*
G04 Created by KiCad (PCBNEW 8.0.4-8.0.4-0~ubuntu22.04.1) date 2024-07-30 00:29:42*
%MOMM*%
%LPD*%
G01*
G04 APERTURE LIST*
%ADD10O,0.000001X0.000001*%
G04 APERTURE END LIST*
G04 #@! TO.C,M3*
G36*
G01*
X114655000Y65315000D02*
X114655000Y65565000D01*
G75*
G02*
X114780000Y65690000I125000J0D01*
G01*
X114780000Y65690000D01*
G75*
G02*
X114905000Y65565000I0J-125000D01*
G01*
X114905000Y65315000D01*
G75*
G02*
X114780000Y65190000I-125000J0D01*
G01*
X114780000Y65190000D01*
G75*
G02*
X114655000Y65315000I0J125000D01*
G01*
G37*
G36*
G01*
X113804996Y65565000D02*
X113804996Y65315000D01*
G75*
G02*
X113679996Y65190000I-125000J0D01*
G01*
X113679996Y65190000D01*
G75*
G02*
X113554996Y65315000I0J125000D01*
G01*
X113554996Y65565000D01*
G75*
G02*
X113679996Y65690000I125000J0D01*
G01*
X113679996Y65690000D01*
G75*
G02*
X113804996Y65565000I0J-125000D01*
G01*
G37*
G36*
G01*
X112704995Y65565000D02*
X112704995Y65315000D01*
G75*
G02*
X112579995Y65190000I-125000J0D01*
G01*
X112579995Y65190000D01*
G75*
G02*
X112454995Y65315000I0J125000D01*
G01*
X112454995Y65565000D01*
G75*
G02*
X112579995Y65690000I125000J0D01*
G01*
X112579995Y65690000D01*
G75*
G02*
X112704995Y65565000I0J-125000D01*
G01*
G37*
G36*
G01*
X111604998Y65565000D02*
X111604998Y65315000D01*
G75*
G02*
X111479998Y65190000I-125000J0D01*
G01*
X111479998Y65190000D01*
G75*
G02*
X111354998Y65315000I0J125000D01*
G01*
X111354998Y65565000D01*
G75*
G02*
X111479998Y65690000I125000J0D01*
G01*
X111479998Y65690000D01*
G75*
G02*
X111604998Y65565000I0J-125000D01*
G01*
G37*
G36*
G01*
X110505000Y65565000D02*
X110505000Y65315000D01*
G75*
G02*
X110380000Y65190000I-125000J0D01*
G01*
X110380000Y65190000D01*
G75*
G02*
X110255000Y65315000I0J125000D01*
G01*
X110255000Y65565000D01*
G75*
G02*
X110380000Y65690000I125000J0D01*
G01*
X110380000Y65690000D01*
G75*
G02*
X110505000Y65565000I0J-125000D01*
G01*
G37*
G36*
G01*
X109405002Y65565000D02*
X109405002Y65315000D01*
G75*
G02*
X109280002Y65190000I-125000J0D01*
G01*
X109280002Y65190000D01*
G75*
G02*
X109155002Y65315000I0J125000D01*
G01*
X109155002Y65565000D01*
G75*
G02*
X109280002Y65690000I125000J0D01*
G01*
X109280002Y65690000D01*
G75*
G02*
X109405002Y65565000I0J-125000D01*
G01*
G37*
G36*
G01*
X108305004Y65565000D02*
X108305004Y65315000D01*
G75*
G02*
X108180004Y65190000I-125000J0D01*
G01*
X108180004Y65190000D01*
G75*
G02*
X108055004Y65315000I0J125000D01*
G01*
X108055004Y65565000D01*
G75*
G02*
X108180004Y65690000I125000J0D01*
G01*
X108180004Y65690000D01*
G75*
G02*
X108305004Y65565000I0J-125000D01*
G01*
G37*
G36*
G01*
X107205006Y65565000D02*
X107205006Y65315000D01*
G75*
G02*
X107080006Y65190000I-125000J0D01*
G01*
X107080006Y65190000D01*
G75*
G02*
X106955006Y65315000I0J125000D01*
G01*
X106955006Y65565000D01*
G75*
G02*
X107080006Y65690000I125000J0D01*
G01*
X107080006Y65690000D01*
G75*
G02*
X107205006Y65565000I0J-125000D01*
G01*
G37*
G36*
G01*
X106105009Y65565000D02*
X106105009Y65315000D01*
G75*
G02*
X105980009Y65190000I-125000J0D01*
G01*
X105980009Y65190000D01*
G75*
G02*
X105855009Y65315000I0J125000D01*
G01*
X105855009Y65565000D01*
G75*
G02*
X105980009Y65690000I125000J0D01*
G01*
X105980009Y65690000D01*
G75*
G02*
X106105009Y65565000I0J-125000D01*
G01*
G37*
G36*
G01*
X105005011Y65565000D02*
X105005011Y65315000D01*
G75*
G02*
X104880011Y65190000I-125000J0D01*
G01*
X104880011Y65190000D01*
G75*
G02*
X104755011Y65315000I0J125000D01*
G01*
X104755011Y65565000D01*
G75*
G02*
X104880011Y65690000I125000J0D01*
G01*
X104880011Y65690000D01*
G75*
G02*
X105005011Y65565000I0J-125000D01*
G01*
G37*
G36*
G01*
X103905013Y65565000D02*
X103905013Y65315000D01*
G75*
G02*
X103780013Y65190000I-125000J0D01*
G01*
X103780013Y65190000D01*
G75*
G02*
X103655013Y65315000I0J125000D01*
G01*
X103655013Y65565000D01*
G75*
G02*
X103780013Y65690000I125000J0D01*
G01*
X103780013Y65690000D01*
G75*
G02*
X103905013Y65565000I0J-125000D01*
G01*
G37*
G36*
G01*
X102805015Y65565000D02*
X102805015Y65315000D01*
G75*
G02*
X102680015Y65190000I-125000J0D01*
G01*
X102680015Y65190000D01*
G75*
G02*
X102555015Y65315000I0J125000D01*
G01*
X102555015Y65565000D01*
G75*
G02*
X102680015Y65690000I125000J0D01*
G01*
X102680015Y65690000D01*
G75*
G02*
X102805015Y65565000I0J-125000D01*
G01*
G37*
G36*
G01*
X101705017Y65565000D02*
X101705017Y65315000D01*
G75*
G02*
X101580017Y65190000I-125000J0D01*
G01*
X101580017Y65190000D01*
G75*
G02*
X101455017Y65315000I0J125000D01*
G01*
X101455017Y65565000D01*
G75*
G02*
X101580017Y65690000I125000J0D01*
G01*
X101580017Y65690000D01*
G75*
G02*
X101705017Y65565000I0J-125000D01*
G01*
G37*
G36*
G01*
X100605020Y65565000D02*
X100605020Y65315000D01*
G75*
G02*
X100480020Y65190000I-125000J0D01*
G01*
X100480020Y65190000D01*
G75*
G02*
X100355020Y65315000I0J125000D01*
G01*
X100355020Y65565000D01*
G75*
G02*
X100480020Y65690000I125000J0D01*
G01*
X100480020Y65690000D01*
G75*
G02*
X100605020Y65565000I0J-125000D01*
G01*
G37*
G36*
G01*
X99505022Y65565000D02*
X99505022Y65315000D01*
G75*
G02*
X99380022Y65190000I-125000J0D01*
G01*
X99380022Y65190000D01*
G75*
G02*
X99255022Y65315000I0J125000D01*
G01*
X99255022Y65565000D01*
G75*
G02*
X99380022Y65690000I125000J0D01*
G01*
X99380022Y65690000D01*
G75*
G02*
X99505022Y65565000I0J-125000D01*
G01*
G37*
G36*
G01*
X98405024Y65565000D02*
X98405024Y65315000D01*
G75*
G02*
X98280024Y65190000I-125000J0D01*
G01*
X98280024Y65190000D01*
G75*
G02*
X98155024Y65315000I0J125000D01*
G01*
X98155024Y65565000D01*
G75*
G02*
X98280024Y65690000I125000J0D01*
G01*
X98280024Y65690000D01*
G75*
G02*
X98405024Y65565000I0J-125000D01*
G01*
G37*
G36*
G01*
X97305026Y65565000D02*
X97305026Y65315000D01*
G75*
G02*
X97180026Y65190000I-125000J0D01*
G01*
X97180026Y65190000D01*
G75*
G02*
X97055026Y65315000I0J125000D01*
G01*
X97055026Y65565000D01*
G75*
G02*
X97180026Y65690000I125000J0D01*
G01*
X97180026Y65690000D01*
G75*
G02*
X97305026Y65565000I0J-125000D01*
G01*
G37*
G36*
G01*
X96205028Y65565000D02*
X96205028Y65315000D01*
G75*
G02*
X96080028Y65190000I-125000J0D01*
G01*
X96080028Y65190000D01*
G75*
G02*
X95955028Y65315000I0J125000D01*
G01*
X95955028Y65565000D01*
G75*
G02*
X96080028Y65690000I125000J0D01*
G01*
X96080028Y65690000D01*
G75*
G02*
X96205028Y65565000I0J-125000D01*
G01*
G37*
G36*
G01*
X95105031Y65565000D02*
X95105031Y65315000D01*
G75*
G02*
X94980031Y65190000I-125000J0D01*
G01*
X94980031Y65190000D01*
G75*
G02*
X94855031Y65315000I0J125000D01*
G01*
X94855031Y65565000D01*
G75*
G02*
X94980031Y65690000I125000J0D01*
G01*
X94980031Y65690000D01*
G75*
G02*
X95105031Y65565000I0J-125000D01*
G01*
G37*
G36*
G01*
X94005033Y65565000D02*
X94005033Y65315000D01*
G75*
G02*
X93880033Y65190000I-125000J0D01*
G01*
X93880033Y65190000D01*
G75*
G02*
X93755033Y65315000I0J125000D01*
G01*
X93755033Y65565000D01*
G75*
G02*
X93880033Y65690000I125000J0D01*
G01*
X93880033Y65690000D01*
G75*
G02*
X94005033Y65565000I0J-125000D01*
G01*
G37*
G36*
G01*
X92905035Y65565000D02*
X92905035Y65315000D01*
G75*
G02*
X92780035Y65190000I-125000J0D01*
G01*
X92780035Y65190000D01*
G75*
G02*
X92655035Y65315000I0J125000D01*
G01*
X92655035Y65565000D01*
G75*
G02*
X92780035Y65690000I125000J0D01*
G01*
X92780035Y65690000D01*
G75*
G02*
X92905035Y65565000I0J-125000D01*
G01*
G37*
G36*
G01*
X91805037Y65565000D02*
X91805037Y65315000D01*
G75*
G02*
X91680037Y65190000I-125000J0D01*
G01*
X91680037Y65190000D01*
G75*
G02*
X91555037Y65315000I0J125000D01*
G01*
X91555037Y65565000D01*
G75*
G02*
X91680037Y65690000I125000J0D01*
G01*
X91680037Y65690000D01*
G75*
G02*
X91805037Y65565000I0J-125000D01*
G01*
G37*
G36*
G01*
X90705039Y65565000D02*
X90705039Y65315000D01*
G75*
G02*
X90580039Y65190000I-125000J0D01*
G01*
X90580039Y65190000D01*
G75*
G02*
X90455039Y65315000I0J125000D01*
G01*
X90455039Y65565000D01*
G75*
G02*
X90580039Y65690000I125000J0D01*
G01*
X90580039Y65690000D01*
G75*
G02*
X90705039Y65565000I0J-125000D01*
G01*
G37*
G36*
G01*
X89605042Y65565000D02*
X89605042Y65315000D01*
G75*
G02*
X89480042Y65190000I-125000J0D01*
G01*
X89480042Y65190000D01*
G75*
G02*
X89355042Y65315000I0J125000D01*
G01*
X89355042Y65565000D01*
G75*
G02*
X89480042Y65690000I125000J0D01*
G01*
X89480042Y65690000D01*
G75*
G02*
X89605042Y65565000I0J-125000D01*
G01*
G37*
G36*
G01*
X88505044Y65565000D02*
X88505044Y65315000D01*
G75*
G02*
X88380044Y65190000I-125000J0D01*
G01*
X88380044Y65190000D01*
G75*
G02*
X88255044Y65315000I0J125000D01*
G01*
X88255044Y65565000D01*
G75*
G02*
X88380044Y65690000I125000J0D01*
G01*
X88380044Y65690000D01*
G75*
G02*
X88505044Y65565000I0J-125000D01*
G01*
G37*
G36*
G01*
X87405046Y65565000D02*
X87405046Y65315000D01*
G75*
G02*
X87280046Y65190000I-125000J0D01*
G01*
X87280046Y65190000D01*
G75*
G02*
X87155046Y65315000I0J125000D01*
G01*
X87155046Y65565000D01*
G75*
G02*
X87280046Y65690000I125000J0D01*
G01*
X87280046Y65690000D01*
G75*
G02*
X87405046Y65565000I0J-125000D01*
G01*
G37*
G04 #@! TD*
D10*
G04 #@! TO.C,M1*
X46058449Y85440000D03*
X47033461Y85339995D03*
X47903218Y85440000D03*
X48633455Y85440000D03*
X49528218Y85440000D03*
X51603218Y85440000D03*
X52503214Y85440000D03*
X53213456Y85440000D03*
X54233457Y85340000D03*
X55408456Y85340000D03*
X56758455Y85340000D03*
X57933454Y85340000D03*
X58833455Y84409761D03*
X58833455Y83715002D03*
X58833455Y83034762D03*
X58738457Y82215000D03*
X58833455Y80909763D03*
X58738457Y79939998D03*
X58833455Y78665000D03*
X58833455Y78014998D03*
X58738457Y76814998D03*
X58738457Y75739994D03*
X58738457Y74864992D03*
X58833455Y74040000D03*
X58833455Y68189999D03*
G04 #@! TD*
G04 #@! TO.C,BT1*
G36*
X23377083Y23577333D02*
G01*
X25922667Y26122917D01*
X27761145Y24284439D01*
X25215561Y21738855D01*
X23377083Y23577333D01*
G37*
G36*
X2658855Y44295561D02*
G01*
X5204439Y46841145D01*
X7042917Y45002667D01*
X4497333Y42457083D01*
X2658855Y44295561D01*
G37*
G04 #@! TD*
G04 #@! TO.C,M13*
X117822493Y16574827D03*
X117052499Y1749810D03*
X110072501Y3024844D03*
G04 #@! TD*
M02*
