M48
; DRILL file {KiCad 8.0.4-8.0.4-0~ubuntu22.04.1} date 2024-07-30T00:29:43+0000
; FORMAT={2:4/ absolute / inch / suppress leading zeros}
; #@! TF.CreationDate,2024-07-30T00:29:43+00:00
; #@! TF.GenerationSoftware,Kicad,Pcbnew,8.0.4-8.0.4-0~ubuntu22.04.1
; #@! TF.FileFunction,MixedPlating,1,4
FMAT,2
INCH,TZ
; #@! TA.AperFunction,Plated,PTH,ComponentDrill
T1C0.0118
; #@! TA.AperFunction,Plated,PTH,ViaDrill
T2C0.0118
; #@! TA.AperFunction,Plated,PTH,ComponentDrill
T3C0.0118
; #@! TA.AperFunction,Plated,PTH,ViaDrill
T4C0.0157
; #@! TA.AperFunction,Plated,PTH,ViaDrill
T5C0.0160
; #@! TA.AperFunction,Plated,PTH,ComponentDrill
T6C0.0197
; #@! TA.AperFunction,Plated,PTH,ComponentDrill
T7C0.0315
; #@! TA.AperFunction,Plated,PTH,ComponentDrill
T8C0.0320
; #@! TA.AperFunction,Plated,PTH,ViaDrill
T9C0.0394
; #@! TA.AperFunction,Plated,PTH,ComponentDrill
T10C0.0394
; #@! TA.AperFunction,Plated,PTH,ComponentDrill
T11C0.0433
; #@! TA.AperFunction,Plated,PTH,ComponentDrill
T12C0.0472
; #@! TA.AperFunction,Plated,PTH,ComponentDrill
T13C0.0709
; #@! TA.AperFunction,Plated,PTH,ComponentDrill
T14C0.0787
; #@! TA.AperFunction,Plated,PTH,ComponentDrill
T15C0.1200
; #@! TA.AperFunction,Plated,PTH,ComponentDrill
T16C0.1693
; #@! TA.AperFunction,NonPlated,NPTH,ComponentDrill
T17C0.1181
; #@! TA.AperFunction,NonPlated,NPTH,ComponentDrill
T18C0.1693
%
G90
G05
T1
X460Y11959
X2606Y14656
X2613Y12596
X3354Y12402
X5844Y15178
X30757Y1932
X30786Y535
X30875Y2434
X31219Y2228
X34989Y355
X39281Y355
X43423Y3968
X44566Y3701
X44871Y355
X45442Y3701
X46298Y3701
X46761Y3701
X47169Y16300
X47169Y15532
X47169Y14509
X47685Y16044
X47862Y15404
X47892Y14341
X47892Y15070
X47898Y13593
X47976Y14725
X48341Y9642
X48424Y3964
X48547Y9986
X48843Y9524
X49044Y5896
X49153Y1851
X49502Y13475
X49699Y355
X50240Y9553
T2
X193Y18387
X201Y19051
X457Y10902
X457Y9917
X654Y17693
X654Y15823
X1057Y2507
X1736Y10902
X1736Y9917
X3311Y370
X4197Y370
X4984Y2831
X5437Y35370
X5772Y3126
X6657Y15264
X6919Y2831
X7051Y8441
X7150Y20547
X7150Y19760
X7248Y38067
X7346Y9917
X7356Y12349
X7435Y11089
X7642Y6177
X7681Y33205
X7740Y25862
X7740Y18677
X7740Y2831
X7782Y14585
X7839Y17398
X8232Y21886
X8311Y37240
X8449Y16849
X8528Y32654
X8528Y32063
X8572Y22579
X8783Y14266
X8921Y11197
X9183Y2929
X9217Y33933
X9314Y18185
X9315Y26059
X9394Y18618
X9413Y19760
X9453Y18972
X9610Y6177
X9651Y18301
X9709Y20941
X10102Y12378
X10545Y16995
X11028Y17358
X11106Y11492
X11146Y12319
X11323Y20685
X11348Y469
X11372Y4790
X11411Y3885
X11765Y18334
X11776Y17713
X12366Y15331
X12445Y37988
X12726Y469
X12789Y4239
X12946Y2192
X12946Y1601
X12957Y5882
X12996Y15429
X13980Y7831
X14138Y15724
X14728Y14150
X17238Y37437
X17386Y15193
X17681Y34917
X17976Y15724
X18764Y13854
X18980Y7811
X19157Y36000
X19945Y34425
X20102Y36020
X21222Y34334
X22406Y13559
X22406Y9524
X22839Y9563
X22868Y13244
X22948Y16993
X23174Y17219
X23187Y13756
X23232Y35272
X23429Y13244
X23488Y27240
X23488Y16748
X23537Y39200
X23537Y32624
X23547Y25350
X23587Y29071
X23760Y32847
X23803Y21630
X23859Y9540
X23980Y30980
X24079Y27240
X24138Y15213
X24177Y35409
X24177Y13244
X24492Y22551
X24965Y19760
X25043Y35508
X25063Y21335
X25138Y17867
X25269Y38963
X25358Y16227
X25890Y30173
X26441Y38854
X26441Y37575
X26441Y35606
X26559Y16669
X26736Y24878
X26756Y23480
X26825Y16404
X26888Y16082
X26913Y22260
X26954Y18305
X27248Y23500
X27332Y18190
X27465Y16394
X27484Y12624
X27484Y12938
X27484Y12280
X27622Y38854
X27642Y6610
X28193Y27673
X28783Y311
X28902Y38854
X29000Y36787
X29197Y3618
X29197Y1059
X29984Y36787
X30083Y38854
X30240Y38126
X30713Y5980
X31067Y37575
X31283Y4583
X31333Y25193
X32091Y31098
X32091Y30547
X32346Y29898
X32366Y35094
X32602Y23500
X33173Y4504
X33183Y29140
X33498Y32034
X33560Y31121
X33567Y28835
X33567Y27201
X33626Y33343
X33921Y23027
X33961Y35094
X34118Y36787
X34118Y567
X34610Y34484
X34906Y37575
X35004Y32122
X35033Y34022
X35201Y39150
X35574Y7437
X35624Y4996
X35821Y33205
X35821Y32861
X36244Y34110
X36281Y32061
X36319Y31690
X36382Y38963
X36382Y37673
X36461Y32575
X37091Y33067
X37661Y34228
X37710Y5656
X38035Y40055
X38154Y36945
X38439Y32802
X38549Y5119
X38576Y4626
X38646Y32043
X38862Y31571
X38891Y34318
X39000Y4921
X39059Y33422
X39139Y34869
X39157Y32693
X39157Y31709
X39296Y35578
X39472Y4921
X39802Y4961
X40200Y33400
X40240Y5331
X40309Y36326
X40555Y33421
X40742Y35302
X40831Y31984
X41180Y4961
X41205Y33402
X41339Y37717
X41608Y35341
X42080Y37389
X42080Y36719
X42327Y6807
X42513Y36208
X42651Y6798
X42996Y32654
X44079Y4878
X44768Y25429
X44768Y22988
X45033Y34593
X45122Y6801
X45890Y23323
X46146Y6801
X46520Y29602
X46520Y28323
X46520Y26846
X47115Y31284
X47406Y21236
X47406Y20547
X49160Y20770
X49335Y20508
X49492Y26098
X49571Y24051
X49807Y19720
X50260Y3618
X50457Y665
X50477Y18176
X50488Y19024
X50673Y18736
X50673Y18421
X51106Y6650
X51146Y40626
X51657Y29524
X51962Y28767
X52316Y26089
X52317Y23334
X52445Y28736
X52531Y25678
X52582Y32457
X52582Y12791
X52582Y9051
X52612Y24023
X52901Y24469
X52907Y5105
X52946Y36798
X53183Y17074
X53232Y25693
X53566Y35114
X53566Y34602
X53566Y34091
X53606Y31177
X53606Y30665
X53606Y30154
X53606Y27437
X53606Y26925
X53606Y26413
X53606Y23500
X53606Y22988
X53606Y22476
X53606Y15429
X53606Y14917
X53606Y14406
X53606Y11492
X53606Y10980
X53606Y10469
X53606Y7752
X53606Y7240
X53606Y6728
X53606Y4209
X53606Y3697
X53606Y3185
X53960Y35114
X53960Y34091
X54000Y31177
X54000Y30154
X54000Y27437
X54000Y26413
X54000Y23500
X54000Y22476
X54000Y15429
X54000Y14406
X54000Y11492
X54000Y10469
X54000Y7752
X54000Y6728
X54000Y4209
X54000Y3185
X62406Y34524
X62484Y14799
X62484Y7161
X62484Y3657
X62489Y27083
X62489Y23461
X62529Y30587
X62529Y10941
T3
X13350Y5449
X13350Y5055
X13350Y4661
X13350Y4268
X28409Y3835
X28409Y3441
X28409Y2043
X28409Y1650
T4
X2228Y10705
X6253Y20637
X6559Y12673
X6585Y25061
X6756Y12969
X6998Y25061
X7051Y30685
X7051Y13595
X7051Y13264
X7721Y16320
X8232Y27831
X9217Y23992
X9413Y27831
X9807Y10390
X10319Y8421
X11776Y33736
X11776Y32949
X11776Y32161
X11776Y31374
X11776Y30587
X11776Y29799
X11776Y29012
X11776Y28224
X11776Y27437
X11776Y26650
X11776Y25862
X11776Y25075
X11776Y24287
X11776Y11689
X11776Y10114
X13350Y11689
X13610Y10315
X14453Y7949
X15122Y12575
X15122Y11591
X15122Y10508
X15122Y9425
X15122Y8441
X15516Y14543
X17012Y33972
X17189Y12673
X17484Y34425
X17583Y10311
X17583Y9622
X17789Y37388
X18173Y13953
X18365Y13554
X18370Y12673
X18660Y13259
X18862Y10311
X18862Y9622
X19945Y13953
X19945Y12969
X20004Y7929
X20043Y10213
X20043Y9031
X20339Y13362
X20339Y9622
X20535Y13953
X20535Y9031
X20535Y7909
X20732Y12969
X20732Y10213
X20850Y13500
X21205Y13500
X21279Y8032
X21541Y8295
X22031Y7339
X23291Y9819
X23646Y29465
X23665Y30134
X23683Y31779
X24087Y29460
X24435Y9583
X24541Y14770
X24551Y15154
X24718Y9593
X25535Y7466
X25850Y12870
X25850Y10311
X25850Y9917
X25909Y8933
X25988Y15154
X26146Y13165
X27445Y11630
X28055Y34583
X28114Y31079
X28685Y35508
X29315Y29642
X32524Y28205
X32543Y26236
X33626Y24976
X34103Y1374
X34138Y2161
X34394Y2831
X36992Y4327
X40319Y3677
X40850Y5213
X41657Y4051
X48429Y7949
X49925Y7949
X50358Y15134
X50673Y12439
T5
X17878Y34012
T6
X5614Y8539
X6264Y39642
X7248Y39642
X10004Y16512
X11402Y17713
X11402Y16925
X12268Y34425
X13154Y34425
X14039Y34425
X14925Y34425
X15909Y35508
X16992Y39642
X19157Y35292
X19650Y39642
X19650Y36079
X19748Y37575
X20043Y35292
X20535Y36079
X20929Y35292
X22504Y35292
X22996Y36079
X23291Y39642
X23783Y31374
X23783Y30587
X23921Y22949
X24669Y21728
X24669Y20941
X24669Y20154
X24669Y19366
X24669Y18579
X24669Y17791
X24886Y6591
X24965Y38067
X25260Y39642
X25555Y18579
X25575Y20941
X25575Y20154
X25575Y19366
X25673Y6591
X25850Y15921
X25909Y38067
X26146Y16906
X26441Y39642
X26461Y6591
X26736Y14543
X26933Y34917
X27031Y38067
X27248Y6591
X27720Y39642
X28035Y6591
X28311Y38067
X28823Y6591
X28902Y39642
X29354Y5646
X29492Y38067
X30142Y5646
X30142Y4740
X30181Y39642
X30437Y6551
X31224Y6551
X31264Y23500
X32150Y23500
X33035Y23500
X33134Y30291
X33134Y29504
X33902Y6866
X33941Y23500
X34217Y32555
X34610Y31768
X34709Y33343
X35004Y5488
X35004Y4012
X35201Y32555
X35398Y39642
X35594Y38264
X36283Y39642
X36972Y31768
X41205Y32634
X42110Y32634
X42386Y6079
X42386Y5291
X42386Y4504
X42386Y3717
X42484Y33441
X43370Y33441
X43862Y32654
X44157Y39642
X45535Y39642
X47012Y39642
X50988Y6098
X51776Y6098
X52563Y6098
X53350Y6098
X54689Y39642
X54689Y38362
T7
X8724Y4209
X8724Y3421
X8724Y2634
X8724Y1846
X8724Y1059
X30575Y3717
X31362Y3717
X32150Y3717
X32937Y3717
X33724Y3717
T8
X8232Y39604
X8232Y38104
X9315Y39604
X9315Y38104
X9433Y36063
X9433Y34563
X10791Y39819
X10791Y37890
X11874Y39604
X11874Y38104
X12957Y39604
X12957Y38104
X14039Y39604
X14039Y38104
X15122Y39604
X15122Y38104
X16205Y39604
X16205Y38104
X16341Y13500
X16341Y12500
X16341Y11500
X16341Y10500
X16341Y9500
X16341Y8500
X17137Y36129
X17780Y39604
X17780Y38104
X18637Y36129
X18862Y39604
X18862Y38104
X20437Y39604
X20437Y38104
X21520Y39604
X21520Y38104
X22563Y39604
X22563Y38104
X24079Y39684
X24079Y38184
X30673Y36652
X30673Y35152
X31362Y39604
X31362Y38104
X31776Y36652
X31776Y35152
X32445Y39604
X32445Y38104
X33035Y36652
X33035Y35152
X33528Y39604
X33528Y38104
X34610Y39604
X34610Y38104
X35201Y36652
X35201Y35152
X36283Y36652
X36283Y35152
X37366Y39604
X37366Y38104
X37366Y36652
X37366Y35152
X38547Y39604
X38547Y38104
X38646Y36652
X38646Y35152
X39728Y39604
X39728Y38104
X51028Y36652
X51028Y35152
X51146Y39604
X51146Y38104
X52110Y36652
X52110Y35152
X52228Y40035
X52228Y38106
X53508Y39604
X53508Y38104
T9
X40151Y35341
X43168Y35361
T10
X568Y36408
X568Y35408
X568Y34408
X568Y33408
X568Y32408
X568Y31408
X568Y30408
X568Y29408
X568Y28408
X568Y27408
X568Y26408
X568Y25408
X724Y4602
X1568Y36408
X1568Y35408
X1568Y34408
X1568Y33408
X1568Y32408
X1568Y31408
X1568Y30408
X1568Y29408
X1568Y28408
X1568Y27408
X1568Y26408
X1568Y25408
X1724Y4602
X2568Y36408
X2568Y35408
X2568Y34408
X2568Y33408
X2568Y32408
X2568Y31408
X2568Y30408
X2568Y29408
X2568Y28408
X2568Y27408
X2568Y26408
X2568Y25408
X2724Y4602
X3568Y36408
X3568Y35408
X3568Y34408
X3568Y33408
X3568Y32408
X3568Y31408
X3568Y30408
X3568Y29408
X3568Y28408
X3568Y27408
X3568Y26408
X3568Y25408
X3724Y4602
X4207Y6571
X4568Y36408
X4568Y35408
X4568Y34408
X4568Y33408
X4568Y32408
X4568Y31408
X4568Y30408
X4568Y29408
X4568Y28408
X4568Y27408
X4568Y26408
X4568Y25408
X5207Y6571
X5246Y4406
X5568Y29408
X5568Y28408
X5568Y27408
X5568Y26408
X5568Y25408
X6207Y6571
X6525Y4406
X7207Y6571
X7805Y4406
X8207Y6571
X9084Y4406
X9207Y6571
X10561Y4406
X12037Y4406
X32327Y8213
X32327Y7213
X32327Y6213
X32327Y5213
T11
X59831Y36098
X59831Y28736
X59831Y24996
X59870Y32201
X59870Y16413
X59870Y12555
X59870Y8776
X59870Y5272
X61831Y36098
X61831Y28736
X61831Y24996
X61870Y32201
X61870Y16413
X61870Y12555
X61870Y8776
X61870Y5272
T12
X10680Y44005
X11566Y41545
X11664Y44005
X12648Y44005
X12845Y41545
X13632Y44005
X14125Y41545
X14617Y44005
X15404Y41545
X15601Y44005
X16585Y44005
X16684Y41545
X17569Y44005
X17963Y41545
X18554Y44005
X19243Y41545
X19538Y44005
X20522Y44005
X20522Y41545
X21506Y44005
X21802Y41545
X22392Y43710
X23081Y44301
X23081Y41545
X23672Y43710
X24361Y44301
X24361Y41545
X24951Y43710
X25640Y44301
X25640Y41545
X26231Y43710
X26920Y44301
X26920Y41545
X27510Y43710
X28199Y44301
X28199Y41545
X28790Y43710
X29479Y44301
X29479Y41545
X30069Y43710
X30758Y44301
X30758Y41545
X31349Y43710
X32038Y44301
X32038Y41545
X32629Y43710
X33317Y44301
X33317Y41545
X33908Y43710
X34597Y44301
X34597Y41545
X35188Y43710
X35877Y44301
X35877Y41545
X36467Y43710
X37156Y44301
X37156Y41545
X37747Y43710
X38436Y44301
X38436Y41545
X39026Y43710
X39715Y44301
X39715Y41545
X40306Y43710
X40995Y41545
X41290Y44005
X42274Y44005
X42274Y41545
X43258Y44005
X43554Y41545
X44243Y44005
X44833Y41545
X45227Y44005
X46113Y41545
X46211Y44005
X47195Y44005
X47392Y41545
X48180Y44005
X48672Y41545
X49164Y44005
X49951Y41545
X50148Y44005
X51132Y44005
X51231Y41545
X52117Y44005
X52510Y41545
X53101Y44005
X54085Y44005
T13
X26047Y34917
X26047Y32752
T14
X6697Y21807
X7681Y22673
X9138Y21807
X9886Y22673
X11343Y21807
T15
X11341Y15500
X11341Y6500
T16
X2999Y44891
X60365Y44793
T17
X26047Y37791
T18
X2920Y2295
X51420Y2295
M30
