G04 #@! TF.GenerationSoftware,KiCad,Pcbnew,8.0.4-8.0.4-0~ubuntu22.04.1*
G04 #@! TF.CreationDate,2024-07-24T21:08:37+00:00*
G04 #@! TF.ProjectId,ECU-techPorsche88,4543552d-7465-4636-9850-6f7273636865,a*
G04 #@! TF.SameCoordinates,PX3e96f30PY91b3ce0*
G04 #@! TF.FileFunction,Copper,L4,Bot*
G04 #@! TF.FilePolarity,Positive*
%FSLAX46Y46*%
G04 Gerber Fmt 4.6, Leading zero omitted, Abs format (unit mm)*
G04 Created by KiCad (PCBNEW 8.0.4-8.0.4-0~ubuntu22.04.1) date 2024-07-24 21:08:37*
%MOMM*%
%LPD*%
G01*
G04 APERTURE LIST*
G04 APERTURE END LIST*
G04 #@! TA.AperFunction,Conductor*
G04 #@! TO.N,GND*
G36*
X156809869Y117430593D02*
G01*
X156821682Y117420504D01*
X159470504Y114771682D01*
X159498281Y114717165D01*
X159499500Y114701678D01*
X159499500Y107549500D01*
X159480593Y107491309D01*
X159431093Y107455345D01*
X159400500Y107450500D01*
X143565892Y107450500D01*
X143434108Y107450500D01*
X143356200Y107429625D01*
X143306809Y107416391D01*
X143192690Y107350504D01*
X143099496Y107257310D01*
X143033609Y107143191D01*
X143033608Y107143186D01*
X142999500Y107015892D01*
X142999500Y93684108D01*
X143029579Y93571849D01*
X143033609Y93556810D01*
X143099496Y93442691D01*
X143099498Y93442689D01*
X143099500Y93442686D01*
X143192686Y93349500D01*
X143192688Y93349499D01*
X143192690Y93349497D01*
X143306810Y93283610D01*
X143306808Y93283610D01*
X143306812Y93283609D01*
X143306814Y93283608D01*
X143434108Y93249500D01*
X143565892Y93249500D01*
X159400500Y93249500D01*
X159458691Y93230593D01*
X159494655Y93181093D01*
X159499500Y93150500D01*
X159499500Y57549500D01*
X159480593Y57491309D01*
X159431093Y57455345D01*
X159400500Y57450500D01*
X143565892Y57450500D01*
X143434108Y57450500D01*
X143356200Y57429625D01*
X143306809Y57416391D01*
X143192690Y57350504D01*
X143099496Y57257310D01*
X143033609Y57143191D01*
X143033608Y57143186D01*
X142999500Y57015892D01*
X142999500Y43684108D01*
X143029579Y43571849D01*
X143033609Y43556810D01*
X143099496Y43442691D01*
X143099498Y43442689D01*
X143099500Y43442686D01*
X143192686Y43349500D01*
X143192688Y43349499D01*
X143192690Y43349497D01*
X143306810Y43283610D01*
X143306808Y43283610D01*
X143306812Y43283609D01*
X143306814Y43283608D01*
X143434108Y43249500D01*
X143565892Y43249500D01*
X159400500Y43249500D01*
X159458691Y43230593D01*
X159494655Y43181093D01*
X159499500Y43150500D01*
X159499500Y6240322D01*
X159480593Y6182131D01*
X159470504Y6170318D01*
X153821682Y521496D01*
X153767165Y493719D01*
X153751678Y492500D01*
X6248322Y492500D01*
X6190131Y511407D01*
X6178318Y521496D01*
X529496Y6170318D01*
X501719Y6224835D01*
X500500Y6240322D01*
X500500Y48150500D01*
X519407Y48208691D01*
X568907Y48244655D01*
X599500Y48249500D01*
X14565890Y48249500D01*
X14565892Y48249500D01*
X14693186Y48283608D01*
X14693188Y48283610D01*
X14693190Y48283610D01*
X14807309Y48349497D01*
X14807309Y48349498D01*
X14807314Y48349500D01*
X14900500Y48442686D01*
X14966392Y48556814D01*
X15000500Y48684108D01*
X15000500Y62015892D01*
X14966392Y62143186D01*
X14966390Y62143189D01*
X14966390Y62143191D01*
X14900503Y62257310D01*
X14900501Y62257312D01*
X14900500Y62257314D01*
X14807314Y62350500D01*
X14807311Y62350502D01*
X14807309Y62350504D01*
X14693189Y62416391D01*
X14693191Y62416391D01*
X14643799Y62429625D01*
X14565892Y62450500D01*
X14565890Y62450500D01*
X599500Y62450500D01*
X541309Y62469407D01*
X505345Y62518907D01*
X500500Y62549500D01*
X500500Y93150500D01*
X519407Y93208691D01*
X568907Y93244655D01*
X599500Y93249500D01*
X14565890Y93249500D01*
X14565892Y93249500D01*
X14693186Y93283608D01*
X14693188Y93283610D01*
X14693190Y93283610D01*
X14807309Y93349497D01*
X14807309Y93349498D01*
X14807314Y93349500D01*
X14900500Y93442686D01*
X14966392Y93556814D01*
X15000500Y93684108D01*
X15000500Y107015892D01*
X14966392Y107143186D01*
X14966390Y107143189D01*
X14966390Y107143191D01*
X14900503Y107257310D01*
X14900501Y107257312D01*
X14900500Y107257314D01*
X14807314Y107350500D01*
X14807311Y107350502D01*
X14807309Y107350504D01*
X14693189Y107416391D01*
X14693191Y107416391D01*
X14643799Y107429625D01*
X14565892Y107450500D01*
X14565890Y107450500D01*
X599500Y107450500D01*
X541309Y107469407D01*
X505345Y107518907D01*
X500500Y107549500D01*
X500500Y114701678D01*
X519407Y114759869D01*
X529496Y114771682D01*
X3178318Y117420504D01*
X3232835Y117448281D01*
X3248322Y117449500D01*
X156751678Y117449500D01*
X156809869Y117430593D01*
G37*
G04 #@! TD.AperFunction*
G04 #@! TD*
M02*
