G75*
G70*
%OFA0B0*%
%FSLAX25Y25*%
%IPPOS*%
%LPD*%
%AMOC8*
5,1,8,0,0,1.08239X$1,22.5*
%
X0000000Y0000000D02*
%LPD*%
G01*
G36*
X0627790Y0059267D02*
G01*
X0627932Y0059072D01*
X0627951Y0058951D01*
X0627951Y0024599D01*
X0627876Y0024370D01*
X0627837Y0024324D01*
X0605597Y0002084D01*
X0605383Y0001975D01*
X0605322Y0001970D01*
X0557186Y0001970D01*
X0556957Y0002044D01*
X0556815Y0002239D01*
X0556796Y0002360D01*
X0556796Y0058951D01*
X0556870Y0059181D01*
X0557065Y0059322D01*
X0557186Y0059341D01*
X0627561Y0059341D01*
X0627790Y0059267D01*
G37*
G36*
X0627790Y0255920D02*
G01*
X0627932Y0255725D01*
X0627951Y0255605D01*
X0627951Y0226604D01*
X0627876Y0226375D01*
X0627681Y0226233D01*
X0627561Y0226214D01*
X0565220Y0226214D01*
X0564701Y0226214D01*
X0564394Y0226132D01*
X0564200Y0226080D01*
X0563751Y0225820D01*
X0563384Y0225453D01*
X0563124Y0225004D01*
X0562990Y0224503D01*
X0562987Y0224478D01*
X0562975Y0224479D01*
X0562916Y0224297D01*
X0562721Y0224155D01*
X0562602Y0224136D01*
X0557188Y0224107D01*
X0556958Y0224180D01*
X0556816Y0224374D01*
X0556796Y0224497D01*
X0556796Y0255605D01*
X0556870Y0255834D01*
X0557065Y0255976D01*
X0557186Y0255995D01*
X0627561Y0255995D01*
X0627790Y0255920D01*
G37*
G36*
X0563224Y0368125D02*
G01*
X0563332Y0368005D01*
X0563384Y0367916D01*
X0563751Y0367549D01*
X0563751Y0367549D01*
X0563751Y0367549D01*
X0564200Y0367289D01*
X0564200Y0367289D01*
X0564200Y0367289D01*
X0564200Y0367289D01*
X0564701Y0367155D01*
X0565220Y0367155D01*
X0627561Y0367155D01*
X0627790Y0367081D01*
X0627932Y0366886D01*
X0627951Y0366765D01*
X0627951Y0337093D01*
X0627876Y0336864D01*
X0627681Y0336723D01*
X0627561Y0336703D01*
X0557186Y0336703D01*
X0556957Y0336778D01*
X0556815Y0336973D01*
X0556796Y0337093D01*
X0556796Y0367810D01*
X0556870Y0368039D01*
X0557065Y0368180D01*
X0557186Y0368200D01*
X0562995Y0368200D01*
X0563224Y0368125D01*
G37*
G36*
X0563224Y0171275D02*
G01*
X0563332Y0171154D01*
X0563384Y0171065D01*
X0563751Y0170698D01*
X0563751Y0170698D01*
X0563751Y0170698D01*
X0564200Y0170439D01*
X0564200Y0170439D01*
X0564200Y0170439D01*
X0564200Y0170439D01*
X0564701Y0170305D01*
X0565220Y0170305D01*
X0627561Y0170305D01*
X0627790Y0170230D01*
X0627932Y0170035D01*
X0627951Y0169915D01*
X0627951Y0140440D01*
X0627876Y0140211D01*
X0627681Y0140069D01*
X0627561Y0140050D01*
X0557186Y0140050D01*
X0556957Y0140124D01*
X0556815Y0140319D01*
X0556796Y0140440D01*
X0556796Y0170959D01*
X0556870Y0171188D01*
X0557065Y0171330D01*
X0557186Y0171349D01*
X0562995Y0171349D01*
X0563224Y0171275D01*
G37*
G36*
X0627790Y0096472D02*
G01*
X0627932Y0096277D01*
X0627951Y0096156D01*
X0627951Y0064259D01*
X0627876Y0064029D01*
X0627681Y0063888D01*
X0627561Y0063869D01*
X0557186Y0063869D01*
X0556957Y0063943D01*
X0556815Y0064138D01*
X0556796Y0064259D01*
X0556796Y0096156D01*
X0556870Y0096385D01*
X0557065Y0096527D01*
X0557186Y0096546D01*
X0627561Y0096546D01*
X0627790Y0096472D01*
G37*
G36*
X0627790Y0294503D02*
G01*
X0627932Y0294308D01*
X0627951Y0294188D01*
X0627951Y0259928D01*
X0627876Y0259699D01*
X0627681Y0259557D01*
X0627561Y0259538D01*
X0557186Y0259538D01*
X0556957Y0259613D01*
X0556815Y0259807D01*
X0556796Y0259928D01*
X0556796Y0294188D01*
X0556870Y0294417D01*
X0557065Y0294558D01*
X0557186Y0294577D01*
X0627561Y0294577D01*
X0627790Y0294503D01*
G37*
G36*
X0627790Y0333086D02*
G01*
X0627932Y0332891D01*
X0627951Y0332770D01*
X0627951Y0298511D01*
X0627876Y0298281D01*
X0627681Y0298140D01*
X0627561Y0298121D01*
X0557186Y0298121D01*
X0556957Y0298195D01*
X0556815Y0298390D01*
X0556796Y0298511D01*
X0556796Y0332770D01*
X0556870Y0332999D01*
X0557065Y0333141D01*
X0557186Y0333160D01*
X0627561Y0333160D01*
X0627790Y0333086D01*
G37*
G36*
X0627790Y0135054D02*
G01*
X0627932Y0134859D01*
X0627951Y0134739D01*
X0627951Y0102448D01*
X0627876Y0102218D01*
X0627681Y0102077D01*
X0627561Y0102058D01*
X0557186Y0102058D01*
X0556957Y0102132D01*
X0556815Y0102327D01*
X0556796Y0102448D01*
X0556796Y0134739D01*
X0556870Y0134968D01*
X0557065Y0135110D01*
X0557186Y0135129D01*
X0627561Y0135129D01*
X0627790Y0135054D01*
G37*
G36*
X0617362Y0462356D02*
G01*
X0617408Y0462316D01*
X0627837Y0451888D01*
X0627946Y0451673D01*
X0627951Y0451612D01*
X0627951Y0423454D01*
X0627876Y0423225D01*
X0627681Y0423084D01*
X0627561Y0423064D01*
X0565220Y0423064D01*
X0564701Y0423064D01*
X0564394Y0422982D01*
X0564200Y0422930D01*
X0563751Y0422671D01*
X0563384Y0422304D01*
X0563124Y0421855D01*
X0562990Y0421353D01*
X0562990Y0370973D01*
X0562916Y0370744D01*
X0562721Y0370602D01*
X0562600Y0370583D01*
X0557186Y0370583D01*
X0556813Y0370554D01*
X0556773Y0370548D01*
X0556692Y0370535D01*
X0556211Y0370406D01*
X0555664Y0370109D01*
X0555664Y0370109D01*
X0555469Y0369967D01*
X0555469Y0369967D01*
X0555275Y0369810D01*
X0555275Y0369810D01*
X0554871Y0369337D01*
X0554871Y0369337D01*
X0554603Y0368775D01*
X0554529Y0368546D01*
X0554493Y0368427D01*
X0554412Y0367810D01*
X0554412Y0337093D01*
X0554442Y0336720D01*
X0554461Y0336600D01*
X0554590Y0336118D01*
X0554887Y0335572D01*
X0554887Y0335572D01*
X0555028Y0335377D01*
X0555028Y0335377D01*
X0555196Y0335169D01*
X0555283Y0334944D01*
X0555220Y0334712D01*
X0555190Y0334671D01*
X0554871Y0334298D01*
X0554603Y0333736D01*
X0554529Y0333507D01*
X0554493Y0333387D01*
X0554412Y0332770D01*
X0554412Y0298511D01*
X0554442Y0298138D01*
X0554461Y0298017D01*
X0554590Y0297536D01*
X0554887Y0296989D01*
X0554887Y0296989D01*
X0555028Y0296794D01*
X0555028Y0296794D01*
X0555196Y0296586D01*
X0555283Y0296362D01*
X0555220Y0296129D01*
X0555190Y0296088D01*
X0554871Y0295715D01*
X0554603Y0295153D01*
X0554529Y0294924D01*
X0554493Y0294805D01*
X0554412Y0294188D01*
X0554412Y0259928D01*
X0554442Y0259555D01*
X0554461Y0259435D01*
X0554590Y0258953D01*
X0554887Y0258406D01*
X0554887Y0258406D01*
X0555028Y0258211D01*
X0555028Y0258211D01*
X0555196Y0258004D01*
X0555283Y0257779D01*
X0555220Y0257546D01*
X0555190Y0257505D01*
X0554871Y0257132D01*
X0554603Y0256571D01*
X0554529Y0256342D01*
X0554493Y0256222D01*
X0554412Y0255605D01*
X0554412Y0224497D01*
X0554443Y0224118D01*
X0554443Y0224118D01*
X0554462Y0223995D01*
X0554595Y0223508D01*
X0554895Y0222963D01*
X0554895Y0222963D01*
X0554895Y0222963D01*
X0555037Y0222769D01*
X0555121Y0222667D01*
X0555196Y0222576D01*
X0555196Y0222576D01*
X0555671Y0222174D01*
X0555671Y0222174D01*
X0555671Y0222174D01*
X0556234Y0221909D01*
X0556464Y0221836D01*
X0556583Y0221801D01*
X0557201Y0221723D01*
X0562598Y0221752D01*
X0562828Y0221679D01*
X0562970Y0221485D01*
X0562990Y0221363D01*
X0562990Y0172548D01*
X0562916Y0172319D01*
X0562721Y0172177D01*
X0562600Y0172158D01*
X0557186Y0172158D01*
X0557059Y0172148D01*
X0556939Y0172129D01*
X0556921Y0172126D01*
X0556921Y0172126D01*
X0556590Y0171985D01*
X0556395Y0171843D01*
X0556286Y0171748D01*
X0556101Y0171438D01*
X0556101Y0171438D01*
X0556027Y0171209D01*
X0555987Y0170959D01*
X0555987Y0170959D01*
X0555987Y0140440D01*
X0555997Y0140313D01*
X0556016Y0140192D01*
X0556019Y0140175D01*
X0556019Y0140175D01*
X0556161Y0139844D01*
X0556161Y0139844D01*
X0556302Y0139649D01*
X0556398Y0139540D01*
X0556707Y0139355D01*
X0556936Y0139280D01*
X0556983Y0139273D01*
X0557186Y0139241D01*
X0627561Y0139241D01*
X0627790Y0139166D01*
X0627932Y0138972D01*
X0627951Y0138851D01*
X0627951Y0137902D01*
X0627876Y0137673D01*
X0627681Y0137532D01*
X0627561Y0137512D01*
X0557186Y0137512D01*
X0556813Y0137483D01*
X0556773Y0137477D01*
X0556692Y0137464D01*
X0556211Y0137335D01*
X0555664Y0137038D01*
X0555664Y0137038D01*
X0555469Y0136897D01*
X0555469Y0136897D01*
X0555275Y0136740D01*
X0555275Y0136739D01*
X0554871Y0136266D01*
X0554871Y0136266D01*
X0554603Y0135705D01*
X0554529Y0135475D01*
X0554493Y0135356D01*
X0554412Y0134739D01*
X0554412Y0102448D01*
X0554442Y0102075D01*
X0554461Y0101954D01*
X0554590Y0101473D01*
X0554887Y0100926D01*
X0554887Y0100926D01*
X0554887Y0100926D01*
X0555028Y0100731D01*
X0555185Y0100537D01*
X0555185Y0100537D01*
X0555185Y0100537D01*
X0555658Y0100133D01*
X0555658Y0100133D01*
X0556094Y0099925D01*
X0556220Y0099865D01*
X0556449Y0099791D01*
X0556523Y0099769D01*
X0556569Y0099755D01*
X0556569Y0099755D01*
X0556569Y0099755D01*
X0557047Y0099692D01*
X0557264Y0099589D01*
X0557379Y0099377D01*
X0557347Y0099138D01*
X0557182Y0098963D01*
X0557026Y0098917D01*
X0556813Y0098900D01*
X0556789Y0098897D01*
X0556692Y0098881D01*
X0556211Y0098752D01*
X0555664Y0098455D01*
X0555664Y0098455D01*
X0555469Y0098314D01*
X0555469Y0098314D01*
X0555275Y0098157D01*
X0555275Y0098157D01*
X0554871Y0097684D01*
X0554871Y0097684D01*
X0554603Y0097122D01*
X0554529Y0096893D01*
X0554493Y0096773D01*
X0554412Y0096156D01*
X0554412Y0064259D01*
X0554442Y0063886D01*
X0554461Y0063765D01*
X0554590Y0063284D01*
X0554887Y0062737D01*
X0554887Y0062737D01*
X0554887Y0062737D01*
X0555028Y0062542D01*
X0555185Y0062348D01*
X0555185Y0062348D01*
X0555185Y0062348D01*
X0555658Y0061944D01*
X0555680Y0061930D01*
X0555676Y0061924D01*
X0555825Y0061782D01*
X0555869Y0061545D01*
X0555766Y0061328D01*
X0555675Y0061258D01*
X0555675Y0061258D01*
X0555672Y0061256D01*
X0555669Y0061253D01*
X0555664Y0061251D01*
X0555664Y0061251D01*
X0555469Y0061109D01*
X0555469Y0061109D01*
X0555275Y0060952D01*
X0555275Y0060952D01*
X0554871Y0060479D01*
X0554871Y0060479D01*
X0554603Y0059917D01*
X0554529Y0059688D01*
X0554493Y0059568D01*
X0554412Y0058951D01*
X0554412Y0002360D01*
X0554338Y0002131D01*
X0554143Y0001989D01*
X0554022Y0001970D01*
X0024600Y0001970D01*
X0024371Y0002044D01*
X0024324Y0002084D01*
X0002085Y0024324D01*
X0001975Y0024538D01*
X0001970Y0024599D01*
X0001970Y0189600D01*
X0002045Y0189829D01*
X0002240Y0189971D01*
X0002360Y0189990D01*
X0057346Y0189990D01*
X0057346Y0189990D01*
X0057847Y0190124D01*
X0057847Y0190124D01*
X0057847Y0190124D01*
X0058296Y0190383D01*
X0058296Y0190383D01*
X0058297Y0190383D01*
X0058663Y0190750D01*
X0058923Y0191200D01*
X0059057Y0191701D01*
X0059057Y0244188D01*
X0058923Y0244689D01*
X0058923Y0244689D01*
X0058923Y0244689D01*
X0058663Y0245139D01*
X0058663Y0245139D01*
X0058663Y0245139D01*
X0058297Y0245505D01*
X0058296Y0245505D01*
X0058296Y0245505D01*
X0057847Y0245765D01*
X0057847Y0245765D01*
X0057653Y0245817D01*
X0057346Y0245899D01*
X0057346Y0245899D01*
X0002360Y0245899D01*
X0002131Y0245974D01*
X0001990Y0246168D01*
X0001970Y0246289D01*
X0001970Y0366765D01*
X0002045Y0366994D01*
X0002240Y0367136D01*
X0002360Y0367155D01*
X0057346Y0367155D01*
X0057346Y0367155D01*
X0057847Y0367289D01*
X0057847Y0367289D01*
X0057847Y0367289D01*
X0058296Y0367549D01*
X0058296Y0367549D01*
X0058297Y0367549D01*
X0058663Y0367916D01*
X0058923Y0368365D01*
X0059057Y0368866D01*
X0059057Y0421353D01*
X0058923Y0421855D01*
X0058923Y0421855D01*
X0058923Y0421855D01*
X0058663Y0422304D01*
X0058663Y0422304D01*
X0058663Y0422304D01*
X0058297Y0422671D01*
X0058296Y0422671D01*
X0058296Y0422671D01*
X0057847Y0422930D01*
X0057847Y0422930D01*
X0057653Y0422982D01*
X0057346Y0423064D01*
X0057346Y0423064D01*
X0002360Y0423064D01*
X0002131Y0423139D01*
X0001990Y0423334D01*
X0001970Y0423454D01*
X0001970Y0451612D01*
X0002045Y0451842D01*
X0002085Y0451888D01*
X0012513Y0462316D01*
X0012728Y0462426D01*
X0012789Y0462431D01*
X0617133Y0462431D01*
X0617362Y0462356D01*
G37*
M02*
