G75*
G70*
%OFA0B0*%
%FSLAX25Y25*%
%IPPOS*%
%LPD*%
%AMOC8*
5,1,8,0,0,1.08239X$1,22.5*
%
%ADD11C,0.00787*%
X0000000Y0000000D02*
%LPD*%
G01*
D11*
X0011811Y0464401D02*
X0618110Y0464401D01*
X0000000Y0421094D02*
X0000000Y0452590D01*
X0023622Y0000000D02*
X0000000Y0023622D01*
X0000000Y0243929D02*
X0000000Y0369125D01*
X0000000Y0023622D02*
X0000000Y0191960D01*
X0057087Y0421094D02*
X0000000Y0421094D01*
X0564961Y0172275D02*
X0629921Y0172275D01*
X0057087Y0191960D02*
X0057087Y0243929D01*
X0629921Y0224244D02*
X0564961Y0224244D01*
X0606299Y0000000D02*
X0023622Y0000000D01*
X0629921Y0369125D02*
X0629921Y0224244D01*
X0618110Y0464401D02*
X0629921Y0452590D01*
X0629921Y0452590D02*
X0629921Y0421094D01*
X0564961Y0369125D02*
X0629921Y0369125D01*
X0057087Y0243929D02*
X0000000Y0243929D01*
X0629921Y0421094D02*
X0564961Y0421094D01*
X0000000Y0191960D02*
X0057087Y0191960D01*
X0564961Y0224244D02*
X0564961Y0172275D01*
X0000000Y0452590D02*
X0011811Y0464401D01*
X0000000Y0369125D02*
X0057087Y0369125D01*
X0057087Y0369125D02*
X0057087Y0421094D01*
X0629921Y0172275D02*
X0629921Y0023622D01*
X0629921Y0023622D02*
X0606299Y0000000D01*
X0564961Y0421094D02*
X0564961Y0369125D01*
M02*
